<mxfile host="app.diagrams.net" modified="2023-04-22T12:41:22.678Z" agent="Mozilla/5.0 (X11; Linux x86_64; rv:102.0) Gecko/20100101 Firefox/102.0" etag="NZpOPtWHKbGXKrzb9H2M" version="21.2.1">
  <diagram name="Page-1" id="8HqTIVqn9r-qF0mz_85h">
    <mxGraphModel dx="3184" dy="1280" grid="1" gridSize="10" guides="1" tooltips="1" connect="1" arrows="1" fold="1" page="1" pageScale="1" pageWidth="827" pageHeight="1169" math="0" shadow="0">
      <root>
        <mxCell id="0" />
        <mxCell id="1" parent="0" />
        <mxCell id="7935qGphLNg0khVBVC2c-280" value="" style="shape=image;verticalLabelPosition=bottom;labelBackgroundColor=default;verticalAlign=top;aspect=fixed;imageAspect=0;image=data:image/svg+xml,PHN2ZyBoZWlnaHQ9Ijk0MSIgd2lkdGg9IjE5MDAiIHN0eWxlPSJjdXJzb3I6IG1vdmU7IiB4bWxucz0iaHR0cDovL3d3dy53My5vcmcvMjAwMC9zdmciIHZpZXdCb3g9IjAgMCAxOTAwIDk0MSI+PGcgdHJhbnNmb3JtPSJ0cmFuc2xhdGUoLTEuMTM2ODY4Mzc3MjE2MTYwM2UtMTMsMCkgc2NhbGUoMSkiPjxwYXRoIGRhdGEtZGFya3JlYWRlci1pbmxpbmUtc3Ryb2tlPSIiIGQ9Ik02NjMsMjksIDk3MywyNDQiIG1hcmtlci1lbmQ9IiIgc3R5bGU9InN0cm9rZS13aWR0aDogMC40NTM1ODhweDsgc3Ryb2tlLW9wYWNpdHk6IDE7IHN0cm9rZTogcmdiKDgwLCA4MCwgODApOyAtLWRhcmtyZWFkZXItaW5saW5lLXN0cm9rZTogI2I1YWZhNjsiIGNsYXNzPSJsaW5rIi8+PHBhdGggZGF0YS1kYXJrcmVhZGVyLWlubGluZS1zdHJva2U9IiIgZD0iTTY2MywyOSwgOTczLDI4NyIgbWFya2VyLWVuZD0iIiBzdHlsZT0ic3Ryb2tlLXdpZHRoOiAxLjQ1OTYxcHg7IHN0cm9rZS1vcGFjaXR5OiAxOyBzdHJva2U6IHJnYig4MCwgODAsIDgwKTsgLS1kYXJrcmVhZGVyLWlubGluZS1zdHJva2U6ICNiNWFmYTY7IiBjbGFzcz0ibGluayIvPjxwYXRoIGRhdGEtZGFya3JlYWRlci1pbmxpbmUtc3Ryb2tlPSIiIGQ9Ik02NjMsMjksIDk3MywzMzAiIG1hcmtlci1lbmQ9IiIgc3R5bGU9InN0cm9rZS13aWR0aDogMC42OTA0ODdweDsgc3Ryb2tlLW9wYWNpdHk6IDE7IHN0cm9rZTogcmdiKDgwLCA4MCwgODApOyAtLWRhcmtyZWFkZXItaW5saW5lLXN0cm9rZTogI2I1YWZhNjsiIGNsYXNzPSJsaW5rIi8+PHBhdGggZGF0YS1kYXJrcmVhZGVyLWlubGluZS1zdHJva2U9IiIgZD0iTTY2MywyOSwgOTczLDM3MyIgbWFya2VyLWVuZD0iIiBzdHlsZT0ic3Ryb2tlLXdpZHRoOiAxLjQyNjE0cHg7IHN0cm9rZS1vcGFjaXR5OiAxOyBzdHJva2U6IHJnYig4MCwgODAsIDgwKTsgLS1kYXJrcmVhZGVyLWlubGluZS1zdHJva2U6ICNiNWFmYTY7IiBjbGFzcz0ibGluayIvPjxwYXRoIGRhdGEtZGFya3JlYWRlci1pbmxpbmUtc3Ryb2tlPSIiIGQ9Ik02NjMsMjksIDk3Myw0MTYiIG1hcmtlci1lbmQ9IiIgc3R5bGU9InN0cm9rZS13aWR0aDogMC4xMjY5MTRweDsgc3Ryb2tlLW9wYWNpdHk6IDE7IHN0cm9rZTogcmdiKDgwLCA4MCwgODApOyAtLWRhcmtyZWFkZXItaW5saW5lLXN0cm9rZTogI2I1YWZhNjsiIGNsYXNzPSJsaW5rIi8+PHBhdGggZGF0YS1kYXJrcmVhZGVyLWlubGluZS1zdHJva2U9IiIgZD0iTTY2MywyOSwgOTczLDQ1OSIgbWFya2VyLWVuZD0iIiBzdHlsZT0ic3Ryb2tlLXdpZHRoOiAxLjIwMjUxcHg7IHN0cm9rZS1vcGFjaXR5OiAxOyBzdHJva2U6IHJnYig4MCwgODAsIDgwKTsgLS1kYXJrcmVhZGVyLWlubGluZS1zdHJva2U6ICNiNWFmYTY7IiBjbGFzcz0ibGluayIvPjxwYXRoIGRhdGEtZGFya3JlYWRlci1pbmxpbmUtc3Ryb2tlPSIiIGQ9Ik02NjMsMjksIDk3Myw1MDIiIG1hcmtlci1lbmQ9IiIgc3R5bGU9InN0cm9rZS13aWR0aDogMS4xNzIxOHB4OyBzdHJva2Utb3BhY2l0eTogMTsgc3Ryb2tlOiByZ2IoODAsIDgwLCA4MCk7IC0tZGFya3JlYWRlci1pbmxpbmUtc3Ryb2tlOiAjYjVhZmE2OyIgY2xhc3M9ImxpbmsiLz48cGF0aCBkYXRhLWRhcmtyZWFkZXItaW5saW5lLXN0cm9rZT0iIiBkPSJNNjYzLDI5LCA5NzMsNTQ1IiBtYXJrZXItZW5kPSIiIHN0eWxlPSJzdHJva2Utd2lkdGg6IDAuOTkyOTkzcHg7IHN0cm9rZS1vcGFjaXR5OiAxOyBzdHJva2U6IHJnYig4MCwgODAsIDgwKTsgLS1kYXJrcmVhZGVyLWlubGluZS1zdHJva2U6ICNiNWFmYTY7IiBjbGFzcz0ibGluayIvPjxwYXRoIGRhdGEtZGFya3JlYWRlci1pbmxpbmUtc3Ryb2tlPSIiIGQ9Ik02NjMsMjksIDk3Myw1ODgiIG1hcmtlci1lbmQ9IiIgc3R5bGU9InN0cm9rZS13aWR0aDogMC43ODk5NjZweDsgc3Ryb2tlLW9wYWNpdHk6IDE7IHN0cm9rZTogcmdiKDgwLCA4MCwgODApOyAtLWRhcmtyZWFkZXItaW5saW5lLXN0cm9rZTogI2I1YWZhNjsiIGNsYXNzPSJsaW5rIi8+PHBhdGggZGF0YS1kYXJrcmVhZGVyLWlubGluZS1zdHJva2U9IiIgZD0iTTY2MywyOSwgOTczLDYzMSIgbWFya2VyLWVuZD0iIiBzdHlsZT0ic3Ryb2tlLXdpZHRoOiAwLjEwNzkyNHB4OyBzdHJva2Utb3BhY2l0eTogMTsgc3Ryb2tlOiByZ2IoODAsIDgwLCA4MCk7IC0tZGFya3JlYWRlci1pbmxpbmUtc3Ryb2tlOiAjYjVhZmE2OyIgY2xhc3M9ImxpbmsiLz48cGF0aCBkYXRhLWRhcmtyZWFkZXItaW5saW5lLXN0cm9rZT0iIiBkPSJNNjYzLDI5LCA5NzMsNjc0IiBtYXJrZXItZW5kPSIiIHN0eWxlPSJzdHJva2Utd2lkdGg6IDEuMjg1NXB4OyBzdHJva2Utb3BhY2l0eTogMTsgc3Ryb2tlOiByZ2IoODAsIDgwLCA4MCk7IC0tZGFya3JlYWRlci1pbmxpbmUtc3Ryb2tlOiAjYjVhZmE2OyIgY2xhc3M9ImxpbmsiLz48cGF0aCBkYXRhLWRhcmtyZWFkZXItaW5saW5lLXN0cm9rZT0iIiBkPSJNNjYzLDcyLCA5NzMsMjQ0IiBtYXJrZXItZW5kPSIiIHN0eWxlPSJzdHJva2Utd2lkdGg6IDEuMDU1NjlweDsgc3Ryb2tlLW9wYWNpdHk6IDE7IHN0cm9rZTogcmdiKDgwLCA4MCwgODApOyAtLWRhcmtyZWFkZXItaW5saW5lLXN0cm9rZTogI2I1YWZhNjsiIGNsYXNzPSJsaW5rIi8+PHBhdGggZGF0YS1kYXJrcmVhZGVyLWlubGluZS1zdHJva2U9IiIgZD0iTTY2Myw3MiwgOTczLDI4NyIgbWFya2VyLWVuZD0iIiBzdHlsZT0ic3Ryb2tlLXdpZHRoOiAwLjIxNTA4MnB4OyBzdHJva2Utb3BhY2l0eTogMTsgc3Ryb2tlOiByZ2IoODAsIDgwLCA4MCk7IC0tZGFya3JlYWRlci1pbmxpbmUtc3Ryb2tlOiAjYjVhZmE2OyIgY2xhc3M9ImxpbmsiLz48cGF0aCBkYXRhLWRhcmtyZWFkZXItaW5saW5lLXN0cm9rZT0iIiBkPSJNNjYzLDcyLCA5NzMsMzMwIiBtYXJrZXItZW5kPSIiIHN0eWxlPSJzdHJva2Utd2lkdGg6IDAuODUwMTcycHg7IHN0cm9rZS1vcGFjaXR5OiAxOyBzdHJva2U6IHJnYig4MCwgODAsIDgwKTsgLS1kYXJrcmVhZGVyLWlubGluZS1zdHJva2U6ICNiNWFmYTY7IiBjbGFzcz0ibGluayIvPjxwYXRoIGRhdGEtZGFya3JlYWRlci1pbmxpbmUtc3Ryb2tlPSIiIGQ9Ik02NjMsNzIsIDk3MywzNzMiIG1hcmtlci1lbmQ9IiIgc3R5bGU9InN0cm9rZS13aWR0aDogMS4yNDYycHg7IHN0cm9rZS1vcGFjaXR5OiAxOyBzdHJva2U6IHJnYig4MCwgODAsIDgwKTsgLS1kYXJrcmVhZGVyLWlubGluZS1zdHJva2U6ICNiNWFmYTY7IiBjbGFzcz0ibGluayIvPjxwYXRoIGRhdGEtZGFya3JlYWRlci1pbmxpbmUtc3Ryb2tlPSIiIGQ9Ik02NjMsNzIsIDk3Myw0MTYiIG1hcmtlci1lbmQ9IiIgc3R5bGU9InN0cm9rZS13aWR0aDogMS4yMzI2NHB4OyBzdHJva2Utb3BhY2l0eTogMTsgc3Ryb2tlOiByZ2IoODAsIDgwLCA4MCk7IC0tZGFya3JlYWRlci1pbmxpbmUtc3Ryb2tlOiAjYjVhZmE2OyIgY2xhc3M9ImxpbmsiLz48cGF0aCBkYXRhLWRhcmtyZWFkZXItaW5saW5lLXN0cm9rZT0iIiBkPSJNNjYzLDcyLCA5NzMsNDU5IiBtYXJrZXItZW5kPSIiIHN0eWxlPSJzdHJva2Utd2lkdGg6IDEuMjk5OTZweDsgc3Ryb2tlLW9wYWNpdHk6IDE7IHN0cm9rZTogcmdiKDgwLCA4MCwgODApOyAtLWRhcmtyZWFkZXItaW5saW5lLXN0cm9rZTogI2I1YWZhNjsiIGNsYXNzPSJsaW5rIi8+PHBhdGggZGF0YS1kYXJrcmVhZGVyLWlubGluZS1zdHJva2U9IiIgZD0iTTY2Myw3MiwgOTczLDUwMiIgbWFya2VyLWVuZD0iIiBzdHlsZT0ic3Ryb2tlLXdpZHRoOiAwLjg4MDAzOXB4OyBzdHJva2Utb3BhY2l0eTogMTsgc3Ryb2tlOiByZ2IoODAsIDgwLCA4MCk7IC0tZGFya3JlYWRlci1pbmxpbmUtc3Ryb2tlOiAjYjVhZmE2OyIgY2xhc3M9ImxpbmsiLz48cGF0aCBkYXRhLWRhcmtyZWFkZXItaW5saW5lLXN0cm9rZT0iIiBkPSJNNjYzLDcyLCA5NzMsNTQ1IiBtYXJrZXItZW5kPSIiIHN0eWxlPSJzdHJva2Utd2lkdGg6IDAuODE3OTc1cHg7IHN0cm9rZS1vcGFjaXR5OiAxOyBzdHJva2U6IHJnYig4MCwgODAsIDgwKTsgLS1kYXJrcmVhZGVyLWlubGluZS1zdHJva2U6ICNiNWFmYTY7IiBjbGFzcz0ibGluayIvPjxwYXRoIGRhdGEtZGFya3JlYWRlci1pbmxpbmUtc3Ryb2tlPSIiIGQ9Ik02NjMsNzIsIDk3Myw1ODgiIG1hcmtlci1lbmQ9IiIgc3R5bGU9InN0cm9rZS13aWR0aDogMC42MzA2MDFweDsgc3Ryb2tlLW9wYWNpdHk6IDE7IHN0cm9rZTogcmdiKDgwLCA4MCwgODApOyAtLWRhcmtyZWFkZXItaW5saW5lLXN0cm9rZTogI2I1YWZhNjsiIGNsYXNzPSJsaW5rIi8+PHBhdGggZGF0YS1kYXJrcmVhZGVyLWlubGluZS1zdHJva2U9IiIgZD0iTTY2Myw3MiwgOTczLDYzMSIgbWFya2VyLWVuZD0iIiBzdHlsZT0ic3Ryb2tlLXdpZHRoOiAxLjEyODk1cHg7IHN0cm9rZS1vcGFjaXR5OiAxOyBzdHJva2U6IHJnYig4MCwgODAsIDgwKTsgLS1kYXJrcmVhZGVyLWlubGluZS1zdHJva2U6ICNiNWFmYTY7IiBjbGFzcz0ibGluayIvPjxwYXRoIGRhdGEtZGFya3JlYWRlci1pbmxpbmUtc3Ryb2tlPSIiIGQ9Ik02NjMsNzIsIDk3Myw2NzQiIG1hcmtlci1lbmQ9IiIgc3R5bGU9InN0cm9rZS13aWR0aDogMS4wMjAzNXB4OyBzdHJva2Utb3BhY2l0eTogMTsgc3Ryb2tlOiByZ2IoODAsIDgwLCA4MCk7IC0tZGFya3JlYWRlci1pbmxpbmUtc3Ryb2tlOiAjYjVhZmE2OyIgY2xhc3M9ImxpbmsiLz48cGF0aCBkYXRhLWRhcmtyZWFkZXItaW5saW5lLXN0cm9rZT0iIiBkPSJNNjYzLDExNSwgOTczLDI0NCIgbWFya2VyLWVuZD0iIiBzdHlsZT0ic3Ryb2tlLXdpZHRoOiAwLjQ2ODYwOHB4OyBzdHJva2Utb3BhY2l0eTogMTsgc3Ryb2tlOiByZ2IoODAsIDgwLCA4MCk7IC0tZGFya3JlYWRlci1pbmxpbmUtc3Ryb2tlOiAjYjVhZmE2OyIgY2xhc3M9ImxpbmsiLz48cGF0aCBkYXRhLWRhcmtyZWFkZXItaW5saW5lLXN0cm9rZT0iIiBkPSJNNjYzLDExNSwgOTczLDI4NyIgbWFya2VyLWVuZD0iIiBzdHlsZT0ic3Ryb2tlLXdpZHRoOiAxLjQ0MDk3cHg7IHN0cm9rZS1vcGFjaXR5OiAxOyBzdHJva2U6IHJnYig4MCwgODAsIDgwKTsgLS1kYXJrcmVhZGVyLWlubGluZS1zdHJva2U6ICNiNWFmYTY7IiBjbGFzcz0ibGluayIvPjxwYXRoIGRhdGEtZGFya3JlYWRlci1pbmxpbmUtc3Ryb2tlPSIiIGQ9Ik02NjMsMTE1LCA5NzMsMzMwIiBtYXJrZXItZW5kPSIiIHN0eWxlPSJzdHJva2Utd2lkdGg6IDAuMjk4MzI5cHg7IHN0cm9rZS1vcGFjaXR5OiAxOyBzdHJva2U6IHJnYig4MCwgODAsIDgwKTsgLS1kYXJrcmVhZGVyLWlubGluZS1zdHJva2U6ICNiNWFmYTY7IiBjbGFzcz0ibGluayIvPjxwYXRoIGRhdGEtZGFya3JlYWRlci1pbmxpbmUtc3Ryb2tlPSIiIGQ9Ik02NjMsMTE1LCA5NzMsMzczIiBtYXJrZXItZW5kPSIiIHN0eWxlPSJzdHJva2Utd2lkdGg6IDEuMTA3NzdweDsgc3Ryb2tlLW9wYWNpdHk6IDE7IHN0cm9rZTogcmdiKDgwLCA4MCwgODApOyAtLWRhcmtyZWFkZXItaW5saW5lLXN0cm9rZTogI2I1YWZhNjsiIGNsYXNzPSJsaW5rIi8+PHBhdGggZGF0YS1kYXJrcmVhZGVyLWlubGluZS1zdHJva2U9IiIgZD0iTTY2MywxMTUsIDk3Myw0MTYiIG1hcmtlci1lbmQ9IiIgc3R5bGU9InN0cm9rZS13aWR0aDogMC41ODM4MzdweDsgc3Ryb2tlLW9wYWNpdHk6IDE7IHN0cm9rZTogcmdiKDgwLCA4MCwgODApOyAtLWRhcmtyZWFkZXItaW5saW5lLXN0cm9rZTogI2I1YWZhNjsiIGNsYXNzPSJsaW5rIi8+PHBhdGggZGF0YS1kYXJrcmVhZGVyLWlubGluZS1zdHJva2U9IiIgZD0iTTY2MywxMTUsIDk3Myw0NTkiIG1hcmtlci1lbmQ9IiIgc3R5bGU9InN0cm9rZS13aWR0aDogMS4wNjcyOHB4OyBzdHJva2Utb3BhY2l0eTogMTsgc3Ryb2tlOiByZ2IoODAsIDgwLCA4MCk7IC0tZGFya3JlYWRlci1pbmxpbmUtc3Ryb2tlOiAjYjVhZmE2OyIgY2xhc3M9ImxpbmsiLz48cGF0aCBkYXRhLWRhcmtyZWFkZXItaW5saW5lLXN0cm9rZT0iIiBkPSJNNjYzLDExNSwgOTczLDUwMiIgbWFya2VyLWVuZD0iIiBzdHlsZT0ic3Ryb2tlLXdpZHRoOiAwLjE5MzYyNXB4OyBzdHJva2Utb3BhY2l0eTogMTsgc3Ryb2tlOiByZ2IoODAsIDgwLCA4MCk7IC0tZGFya3JlYWRlci1pbmxpbmUtc3Ryb2tlOiAjYjVhZmE2OyIgY2xhc3M9ImxpbmsiLz48cGF0aCBkYXRhLWRhcmtyZWFkZXItaW5saW5lLXN0cm9rZT0iIiBkPSJNNjYzLDExNSwgOTczLDU0NSIgbWFya2VyLWVuZD0iIiBzdHlsZT0ic3Ryb2tlLXdpZHRoOiAwLjM5MDA5MXB4OyBzdHJva2Utb3BhY2l0eTogMTsgc3Ryb2tlOiByZ2IoODAsIDgwLCA4MCk7IC0tZGFya3JlYWRlci1pbmxpbmUtc3Ryb2tlOiAjYjVhZmE2OyIgY2xhc3M9ImxpbmsiLz48cGF0aCBkYXRhLWRhcmtyZWFkZXItaW5saW5lLXN0cm9rZT0iIiBkPSJNNjYzLDExNSwgOTczLDU4OCIgbWFya2VyLWVuZD0iIiBzdHlsZT0ic3Ryb2tlLXdpZHRoOiAwLjY1NjYxM3B4OyBzdHJva2Utb3BhY2l0eTogMTsgc3Ryb2tlOiByZ2IoODAsIDgwLCA4MCk7IC0tZGFya3JlYWRlci1pbmxpbmUtc3Ryb2tlOiAjYjVhZmE2OyIgY2xhc3M9ImxpbmsiLz48cGF0aCBkYXRhLWRhcmtyZWFkZXItaW5saW5lLXN0cm9rZT0iIiBkPSJNNjYzLDExNSwgOTczLDYzMSIgbWFya2VyLWVuZD0iIiBzdHlsZT0ic3Ryb2tlLXdpZHRoOiAwLjk1OTkzOHB4OyBzdHJva2Utb3BhY2l0eTogMTsgc3Ryb2tlOiByZ2IoODAsIDgwLCA4MCk7IC0tZGFya3JlYWRlci1pbmxpbmUtc3Ryb2tlOiAjYjVhZmE2OyIgY2xhc3M9ImxpbmsiLz48cGF0aCBkYXRhLWRhcmtyZWFkZXItaW5saW5lLXN0cm9rZT0iIiBkPSJNNjYzLDExNSwgOTczLDY3NCIgbWFya2VyLWVuZD0iIiBzdHlsZT0ic3Ryb2tlLXdpZHRoOiAwLjU4NzE1NnB4OyBzdHJva2Utb3BhY2l0eTogMTsgc3Ryb2tlOiByZ2IoODAsIDgwLCA4MCk7IC0tZGFya3JlYWRlci1pbmxpbmUtc3Ryb2tlOiAjYjVhZmE2OyIgY2xhc3M9ImxpbmsiLz48cGF0aCBkYXRhLWRhcmtyZWFkZXItaW5saW5lLXN0cm9rZT0iIiBkPSJNNjYzLDE1OCwgOTczLDI0NCIgbWFya2VyLWVuZD0iIiBzdHlsZT0ic3Ryb2tlLXdpZHRoOiAwLjM0OTc0NnB4OyBzdHJva2Utb3BhY2l0eTogMTsgc3Ryb2tlOiByZ2IoODAsIDgwLCA4MCk7IC0tZGFya3JlYWRlci1pbmxpbmUtc3Ryb2tlOiAjYjVhZmE2OyIgY2xhc3M9ImxpbmsiLz48cGF0aCBkYXRhLWRhcmtyZWFkZXItaW5saW5lLXN0cm9rZT0iIiBkPSJNNjYzLDE1OCwgOTczLDI4NyIgbWFya2VyLWVuZD0iIiBzdHlsZT0ic3Ryb2tlLXdpZHRoOiAwLjM0OTEyNXB4OyBzdHJva2Utb3BhY2l0eTogMTsgc3Ryb2tlOiByZ2IoODAsIDgwLCA4MCk7IC0tZGFya3JlYWRlci1pbmxpbmUtc3Ryb2tlOiAjYjVhZmE2OyIgY2xhc3M9ImxpbmsiLz48cGF0aCBkYXRhLWRhcmtyZWFkZXItaW5saW5lLXN0cm9rZT0iIiBkPSJNNjYzLDE1OCwgOTczLDMzMCIgbWFya2VyLWVuZD0iIiBzdHlsZT0ic3Ryb2tlLXdpZHRoOiAwLjA2MDU5OHB4OyBzdHJva2Utb3BhY2l0eTogMTsgc3Ryb2tlOiByZ2IoODAsIDgwLCA4MCk7IC0tZGFya3JlYWRlci1pbmxpbmUtc3Ryb2tlOiAjYjVhZmE2OyIgY2xhc3M9ImxpbmsiLz48cGF0aCBkYXRhLWRhcmtyZWFkZXItaW5saW5lLXN0cm9rZT0iIiBkPSJNNjYzLDE1OCwgOTczLDM3MyIgbWFya2VyLWVuZD0iIiBzdHlsZT0ic3Ryb2tlLXdpZHRoOiAxLjQ1MjEycHg7IHN0cm9rZS1vcGFjaXR5OiAxOyBzdHJva2U6IHJnYig4MCwgODAsIDgwKTsgLS1kYXJrcmVhZGVyLWlubGluZS1zdHJva2U6ICNiNWFmYTY7IiBjbGFzcz0ibGluayIvPjxwYXRoIGRhdGEtZGFya3JlYWRlci1pbmxpbmUtc3Ryb2tlPSIiIGQ9Ik02NjMsMTU4LCA5NzMsNDE2IiBtYXJrZXItZW5kPSIiIHN0eWxlPSJzdHJva2Utd2lkdGg6IDAuOTk5NDE4cHg7IHN0cm9rZS1vcGFjaXR5OiAxOyBzdHJva2U6IHJnYig4MCwgODAsIDgwKTsgLS1kYXJrcmVhZGVyLWlubGluZS1zdHJva2U6ICNiNWFmYTY7IiBjbGFzcz0ibGluayIvPjxwYXRoIGRhdGEtZGFya3JlYWRlci1pbmxpbmUtc3Ryb2tlPSIiIGQ9Ik02NjMsMTU4LCA5NzMsNDU5IiBtYXJrZXItZW5kPSIiIHN0eWxlPSJzdHJva2Utd2lkdGg6IDEuMjc3MTdweDsgc3Ryb2tlLW9wYWNpdHk6IDE7IHN0cm9rZTogcmdiKDgwLCA4MCwgODApOyAtLWRhcmtyZWFkZXItaW5saW5lLXN0cm9rZTogI2I1YWZhNjsiIGNsYXNzPSJsaW5rIi8+PHBhdGggZGF0YS1kYXJrcmVhZGVyLWlubGluZS1zdHJva2U9IiIgZD0iTTY2MywxNTgsIDk3Myw1MDIiIG1hcmtlci1lbmQ9IiIgc3R5bGU9InN0cm9rZS13aWR0aDogMC45Njg3OTJweDsgc3Ryb2tlLW9wYWNpdHk6IDE7IHN0cm9rZTogcmdiKDgwLCA4MCwgODApOyAtLWRhcmtyZWFkZXItaW5saW5lLXN0cm9rZTogI2I1YWZhNjsiIGNsYXNzPSJsaW5rIi8+PHBhdGggZGF0YS1kYXJrcmVhZGVyLWlubGluZS1zdHJva2U9IiIgZD0iTTY2MywxNTgsIDk3Myw1NDUiIG1hcmtlci1lbmQ9IiIgc3R5bGU9InN0cm9rZS13aWR0aDogMS4zOTQzNnB4OyBzdHJva2Utb3BhY2l0eTogMTsgc3Ryb2tlOiByZ2IoODAsIDgwLCA4MCk7IC0tZGFya3JlYWRlci1pbmxpbmUtc3Ryb2tlOiAjYjVhZmE2OyIgY2xhc3M9ImxpbmsiLz48cGF0aCBkYXRhLWRhcmtyZWFkZXItaW5saW5lLXN0cm9rZT0iIiBkPSJNNjYzLDE1OCwgOTczLDU4OCIgbWFya2VyLWVuZD0iIiBzdHlsZT0ic3Ryb2tlLXdpZHRoOiAwLjcyODE0NXB4OyBzdHJva2Utb3BhY2l0eTogMTsgc3Ryb2tlOiByZ2IoODAsIDgwLCA4MCk7IC0tZGFya3JlYWRlci1pbmxpbmUtc3Ryb2tlOiAjYjVhZmE2OyIgY2xhc3M9ImxpbmsiLz48cGF0aCBkYXRhLWRhcmtyZWFkZXItaW5saW5lLXN0cm9rZT0iIiBkPSJNNjYzLDE1OCwgOTczLDYzMSIgbWFya2VyLWVuZD0iIiBzdHlsZT0ic3Ryb2tlLXdpZHRoOiAwLjU2MjI0NnB4OyBzdHJva2Utb3BhY2l0eTogMTsgc3Ryb2tlOiByZ2IoODAsIDgwLCA4MCk7IC0tZGFya3JlYWRlci1pbmxpbmUtc3Ryb2tlOiAjYjVhZmE2OyIgY2xhc3M9ImxpbmsiLz48cGF0aCBkYXRhLWRhcmtyZWFkZXItaW5saW5lLXN0cm9rZT0iIiBkPSJNNjYzLDE1OCwgOTczLDY3NCIgbWFya2VyLWVuZD0iIiBzdHlsZT0ic3Ryb2tlLXdpZHRoOiAwLjMzMjAzMnB4OyBzdHJva2Utb3BhY2l0eTogMTsgc3Ryb2tlOiByZ2IoODAsIDgwLCA4MCk7IC0tZGFya3JlYWRlci1pbmxpbmUtc3Ryb2tlOiAjYjVhZmE2OyIgY2xhc3M9ImxpbmsiLz48cGF0aCBkYXRhLWRhcmtyZWFkZXItaW5saW5lLXN0cm9rZT0iIiBkPSJNNjYzLDIwMSwgOTczLDI0NCIgbWFya2VyLWVuZD0iIiBzdHlsZT0ic3Ryb2tlLXdpZHRoOiAxLjIzNDA0cHg7IHN0cm9rZS1vcGFjaXR5OiAxOyBzdHJva2U6IHJnYig4MCwgODAsIDgwKTsgLS1kYXJrcmVhZGVyLWlubGluZS1zdHJva2U6ICNiNWFmYTY7IiBjbGFzcz0ibGluayIvPjxwYXRoIGRhdGEtZGFya3JlYWRlci1pbmxpbmUtc3Ryb2tlPSIiIGQ9Ik02NjMsMjAxLCA5NzMsMjg3IiBtYXJrZXItZW5kPSIiIHN0eWxlPSJzdHJva2Utd2lkdGg6IDAuMzc4MzZweDsgc3Ryb2tlLW9wYWNpdHk6IDE7IHN0cm9rZTogcmdiKDgwLCA4MCwgODApOyAtLWRhcmtyZWFkZXItaW5saW5lLXN0cm9rZTogI2I1YWZhNjsiIGNsYXNzPSJsaW5rIi8+PHBhdGggZGF0YS1kYXJrcmVhZGVyLWlubGluZS1zdHJva2U9IiIgZD0iTTY2MywyMDEsIDk3MywzMzAiIG1hcmtlci1lbmQ9IiIgc3R5bGU9InN0cm9rZS13aWR0aDogMS40MTgzN3B4OyBzdHJva2Utb3BhY2l0eTogMTsgc3Ryb2tlOiByZ2IoODAsIDgwLCA4MCk7IC0tZGFya3JlYWRlci1pbmxpbmUtc3Ryb2tlOiAjYjVhZmE2OyIgY2xhc3M9ImxpbmsiLz48cGF0aCBkYXRhLWRhcmtyZWFkZXItaW5saW5lLXN0cm9rZT0iIiBkPSJNNjYzLDIwMSwgOTczLDM3MyIgbWFya2VyLWVuZD0iIiBzdHlsZT0ic3Ryb2tlLXdpZHRoOiAxLjE2NDQ5cHg7IHN0cm9rZS1vcGFjaXR5OiAxOyBzdHJva2U6IHJnYig4MCwgODAsIDgwKTsgLS1kYXJrcmVhZGVyLWlubGluZS1zdHJva2U6ICNiNWFmYTY7IiBjbGFzcz0ibGluayIvPjxwYXRoIGRhdGEtZGFya3JlYWRlci1pbmxpbmUtc3Ryb2tlPSIiIGQ9Ik02NjMsMjAxLCA5NzMsNDE2IiBtYXJrZXItZW5kPSIiIHN0eWxlPSJzdHJva2Utd2lkdGg6IDAuMzg0NTgxcHg7IHN0cm9rZS1vcGFjaXR5OiAxOyBzdHJva2U6IHJnYig4MCwgODAsIDgwKTsgLS1kYXJrcmVhZGVyLWlubGluZS1zdHJva2U6ICNiNWFmYTY7IiBjbGFzcz0ibGluayIvPjxwYXRoIGRhdGEtZGFya3JlYWRlci1pbmxpbmUtc3Ryb2tlPSIiIGQ9Ik02NjMsMjAxLCA5NzMsNDU5IiBtYXJrZXItZW5kPSIiIHN0eWxlPSJzdHJva2Utd2lkdGg6IDEuMTEyNjRweDsgc3Ryb2tlLW9wYWNpdHk6IDE7IHN0cm9rZTogcmdiKDgwLCA4MCwgODApOyAtLWRhcmtyZWFkZXItaW5saW5lLXN0cm9rZTogI2I1YWZhNjsiIGNsYXNzPSJsaW5rIi8+PHBhdGggZGF0YS1kYXJrcmVhZGVyLWlubGluZS1zdHJva2U9IiIgZD0iTTY2MywyMDEsIDk3Myw1MDIiIG1hcmtlci1lbmQ9IiIgc3R5bGU9InN0cm9rZS13aWR0aDogMS4xNjEwNnB4OyBzdHJva2Utb3BhY2l0eTogMTsgc3Ryb2tlOiByZ2IoODAsIDgwLCA4MCk7IC0tZGFya3JlYWRlci1pbmxpbmUtc3Ryb2tlOiAjYjVhZmE2OyIgY2xhc3M9ImxpbmsiLz48cGF0aCBkYXRhLWRhcmtyZWFkZXItaW5saW5lLXN0cm9rZT0iIiBkPSJNNjYzLDIwMSwgOTczLDU0NSIgbWFya2VyLWVuZD0iIiBzdHlsZT0ic3Ryb2tlLXdpZHRoOiAwLjc1NjA0M3B4OyBzdHJva2Utb3BhY2l0eTogMTsgc3Ryb2tlOiByZ2IoODAsIDgwLCA4MCk7IC0tZGFya3JlYWRlci1pbmxpbmUtc3Ryb2tlOiAjYjVhZmE2OyIgY2xhc3M9ImxpbmsiLz48cGF0aCBkYXRhLWRhcmtyZWFkZXItaW5saW5lLXN0cm9rZT0iIiBkPSJNNjYzLDIwMSwgOTczLDU4OCIgbWFya2VyLWVuZD0iIiBzdHlsZT0ic3Ryb2tlLXdpZHRoOiAwLjk0NTE2cHg7IHN0cm9rZS1vcGFjaXR5OiAxOyBzdHJva2U6IHJnYig4MCwgODAsIDgwKTsgLS1kYXJrcmVhZGVyLWlubGluZS1zdHJva2U6ICNiNWFmYTY7IiBjbGFzcz0ibGluayIvPjxwYXRoIGRhdGEtZGFya3JlYWRlci1pbmxpbmUtc3Ryb2tlPSIiIGQ9Ik02NjMsMjAxLCA5NzMsNjMxIiBtYXJrZXItZW5kPSIiIHN0eWxlPSJzdHJva2Utd2lkdGg6IDAuNjcxMTU1cHg7IHN0cm9rZS1vcGFjaXR5OiAxOyBzdHJva2U6IHJnYig4MCwgODAsIDgwKTsgLS1kYXJrcmVhZGVyLWlubGluZS1zdHJva2U6ICNiNWFmYTY7IiBjbGFzcz0ibGluayIvPjxwYXRoIGRhdGEtZGFya3JlYWRlci1pbmxpbmUtc3Ryb2tlPSIiIGQ9Ik02NjMsMjAxLCA5NzMsNjc0IiBtYXJrZXItZW5kPSIiIHN0eWxlPSJzdHJva2Utd2lkdGg6IDEuMTI1MDlweDsgc3Ryb2tlLW9wYWNpdHk6IDE7IHN0cm9rZTogcmdiKDgwLCA4MCwgODApOyAtLWRhcmtyZWFkZXItaW5saW5lLXN0cm9rZTogI2I1YWZhNjsiIGNsYXNzPSJsaW5rIi8+PHBhdGggZGF0YS1kYXJrcmVhZGVyLWlubGluZS1zdHJva2U9IiIgZD0iTTY2MywyNDQsIDk3MywyNDQiIG1hcmtlci1lbmQ9IiIgc3R5bGU9InN0cm9rZS13aWR0aDogMC4xMTExODFweDsgc3Ryb2tlLW9wYWNpdHk6IDE7IHN0cm9rZTogcmdiKDgwLCA4MCwgODApOyAtLWRhcmtyZWFkZXItaW5saW5lLXN0cm9rZTogI2I1YWZhNjsiIGNsYXNzPSJsaW5rIi8+PHBhdGggZGF0YS1kYXJrcmVhZGVyLWlubGluZS1zdHJva2U9IiIgZD0iTTY2MywyNDQsIDk3MywyODciIG1hcmtlci1lbmQ9IiIgc3R5bGU9InN0cm9rZS13aWR0aDogMC42MjI4cHg7IHN0cm9rZS1vcGFjaXR5OiAxOyBzdHJva2U6IHJnYig4MCwgODAsIDgwKTsgLS1kYXJrcmVhZGVyLWlubGluZS1zdHJva2U6ICNiNWFmYTY7IiBjbGFzcz0ibGluayIvPjxwYXRoIGRhdGEtZGFya3JlYWRlci1pbmxpbmUtc3Ryb2tlPSIiIGQ9Ik02NjMsMjQ0LCA5NzMsMzMwIiBtYXJrZXItZW5kPSIiIHN0eWxlPSJzdHJva2Utd2lkdGg6IDEuNDA4ODhweDsgc3Ryb2tlLW9wYWNpdHk6IDE7IHN0cm9rZTogcmdiKDgwLCA4MCwgODApOyAtLWRhcmtyZWFkZXItaW5saW5lLXN0cm9rZTogI2I1YWZhNjsiIGNsYXNzPSJsaW5rIi8+PHBhdGggZGF0YS1kYXJrcmVhZGVyLWlubGluZS1zdHJva2U9IiIgZD0iTTY2MywyNDQsIDk3MywzNzMiIG1hcmtlci1lbmQ9IiIgc3R5bGU9InN0cm9rZS13aWR0aDogMC40NjExNzdweDsgc3Ryb2tlLW9wYWNpdHk6IDE7IHN0cm9rZTogcmdiKDgwLCA4MCwgODApOyAtLWRhcmtyZWFkZXItaW5saW5lLXN0cm9rZTogI2I1YWZhNjsiIGNsYXNzPSJsaW5rIi8+PHBhdGggZGF0YS1kYXJrcmVhZGVyLWlubGluZS1zdHJva2U9IiIgZD0iTTY2MywyNDQsIDk3Myw0MTYiIG1hcmtlci1lbmQ9IiIgc3R5bGU9InN0cm9rZS13aWR0aDogMC4xNzY3MzVweDsgc3Ryb2tlLW9wYWNpdHk6IDE7IHN0cm9rZTogcmdiKDgwLCA4MCwgODApOyAtLWRhcmtyZWFkZXItaW5saW5lLXN0cm9rZTogI2I1YWZhNjsiIGNsYXNzPSJsaW5rIi8+PHBhdGggZGF0YS1kYXJrcmVhZGVyLWlubGluZS1zdHJva2U9IiIgZD0iTTY2MywyNDQsIDk3Myw0NTkiIG1hcmtlci1lbmQ9IiIgc3R5bGU9InN0cm9rZS13aWR0aDogMC4yMzk3MzZweDsgc3Ryb2tlLW9wYWNpdHk6IDE7IHN0cm9rZTogcmdiKDgwLCA4MCwgODApOyAtLWRhcmtyZWFkZXItaW5saW5lLXN0cm9rZTogI2I1YWZhNjsiIGNsYXNzPSJsaW5rIi8+PHBhdGggZGF0YS1kYXJrcmVhZGVyLWlubGluZS1zdHJva2U9IiIgZD0iTTY2MywyNDQsIDk3Myw1MDIiIG1hcmtlci1lbmQ9IiIgc3R5bGU9InN0cm9rZS13aWR0aDogMS40NTE5N3B4OyBzdHJva2Utb3BhY2l0eTogMTsgc3Ryb2tlOiByZ2IoODAsIDgwLCA4MCk7IC0tZGFya3JlYWRlci1pbmxpbmUtc3Ryb2tlOiAjYjVhZmE2OyIgY2xhc3M9ImxpbmsiLz48cGF0aCBkYXRhLWRhcmtyZWFkZXItaW5saW5lLXN0cm9rZT0iIiBkPSJNNjYzLDI0NCwgOTczLDU0NSIgbWFya2VyLWVuZD0iIiBzdHlsZT0ic3Ryb2tlLXdpZHRoOiAxLjQxMDAzcHg7IHN0cm9rZS1vcGFjaXR5OiAxOyBzdHJva2U6IHJnYig4MCwgODAsIDgwKTsgLS1kYXJrcmVhZGVyLWlubGluZS1zdHJva2U6ICNiNWFmYTY7IiBjbGFzcz0ibGluayIvPjxwYXRoIGRhdGEtZGFya3JlYWRlci1pbmxpbmUtc3Ryb2tlPSIiIGQ9Ik02NjMsMjQ0LCA5NzMsNTg4IiBtYXJrZXItZW5kPSIiIHN0eWxlPSJzdHJva2Utd2lkdGg6IDEuMzI0MDFweDsgc3Ryb2tlLW9wYWNpdHk6IDE7IHN0cm9rZTogcmdiKDgwLCA4MCwgODApOyAtLWRhcmtyZWFkZXItaW5saW5lLXN0cm9rZTogI2I1YWZhNjsiIGNsYXNzPSJsaW5rIi8+PHBhdGggZGF0YS1kYXJrcmVhZGVyLWlubGluZS1zdHJva2U9IiIgZD0iTTY2MywyNDQsIDk3Myw2MzEiIG1hcmtlci1lbmQ9IiIgc3R5bGU9InN0cm9rZS13aWR0aDogMS40MzYyNXB4OyBzdHJva2Utb3BhY2l0eTogMTsgc3Ryb2tlOiByZ2IoODAsIDgwLCA4MCk7IC0tZGFya3JlYWRlci1pbmxpbmUtc3Ryb2tlOiAjYjVhZmE2OyIgY2xhc3M9ImxpbmsiLz48cGF0aCBkYXRhLWRhcmtyZWFkZXItaW5saW5lLXN0cm9rZT0iIiBkPSJNNjYzLDI0NCwgOTczLDY3NCIgbWFya2VyLWVuZD0iIiBzdHlsZT0ic3Ryb2tlLXdpZHRoOiAwLjg0ODkwNXB4OyBzdHJva2Utb3BhY2l0eTogMTsgc3Ryb2tlOiByZ2IoODAsIDgwLCA4MCk7IC0tZGFya3JlYWRlci1pbmxpbmUtc3Ryb2tlOiAjYjVhZmE2OyIgY2xhc3M9ImxpbmsiLz48cGF0aCBkYXRhLWRhcmtyZWFkZXItaW5saW5lLXN0cm9rZT0iIiBkPSJNNjYzLDI4NywgOTczLDI0NCIgbWFya2VyLWVuZD0iIiBzdHlsZT0ic3Ryb2tlLXdpZHRoOiAwLjIwNjIwNnB4OyBzdHJva2Utb3BhY2l0eTogMTsgc3Ryb2tlOiByZ2IoODAsIDgwLCA4MCk7IC0tZGFya3JlYWRlci1pbmxpbmUtc3Ryb2tlOiAjYjVhZmE2OyIgY2xhc3M9ImxpbmsiLz48cGF0aCBkYXRhLWRhcmtyZWFkZXItaW5saW5lLXN0cm9rZT0iIiBkPSJNNjYzLDI4NywgOTczLDI4NyIgbWFya2VyLWVuZD0iIiBzdHlsZT0ic3Ryb2tlLXdpZHRoOiAwLjkzODI4MXB4OyBzdHJva2Utb3BhY2l0eTogMTsgc3Ryb2tlOiByZ2IoODAsIDgwLCA4MCk7IC0tZGFya3JlYWRlci1pbmxpbmUtc3Ryb2tlOiAjYjVhZmE2OyIgY2xhc3M9ImxpbmsiLz48cGF0aCBkYXRhLWRhcmtyZWFkZXItaW5saW5lLXN0cm9rZT0iIiBkPSJNNjYzLDI4NywgOTczLDMzMCIgbWFya2VyLWVuZD0iIiBzdHlsZT0ic3Ryb2tlLXdpZHRoOiAwLjY1MjIwM3B4OyBzdHJva2Utb3BhY2l0eTogMTsgc3Ryb2tlOiByZ2IoODAsIDgwLCA4MCk7IC0tZGFya3JlYWRlci1pbmxpbmUtc3Ryb2tlOiAjYjVhZmE2OyIgY2xhc3M9ImxpbmsiLz48cGF0aCBkYXRhLWRhcmtyZWFkZXItaW5saW5lLXN0cm9rZT0iIiBkPSJNNjYzLDI4NywgOTczLDM3MyIgbWFya2VyLWVuZD0iIiBzdHlsZT0ic3Ryb2tlLXdpZHRoOiAwLjc5Mzk2N3B4OyBzdHJva2Utb3BhY2l0eTogMTsgc3Ryb2tlOiByZ2IoODAsIDgwLCA4MCk7IC0tZGFya3JlYWRlci1pbmxpbmUtc3Ryb2tlOiAjYjVhZmE2OyIgY2xhc3M9ImxpbmsiLz48cGF0aCBkYXRhLWRhcmtyZWFkZXItaW5saW5lLXN0cm9rZT0iIiBkPSJNNjYzLDI4NywgOTczLDQxNiIgbWFya2VyLWVuZD0iIiBzdHlsZT0ic3Ryb2tlLXdpZHRoOiAxLjI5NjE1cHg7IHN0cm9rZS1vcGFjaXR5OiAxOyBzdHJva2U6IHJnYig4MCwgODAsIDgwKTsgLS1kYXJrcmVhZGVyLWlubGluZS1zdHJva2U6ICNiNWFmYTY7IiBjbGFzcz0ibGluayIvPjxwYXRoIGRhdGEtZGFya3JlYWRlci1pbmxpbmUtc3Ryb2tlPSIiIGQ9Ik02NjMsMjg3LCA5NzMsNDU5IiBtYXJrZXItZW5kPSIiIHN0eWxlPSJzdHJva2Utd2lkdGg6IDAuMzMwMzk4cHg7IHN0cm9rZS1vcGFjaXR5OiAxOyBzdHJva2U6IHJnYig4MCwgODAsIDgwKTsgLS1kYXJrcmVhZGVyLWlubGluZS1zdHJva2U6ICNiNWFmYTY7IiBjbGFzcz0ibGluayIvPjxwYXRoIGRhdGEtZGFya3JlYWRlci1pbmxpbmUtc3Ryb2tlPSIiIGQ9Ik02NjMsMjg3LCA5NzMsNTAyIiBtYXJrZXItZW5kPSIiIHN0eWxlPSJzdHJva2Utd2lkdGg6IDAuMzY5NTIzcHg7IHN0cm9rZS1vcGFjaXR5OiAxOyBzdHJva2U6IHJnYig4MCwgODAsIDgwKTsgLS1kYXJrcmVhZGVyLWlubGluZS1zdHJva2U6ICNiNWFmYTY7IiBjbGFzcz0ibGluayIvPjxwYXRoIGRhdGEtZGFya3JlYWRlci1pbmxpbmUtc3Ryb2tlPSIiIGQ9Ik02NjMsMjg3LCA5NzMsNTQ1IiBtYXJrZXItZW5kPSIiIHN0eWxlPSJzdHJva2Utd2lkdGg6IDEuNDU3MDdweDsgc3Ryb2tlLW9wYWNpdHk6IDE7IHN0cm9rZTogcmdiKDgwLCA4MCwgODApOyAtLWRhcmtyZWFkZXItaW5saW5lLXN0cm9rZTogI2I1YWZhNjsiIGNsYXNzPSJsaW5rIi8+PHBhdGggZGF0YS1kYXJrcmVhZGVyLWlubGluZS1zdHJva2U9IiIgZD0iTTY2MywyODcsIDk3Myw1ODgiIG1hcmtlci1lbmQ9IiIgc3R5bGU9InN0cm9rZS13aWR0aDogMC40MjgxMDZweDsgc3Ryb2tlLW9wYWNpdHk6IDE7IHN0cm9rZTogcmdiKDgwLCA4MCwgODApOyAtLWRhcmtyZWFkZXItaW5saW5lLXN0cm9rZTogI2I1YWZhNjsiIGNsYXNzPSJsaW5rIi8+PHBhdGggZGF0YS1kYXJrcmVhZGVyLWlubGluZS1zdHJva2U9IiIgZD0iTTY2MywyODcsIDk3Myw2MzEiIG1hcmtlci1lbmQ9IiIgc3R5bGU9InN0cm9rZS13aWR0aDogMC4yNjA3NDVweDsgc3Ryb2tlLW9wYWNpdHk6IDE7IHN0cm9rZTogcmdiKDgwLCA4MCwgODApOyAtLWRhcmtyZWFkZXItaW5saW5lLXN0cm9rZTogI2I1YWZhNjsiIGNsYXNzPSJsaW5rIi8+PHBhdGggZGF0YS1kYXJrcmVhZGVyLWlubGluZS1zdHJva2U9IiIgZD0iTTY2MywyODcsIDk3Myw2NzQiIG1hcmtlci1lbmQ9IiIgc3R5bGU9InN0cm9rZS13aWR0aDogMC43MDQyOTRweDsgc3Ryb2tlLW9wYWNpdHk6IDE7IHN0cm9rZTogcmdiKDgwLCA4MCwgODApOyAtLWRhcmtyZWFkZXItaW5saW5lLXN0cm9rZTogI2I1YWZhNjsiIGNsYXNzPSJsaW5rIi8+PHBhdGggZGF0YS1kYXJrcmVhZGVyLWlubGluZS1zdHJva2U9IiIgZD0iTTY2MywzMzAsIDk3MywyNDQiIG1hcmtlci1lbmQ9IiIgc3R5bGU9InN0cm9rZS13aWR0aDogMS4xMDkzNHB4OyBzdHJva2Utb3BhY2l0eTogMTsgc3Ryb2tlOiByZ2IoODAsIDgwLCA4MCk7IC0tZGFya3JlYWRlci1pbmxpbmUtc3Ryb2tlOiAjYjVhZmE2OyIgY2xhc3M9ImxpbmsiLz48cGF0aCBkYXRhLWRhcmtyZWFkZXItaW5saW5lLXN0cm9rZT0iIiBkPSJNNjYzLDMzMCwgOTczLDI4NyIgbWFya2VyLWVuZD0iIiBzdHlsZT0ic3Ryb2tlLXdpZHRoOiAwLjMxMTU2OHB4OyBzdHJva2Utb3BhY2l0eTogMTsgc3Ryb2tlOiByZ2IoODAsIDgwLCA4MCk7IC0tZGFya3JlYWRlci1pbmxpbmUtc3Ryb2tlOiAjYjVhZmE2OyIgY2xhc3M9ImxpbmsiLz48cGF0aCBkYXRhLWRhcmtyZWFkZXItaW5saW5lLXN0cm9rZT0iIiBkPSJNNjYzLDMzMCwgOTczLDMzMCIgbWFya2VyLWVuZD0iIiBzdHlsZT0ic3Ryb2tlLXdpZHRoOiAwLjU2MjU3NXB4OyBzdHJva2Utb3BhY2l0eTogMTsgc3Ryb2tlOiByZ2IoODAsIDgwLCA4MCk7IC0tZGFya3JlYWRlci1pbmxpbmUtc3Ryb2tlOiAjYjVhZmE2OyIgY2xhc3M9ImxpbmsiLz48cGF0aCBkYXRhLWRhcmtyZWFkZXItaW5saW5lLXN0cm9rZT0iIiBkPSJNNjYzLDMzMCwgOTczLDM3MyIgbWFya2VyLWVuZD0iIiBzdHlsZT0ic3Ryb2tlLXdpZHRoOiAwLjE1MDg1OHB4OyBzdHJva2Utb3BhY2l0eTogMTsgc3Ryb2tlOiByZ2IoODAsIDgwLCA4MCk7IC0tZGFya3JlYWRlci1pbmxpbmUtc3Ryb2tlOiAjYjVhZmE2OyIgY2xhc3M9ImxpbmsiLz48cGF0aCBkYXRhLWRhcmtyZWFkZXItaW5saW5lLXN0cm9rZT0iIiBkPSJNNjYzLDMzMCwgOTczLDQxNiIgbWFya2VyLWVuZD0iIiBzdHlsZT0ic3Ryb2tlLXdpZHRoOiAxLjQ2OTkycHg7IHN0cm9rZS1vcGFjaXR5OiAxOyBzdHJva2U6IHJnYig4MCwgODAsIDgwKTsgLS1kYXJrcmVhZGVyLWlubGluZS1zdHJva2U6ICNiNWFmYTY7IiBjbGFzcz0ibGluayIvPjxwYXRoIGRhdGEtZGFya3JlYWRlci1pbmxpbmUtc3Ryb2tlPSIiIGQ9Ik02NjMsMzMwLCA5NzMsNDU5IiBtYXJrZXItZW5kPSIiIHN0eWxlPSJzdHJva2Utd2lkdGg6IDAuNjA4NzhweDsgc3Ryb2tlLW9wYWNpdHk6IDE7IHN0cm9rZTogcmdiKDgwLCA4MCwgODApOyAtLWRhcmtyZWFkZXItaW5saW5lLXN0cm9rZTogI2I1YWZhNjsiIGNsYXNzPSJsaW5rIi8+PHBhdGggZGF0YS1kYXJrcmVhZGVyLWlubGluZS1zdHJva2U9IiIgZD0iTTY2MywzMzAsIDk3Myw1MDIiIG1hcmtlci1lbmQ9IiIgc3R5bGU9InN0cm9rZS13aWR0aDogMC4xNzU2MzlweDsgc3Ryb2tlLW9wYWNpdHk6IDE7IHN0cm9rZTogcmdiKDgwLCA4MCwgODApOyAtLWRhcmtyZWFkZXItaW5saW5lLXN0cm9rZTogI2I1YWZhNjsiIGNsYXNzPSJsaW5rIi8+PHBhdGggZGF0YS1kYXJrcmVhZGVyLWlubGluZS1zdHJva2U9IiIgZD0iTTY2MywzMzAsIDk3Myw1NDUiIG1hcmtlci1lbmQ9IiIgc3R5bGU9InN0cm9rZS13aWR0aDogMS4yNTU2NXB4OyBzdHJva2Utb3BhY2l0eTogMTsgc3Ryb2tlOiByZ2IoODAsIDgwLCA4MCk7IC0tZGFya3JlYWRlci1pbmxpbmUtc3Ryb2tlOiAjYjVhZmE2OyIgY2xhc3M9ImxpbmsiLz48cGF0aCBkYXRhLWRhcmtyZWFkZXItaW5saW5lLXN0cm9rZT0iIiBkPSJNNjYzLDMzMCwgOTczLDU4OCIgbWFya2VyLWVuZD0iIiBzdHlsZT0ic3Ryb2tlLXdpZHRoOiAwLjI2OTQ2NnB4OyBzdHJva2Utb3BhY2l0eTogMTsgc3Ryb2tlOiByZ2IoODAsIDgwLCA4MCk7IC0tZGFya3JlYWRlci1pbmxpbmUtc3Ryb2tlOiAjYjVhZmE2OyIgY2xhc3M9ImxpbmsiLz48cGF0aCBkYXRhLWRhcmtyZWFkZXItaW5saW5lLXN0cm9rZT0iIiBkPSJNNjYzLDMzMCwgOTczLDYzMSIgbWFya2VyLWVuZD0iIiBzdHlsZT0ic3Ryb2tlLXdpZHRoOiAwLjY0MjUzMXB4OyBzdHJva2Utb3BhY2l0eTogMTsgc3Ryb2tlOiByZ2IoODAsIDgwLCA4MCk7IC0tZGFya3JlYWRlci1pbmxpbmUtc3Ryb2tlOiAjYjVhZmE2OyIgY2xhc3M9ImxpbmsiLz48cGF0aCBkYXRhLWRhcmtyZWFkZXItaW5saW5lLXN0cm9rZT0iIiBkPSJNNjYzLDMzMCwgOTczLDY3NCIgbWFya2VyLWVuZD0iIiBzdHlsZT0ic3Ryb2tlLXdpZHRoOiAwLjg1NTc0MnB4OyBzdHJva2Utb3BhY2l0eTogMTsgc3Ryb2tlOiByZ2IoODAsIDgwLCA4MCk7IC0tZGFya3JlYWRlci1pbmxpbmUtc3Ryb2tlOiAjYjVhZmE2OyIgY2xhc3M9ImxpbmsiLz48cGF0aCBkYXRhLWRhcmtyZWFkZXItaW5saW5lLXN0cm9rZT0iIiBkPSJNNjYzLDM3MywgOTczLDI0NCIgbWFya2VyLWVuZD0iIiBzdHlsZT0ic3Ryb2tlLXdpZHRoOiAwLjk2Mzk1MnB4OyBzdHJva2Utb3BhY2l0eTogMTsgc3Ryb2tlOiByZ2IoODAsIDgwLCA4MCk7IC0tZGFya3JlYWRlci1pbmxpbmUtc3Ryb2tlOiAjYjVhZmE2OyIgY2xhc3M9ImxpbmsiLz48cGF0aCBkYXRhLWRhcmtyZWFkZXItaW5saW5lLXN0cm9rZT0iIiBkPSJNNjYzLDM3MywgOTczLDI4NyIgbWFya2VyLWVuZD0iIiBzdHlsZT0ic3Ryb2tlLXdpZHRoOiAwLjkxODczOXB4OyBzdHJva2Utb3BhY2l0eTogMTsgc3Ryb2tlOiByZ2IoODAsIDgwLCA4MCk7IC0tZGFya3JlYWRlci1pbmxpbmUtc3Ryb2tlOiAjYjVhZmE2OyIgY2xhc3M9ImxpbmsiLz48cGF0aCBkYXRhLWRhcmtyZWFkZXItaW5saW5lLXN0cm9rZT0iIiBkPSJNNjYzLDM3MywgOTczLDMzMCIgbWFya2VyLWVuZD0iIiBzdHlsZT0ic3Ryb2tlLXdpZHRoOiAxLjM3MjYzcHg7IHN0cm9rZS1vcGFjaXR5OiAxOyBzdHJva2U6IHJnYig4MCwgODAsIDgwKTsgLS1kYXJrcmVhZGVyLWlubGluZS1zdHJva2U6ICNiNWFmYTY7IiBjbGFzcz0ibGluayIvPjxwYXRoIGRhdGEtZGFya3JlYWRlci1pbmxpbmUtc3Ryb2tlPSIiIGQ9Ik02NjMsMzczLCA5NzMsMzczIiBtYXJrZXItZW5kPSIiIHN0eWxlPSJzdHJva2Utd2lkdGg6IDAuMzYwMjA3cHg7IHN0cm9rZS1vcGFjaXR5OiAxOyBzdHJva2U6IHJnYig4MCwgODAsIDgwKTsgLS1kYXJrcmVhZGVyLWlubGluZS1zdHJva2U6ICNiNWFmYTY7IiBjbGFzcz0ibGluayIvPjxwYXRoIGRhdGEtZGFya3JlYWRlci1pbmxpbmUtc3Ryb2tlPSIiIGQ9Ik02NjMsMzczLCA5NzMsNDE2IiBtYXJrZXItZW5kPSIiIHN0eWxlPSJzdHJva2Utd2lkdGg6IDEuMTYxMjFweDsgc3Ryb2tlLW9wYWNpdHk6IDE7IHN0cm9rZTogcmdiKDgwLCA4MCwgODApOyAtLWRhcmtyZWFkZXItaW5saW5lLXN0cm9rZTogI2I1YWZhNjsiIGNsYXNzPSJsaW5rIi8+PHBhdGggZGF0YS1kYXJrcmVhZGVyLWlubGluZS1zdHJva2U9IiIgZD0iTTY2MywzNzMsIDk3Myw0NTkiIG1hcmtlci1lbmQ9IiIgc3R5bGU9InN0cm9rZS13aWR0aDogMS4zNDNweDsgc3Ryb2tlLW9wYWNpdHk6IDE7IHN0cm9rZTogcmdiKDgwLCA4MCwgODApOyAtLWRhcmtyZWFkZXItaW5saW5lLXN0cm9rZTogI2I1YWZhNjsiIGNsYXNzPSJsaW5rIi8+PHBhdGggZGF0YS1kYXJrcmVhZGVyLWlubGluZS1zdHJva2U9IiIgZD0iTTY2MywzNzMsIDk3Myw1MDIiIG1hcmtlci1lbmQ9IiIgc3R5bGU9InN0cm9rZS13aWR0aDogMC4yOTA4NTJweDsgc3Ryb2tlLW9wYWNpdHk6IDE7IHN0cm9rZTogcmdiKDgwLCA4MCwgODApOyAtLWRhcmtyZWFkZXItaW5saW5lLXN0cm9rZTogI2I1YWZhNjsiIGNsYXNzPSJsaW5rIi8+PHBhdGggZGF0YS1kYXJrcmVhZGVyLWlubGluZS1zdHJva2U9IiIgZD0iTTY2MywzNzMsIDk3Myw1NDUiIG1hcmtlci1lbmQ9IiIgc3R5bGU9InN0cm9rZS13aWR0aDogMC4xMjQ2NTdweDsgc3Ryb2tlLW9wYWNpdHk6IDE7IHN0cm9rZTogcmdiKDgwLCA4MCwgODApOyAtLWRhcmtyZWFkZXItaW5saW5lLXN0cm9rZTogI2I1YWZhNjsiIGNsYXNzPSJsaW5rIi8+PHBhdGggZGF0YS1kYXJrcmVhZGVyLWlubGluZS1zdHJva2U9IiIgZD0iTTY2MywzNzMsIDk3Myw1ODgiIG1hcmtlci1lbmQ9IiIgc3R5bGU9InN0cm9rZS13aWR0aDogMC4zNzQ1NzNweDsgc3Ryb2tlLW9wYWNpdHk6IDE7IHN0cm9rZTogcmdiKDgwLCA4MCwgODApOyAtLWRhcmtyZWFkZXItaW5saW5lLXN0cm9rZTogI2I1YWZhNjsiIGNsYXNzPSJsaW5rIi8+PHBhdGggZGF0YS1kYXJrcmVhZGVyLWlubGluZS1zdHJva2U9IiIgZD0iTTY2MywzNzMsIDk3Myw2MzEiIG1hcmtlci1lbmQ9IiIgc3R5bGU9InN0cm9rZS13aWR0aDogMS4zODYwMXB4OyBzdHJva2Utb3BhY2l0eTogMTsgc3Ryb2tlOiByZ2IoODAsIDgwLCA4MCk7IC0tZGFya3JlYWRlci1pbmxpbmUtc3Ryb2tlOiAjYjVhZmE2OyIgY2xhc3M9ImxpbmsiLz48cGF0aCBkYXRhLWRhcmtyZWFkZXItaW5saW5lLXN0cm9rZT0iIiBkPSJNNjYzLDM3MywgOTczLDY3NCIgbWFya2VyLWVuZD0iIiBzdHlsZT0ic3Ryb2tlLXdpZHRoOiAxLjI4NDA5cHg7IHN0cm9rZS1vcGFjaXR5OiAxOyBzdHJva2U6IHJnYig4MCwgODAsIDgwKTsgLS1kYXJrcmVhZGVyLWlubGluZS1zdHJva2U6ICNiNWFmYTY7IiBjbGFzcz0ibGluayIvPjxwYXRoIGRhdGEtZGFya3JlYWRlci1pbmxpbmUtc3Ryb2tlPSIiIGQ9Ik02NjMsNDE2LCA5NzMsMjQ0IiBtYXJrZXItZW5kPSIiIHN0eWxlPSJzdHJva2Utd2lkdGg6IDAuODAyMnB4OyBzdHJva2Utb3BhY2l0eTogMTsgc3Ryb2tlOiByZ2IoODAsIDgwLCA4MCk7IC0tZGFya3JlYWRlci1pbmxpbmUtc3Ryb2tlOiAjYjVhZmE2OyIgY2xhc3M9ImxpbmsiLz48cGF0aCBkYXRhLWRhcmtyZWFkZXItaW5saW5lLXN0cm9rZT0iIiBkPSJNNjYzLDQxNiwgOTczLDI4NyIgbWFya2VyLWVuZD0iIiBzdHlsZT0ic3Ryb2tlLXdpZHRoOiAxLjAwODE2cHg7IHN0cm9rZS1vcGFjaXR5OiAxOyBzdHJva2U6IHJnYig4MCwgODAsIDgwKTsgLS1kYXJrcmVhZGVyLWlubGluZS1zdHJva2U6ICNiNWFmYTY7IiBjbGFzcz0ibGluayIvPjxwYXRoIGRhdGEtZGFya3JlYWRlci1pbmxpbmUtc3Ryb2tlPSIiIGQ9Ik02NjMsNDE2LCA5NzMsMzMwIiBtYXJrZXItZW5kPSIiIHN0eWxlPSJzdHJva2Utd2lkdGg6IDAuMTc2NDI4cHg7IHN0cm9rZS1vcGFjaXR5OiAxOyBzdHJva2U6IHJnYig4MCwgODAsIDgwKTsgLS1kYXJrcmVhZGVyLWlubGluZS1zdHJva2U6ICNiNWFmYTY7IiBjbGFzcz0ibGluayIvPjxwYXRoIGRhdGEtZGFya3JlYWRlci1pbmxpbmUtc3Ryb2tlPSIiIGQ9Ik02NjMsNDE2LCA5NzMsMzczIiBtYXJrZXItZW5kPSIiIHN0eWxlPSJzdHJva2Utd2lkdGg6IDAuNjY4MzI0cHg7IHN0cm9rZS1vcGFjaXR5OiAxOyBzdHJva2U6IHJnYig4MCwgODAsIDgwKTsgLS1kYXJrcmVhZGVyLWlubGluZS1zdHJva2U6ICNiNWFmYTY7IiBjbGFzcz0ibGluayIvPjxwYXRoIGRhdGEtZGFya3JlYWRlci1pbmxpbmUtc3Ryb2tlPSIiIGQ9Ik02NjMsNDE2LCA5NzMsNDE2IiBtYXJrZXItZW5kPSIiIHN0eWxlPSJzdHJva2Utd2lkdGg6IDEuMjI5NTVweDsgc3Ryb2tlLW9wYWNpdHk6IDE7IHN0cm9rZTogcmdiKDgwLCA4MCwgODApOyAtLWRhcmtyZWFkZXItaW5saW5lLXN0cm9rZTogI2I1YWZhNjsiIGNsYXNzPSJsaW5rIi8+PHBhdGggZGF0YS1kYXJrcmVhZGVyLWlubGluZS1zdHJva2U9IiIgZD0iTTY2Myw0MTYsIDk3Myw0NTkiIG1hcmtlci1lbmQ9IiIgc3R5bGU9InN0cm9rZS13aWR0aDogMC4xNjA3NzFweDsgc3Ryb2tlLW9wYWNpdHk6IDE7IHN0cm9rZTogcmdiKDgwLCA4MCwgODApOyAtLWRhcmtyZWFkZXItaW5saW5lLXN0cm9rZTogI2I1YWZhNjsiIGNsYXNzPSJsaW5rIi8+PHBhdGggZGF0YS1kYXJrcmVhZGVyLWlubGluZS1zdHJva2U9IiIgZD0iTTY2Myw0MTYsIDk3Myw1MDIiIG1hcmtlci1lbmQ9IiIgc3R5bGU9InN0cm9rZS13aWR0aDogMC40MDc3MDJweDsgc3Ryb2tlLW9wYWNpdHk6IDE7IHN0cm9rZTogcmdiKDgwLCA4MCwgODApOyAtLWRhcmtyZWFkZXItaW5saW5lLXN0cm9rZTogI2I1YWZhNjsiIGNsYXNzPSJsaW5rIi8+PHBhdGggZGF0YS1kYXJrcmVhZGVyLWlubGluZS1zdHJva2U9IiIgZD0iTTY2Myw0MTYsIDk3Myw1NDUiIG1hcmtlci1lbmQ9IiIgc3R5bGU9InN0cm9rZS13aWR0aDogMC4xMjY0NTZweDsgc3Ryb2tlLW9wYWNpdHk6IDE7IHN0cm9rZTogcmdiKDgwLCA4MCwgODApOyAtLWRhcmtyZWFkZXItaW5saW5lLXN0cm9rZTogI2I1YWZhNjsiIGNsYXNzPSJsaW5rIi8+PHBhdGggZGF0YS1kYXJrcmVhZGVyLWlubGluZS1zdHJva2U9IiIgZD0iTTY2Myw0MTYsIDk3Myw1ODgiIG1hcmtlci1lbmQ9IiIgc3R5bGU9InN0cm9rZS13aWR0aDogMS4yNzA0NHB4OyBzdHJva2Utb3BhY2l0eTogMTsgc3Ryb2tlOiByZ2IoODAsIDgwLCA4MCk7IC0tZGFya3JlYWRlci1pbmxpbmUtc3Ryb2tlOiAjYjVhZmE2OyIgY2xhc3M9ImxpbmsiLz48cGF0aCBkYXRhLWRhcmtyZWFkZXItaW5saW5lLXN0cm9rZT0iIiBkPSJNNjYzLDQxNiwgOTczLDYzMSIgbWFya2VyLWVuZD0iIiBzdHlsZT0ic3Ryb2tlLXdpZHRoOiAwLjEwOTAwMnB4OyBzdHJva2Utb3BhY2l0eTogMTsgc3Ryb2tlOiByZ2IoODAsIDgwLCA4MCk7IC0tZGFya3JlYWRlci1pbmxpbmUtc3Ryb2tlOiAjYjVhZmE2OyIgY2xhc3M9ImxpbmsiLz48cGF0aCBkYXRhLWRhcmtyZWFkZXItaW5saW5lLXN0cm9rZT0iIiBkPSJNNjYzLDQxNiwgOTczLDY3NCIgbWFya2VyLWVuZD0iIiBzdHlsZT0ic3Ryb2tlLXdpZHRoOiAwLjI3OTYwNXB4OyBzdHJva2Utb3BhY2l0eTogMTsgc3Ryb2tlOiByZ2IoODAsIDgwLCA4MCk7IC0tZGFya3JlYWRlci1pbmxpbmUtc3Ryb2tlOiAjYjVhZmE2OyIgY2xhc3M9ImxpbmsiLz48cGF0aCBkYXRhLWRhcmtyZWFkZXItaW5saW5lLXN0cm9rZT0iIiBkPSJNNjYzLDQ1OSwgOTczLDI0NCIgbWFya2VyLWVuZD0iIiBzdHlsZT0ic3Ryb2tlLXdpZHRoOiAwLjQ5NjI4N3B4OyBzdHJva2Utb3BhY2l0eTogMTsgc3Ryb2tlOiByZ2IoODAsIDgwLCA4MCk7IC0tZGFya3JlYWRlci1pbmxpbmUtc3Ryb2tlOiAjYjVhZmE2OyIgY2xhc3M9ImxpbmsiLz48cGF0aCBkYXRhLWRhcmtyZWFkZXItaW5saW5lLXN0cm9rZT0iIiBkPSJNNjYzLDQ1OSwgOTczLDI4NyIgbWFya2VyLWVuZD0iIiBzdHlsZT0ic3Ryb2tlLXdpZHRoOiAwLjE5NDI0NnB4OyBzdHJva2Utb3BhY2l0eTogMTsgc3Ryb2tlOiByZ2IoODAsIDgwLCA4MCk7IC0tZGFya3JlYWRlci1pbmxpbmUtc3Ryb2tlOiAjYjVhZmE2OyIgY2xhc3M9ImxpbmsiLz48cGF0aCBkYXRhLWRhcmtyZWFkZXItaW5saW5lLXN0cm9rZT0iIiBkPSJNNjYzLDQ1OSwgOTczLDMzMCIgbWFya2VyLWVuZD0iIiBzdHlsZT0ic3Ryb2tlLXdpZHRoOiAwLjM3NTUzOHB4OyBzdHJva2Utb3BhY2l0eTogMTsgc3Ryb2tlOiByZ2IoODAsIDgwLCA4MCk7IC0tZGFya3JlYWRlci1pbmxpbmUtc3Ryb2tlOiAjYjVhZmE2OyIgY2xhc3M9ImxpbmsiLz48cGF0aCBkYXRhLWRhcmtyZWFkZXItaW5saW5lLXN0cm9rZT0iIiBkPSJNNjYzLDQ1OSwgOTczLDM3MyIgbWFya2VyLWVuZD0iIiBzdHlsZT0ic3Ryb2tlLXdpZHRoOiAxLjQ1NTQzcHg7IHN0cm9rZS1vcGFjaXR5OiAxOyBzdHJva2U6IHJnYig4MCwgODAsIDgwKTsgLS1kYXJrcmVhZGVyLWlubGluZS1zdHJva2U6ICNiNWFmYTY7IiBjbGFzcz0ibGluayIvPjxwYXRoIGRhdGEtZGFya3JlYWRlci1pbmxpbmUtc3Ryb2tlPSIiIGQ9Ik02NjMsNDU5LCA5NzMsNDE2IiBtYXJrZXItZW5kPSIiIHN0eWxlPSJzdHJva2Utd2lkdGg6IDAuMDE3MzY5NnB4OyBzdHJva2Utb3BhY2l0eTogMTsgc3Ryb2tlOiByZ2IoODAsIDgwLCA4MCk7IC0tZGFya3JlYWRlci1pbmxpbmUtc3Ryb2tlOiAjYjVhZmE2OyIgY2xhc3M9ImxpbmsiLz48cGF0aCBkYXRhLWRhcmtyZWFkZXItaW5saW5lLXN0cm9rZT0iIiBkPSJNNjYzLDQ1OSwgOTczLDQ1OSIgbWFya2VyLWVuZD0iIiBzdHlsZT0ic3Ryb2tlLXdpZHRoOiAxLjE3MzVweDsgc3Ryb2tlLW9wYWNpdHk6IDE7IHN0cm9rZTogcmdiKDgwLCA4MCwgODApOyAtLWRhcmtyZWFkZXItaW5saW5lLXN0cm9rZTogI2I1YWZhNjsiIGNsYXNzPSJsaW5rIi8+PHBhdGggZGF0YS1kYXJrcmVhZGVyLWlubGluZS1zdHJva2U9IiIgZD0iTTY2Myw0NTksIDk3Myw1MDIiIG1hcmtlci1lbmQ9IiIgc3R5bGU9InN0cm9rZS13aWR0aDogMS4wNTE2MnB4OyBzdHJva2Utb3BhY2l0eTogMTsgc3Ryb2tlOiByZ2IoODAsIDgwLCA4MCk7IC0tZGFya3JlYWRlci1pbmxpbmUtc3Ryb2tlOiAjYjVhZmE2OyIgY2xhc3M9ImxpbmsiLz48cGF0aCBkYXRhLWRhcmtyZWFkZXItaW5saW5lLXN0cm9rZT0iIiBkPSJNNjYzLDQ1OSwgOTczLDU0NSIgbWFya2VyLWVuZD0iIiBzdHlsZT0ic3Ryb2tlLXdpZHRoOiAxLjE2MzcycHg7IHN0cm9rZS1vcGFjaXR5OiAxOyBzdHJva2U6IHJnYig4MCwgODAsIDgwKTsgLS1kYXJrcmVhZGVyLWlubGluZS1zdHJva2U6ICNiNWFmYTY7IiBjbGFzcz0ibGluayIvPjxwYXRoIGRhdGEtZGFya3JlYWRlci1pbmxpbmUtc3Ryb2tlPSIiIGQ9Ik02NjMsNDU5LCA5NzMsNTg4IiBtYXJrZXItZW5kPSIiIHN0eWxlPSJzdHJva2Utd2lkdGg6IDAuOTk1Njk3cHg7IHN0cm9rZS1vcGFjaXR5OiAxOyBzdHJva2U6IHJnYig4MCwgODAsIDgwKTsgLS1kYXJrcmVhZGVyLWlubGluZS1zdHJva2U6ICNiNWFmYTY7IiBjbGFzcz0ibGluayIvPjxwYXRoIGRhdGEtZGFya3JlYWRlci1pbmxpbmUtc3Ryb2tlPSIiIGQ9Ik02NjMsNDU5LCA5NzMsNjMxIiBtYXJrZXItZW5kPSIiIHN0eWxlPSJzdHJva2Utd2lkdGg6IDAuNzkzNTE0cHg7IHN0cm9rZS1vcGFjaXR5OiAxOyBzdHJva2U6IHJnYig4MCwgODAsIDgwKTsgLS1kYXJrcmVhZGVyLWlubGluZS1zdHJva2U6ICNiNWFmYTY7IiBjbGFzcz0ibGluayIvPjxwYXRoIGRhdGEtZGFya3JlYWRlci1pbmxpbmUtc3Ryb2tlPSIiIGQ9Ik02NjMsNDU5LCA5NzMsNjc0IiBtYXJrZXItZW5kPSIiIHN0eWxlPSJzdHJva2Utd2lkdGg6IDAuNDA4M3B4OyBzdHJva2Utb3BhY2l0eTogMTsgc3Ryb2tlOiByZ2IoODAsIDgwLCA4MCk7IC0tZGFya3JlYWRlci1pbmxpbmUtc3Ryb2tlOiAjYjVhZmE2OyIgY2xhc3M9ImxpbmsiLz48cGF0aCBkYXRhLWRhcmtyZWFkZXItaW5saW5lLXN0cm9rZT0iIiBkPSJNNjYzLDUwMiwgOTczLDI0NCIgbWFya2VyLWVuZD0iIiBzdHlsZT0ic3Ryb2tlLXdpZHRoOiAwLjk1NzQzOXB4OyBzdHJva2Utb3BhY2l0eTogMTsgc3Ryb2tlOiByZ2IoODAsIDgwLCA4MCk7IC0tZGFya3JlYWRlci1pbmxpbmUtc3Ryb2tlOiAjYjVhZmE2OyIgY2xhc3M9ImxpbmsiLz48cGF0aCBkYXRhLWRhcmtyZWFkZXItaW5saW5lLXN0cm9rZT0iIiBkPSJNNjYzLDUwMiwgOTczLDI4NyIgbWFya2VyLWVuZD0iIiBzdHlsZT0ic3Ryb2tlLXdpZHRoOiAwLjMwOTYwMXB4OyBzdHJva2Utb3BhY2l0eTogMTsgc3Ryb2tlOiByZ2IoODAsIDgwLCA4MCk7IC0tZGFya3JlYWRlci1pbmxpbmUtc3Ryb2tlOiAjYjVhZmE2OyIgY2xhc3M9ImxpbmsiLz48cGF0aCBkYXRhLWRhcmtyZWFkZXItaW5saW5lLXN0cm9rZT0iIiBkPSJNNjYzLDUwMiwgOTczLDMzMCIgbWFya2VyLWVuZD0iIiBzdHlsZT0ic3Ryb2tlLXdpZHRoOiAwLjY3MjIyM3B4OyBzdHJva2Utb3BhY2l0eTogMTsgc3Ryb2tlOiByZ2IoODAsIDgwLCA4MCk7IC0tZGFya3JlYWRlci1pbmxpbmUtc3Ryb2tlOiAjYjVhZmE2OyIgY2xhc3M9ImxpbmsiLz48cGF0aCBkYXRhLWRhcmtyZWFkZXItaW5saW5lLXN0cm9rZT0iIiBkPSJNNjYzLDUwMiwgOTczLDM3MyIgbWFya2VyLWVuZD0iIiBzdHlsZT0ic3Ryb2tlLXdpZHRoOiAwLjI5MzI4M3B4OyBzdHJva2Utb3BhY2l0eTogMTsgc3Ryb2tlOiByZ2IoODAsIDgwLCA4MCk7IC0tZGFya3JlYWRlci1pbmxpbmUtc3Ryb2tlOiAjYjVhZmE2OyIgY2xhc3M9ImxpbmsiLz48cGF0aCBkYXRhLWRhcmtyZWFkZXItaW5saW5lLXN0cm9rZT0iIiBkPSJNNjYzLDUwMiwgOTczLDQxNiIgbWFya2VyLWVuZD0iIiBzdHlsZT0ic3Ryb2tlLXdpZHRoOiAwLjY3OTc4NnB4OyBzdHJva2Utb3BhY2l0eTogMTsgc3Ryb2tlOiByZ2IoODAsIDgwLCA4MCk7IC0tZGFya3JlYWRlci1pbmxpbmUtc3Ryb2tlOiAjYjVhZmE2OyIgY2xhc3M9ImxpbmsiLz48cGF0aCBkYXRhLWRhcmtyZWFkZXItaW5saW5lLXN0cm9rZT0iIiBkPSJNNjYzLDUwMiwgOTczLDQ1OSIgbWFya2VyLWVuZD0iIiBzdHlsZT0ic3Ryb2tlLXdpZHRoOiAxLjA5MjAxcHg7IHN0cm9rZS1vcGFjaXR5OiAxOyBzdHJva2U6IHJnYig4MCwgODAsIDgwKTsgLS1kYXJrcmVhZGVyLWlubGluZS1zdHJva2U6ICNiNWFmYTY7IiBjbGFzcz0ibGluayIvPjxwYXRoIGRhdGEtZGFya3JlYWRlci1pbmxpbmUtc3Ryb2tlPSIiIGQ9Ik02NjMsNTAyLCA5NzMsNTAyIiBtYXJrZXItZW5kPSIiIHN0eWxlPSJzdHJva2Utd2lkdGg6IDAuNzY1MjU4cHg7IHN0cm9rZS1vcGFjaXR5OiAxOyBzdHJva2U6IHJnYig4MCwgODAsIDgwKTsgLS1kYXJrcmVhZGVyLWlubGluZS1zdHJva2U6ICNiNWFmYTY7IiBjbGFzcz0ibGluayIvPjxwYXRoIGRhdGEtZGFya3JlYWRlci1pbmxpbmUtc3Ryb2tlPSIiIGQ9Ik02NjMsNTAyLCA5NzMsNTQ1IiBtYXJrZXItZW5kPSIiIHN0eWxlPSJzdHJva2Utd2lkdGg6IDEuMDY3NDVweDsgc3Ryb2tlLW9wYWNpdHk6IDE7IHN0cm9rZTogcmdiKDgwLCA4MCwgODApOyAtLWRhcmtyZWFkZXItaW5saW5lLXN0cm9rZTogI2I1YWZhNjsiIGNsYXNzPSJsaW5rIi8+PHBhdGggZGF0YS1kYXJrcmVhZGVyLWlubGluZS1zdHJva2U9IiIgZD0iTTY2Myw1MDIsIDk3Myw1ODgiIG1hcmtlci1lbmQ9IiIgc3R5bGU9InN0cm9rZS13aWR0aDogMC45NjM2MjlweDsgc3Ryb2tlLW9wYWNpdHk6IDE7IHN0cm9rZTogcmdiKDgwLCA4MCwgODApOyAtLWRhcmtyZWFkZXItaW5saW5lLXN0cm9rZTogI2I1YWZhNjsiIGNsYXNzPSJsaW5rIi8+PHBhdGggZGF0YS1kYXJrcmVhZGVyLWlubGluZS1zdHJva2U9IiIgZD0iTTY2Myw1MDIsIDk3Myw2MzEiIG1hcmtlci1lbmQ9IiIgc3R5bGU9InN0cm9rZS13aWR0aDogMC41NjU5ODFweDsgc3Ryb2tlLW9wYWNpdHk6IDE7IHN0cm9rZTogcmdiKDgwLCA4MCwgODApOyAtLWRhcmtyZWFkZXItaW5saW5lLXN0cm9rZTogI2I1YWZhNjsiIGNsYXNzPSJsaW5rIi8+PHBhdGggZGF0YS1kYXJrcmVhZGVyLWlubGluZS1zdHJva2U9IiIgZD0iTTY2Myw1MDIsIDk3Myw2NzQiIG1hcmtlci1lbmQ9IiIgc3R5bGU9InN0cm9rZS13aWR0aDogMC45MDkyMDVweDsgc3Ryb2tlLW9wYWNpdHk6IDE7IHN0cm9rZTogcmdiKDgwLCA4MCwgODApOyAtLWRhcmtyZWFkZXItaW5saW5lLXN0cm9rZTogI2I1YWZhNjsiIGNsYXNzPSJsaW5rIi8+PHBhdGggZGF0YS1kYXJrcmVhZGVyLWlubGluZS1zdHJva2U9IiIgZD0iTTY2Myw1NDUsIDk3MywyNDQiIG1hcmtlci1lbmQ9IiIgc3R5bGU9InN0cm9rZS13aWR0aDogMC44MDU5ODhweDsgc3Ryb2tlLW9wYWNpdHk6IDE7IHN0cm9rZTogcmdiKDgwLCA4MCwgODApOyAtLWRhcmtyZWFkZXItaW5saW5lLXN0cm9rZTogI2I1YWZhNjsiIGNsYXNzPSJsaW5rIi8+PHBhdGggZGF0YS1kYXJrcmVhZGVyLWlubGluZS1zdHJva2U9IiIgZD0iTTY2Myw1NDUsIDk3MywyODciIG1hcmtlci1lbmQ9IiIgc3R5bGU9InN0cm9rZS13aWR0aDogMC43NDk1NTVweDsgc3Ryb2tlLW9wYWNpdHk6IDE7IHN0cm9rZTogcmdiKDgwLCA4MCwgODApOyAtLWRhcmtyZWFkZXItaW5saW5lLXN0cm9rZTogI2I1YWZhNjsiIGNsYXNzPSJsaW5rIi8+PHBhdGggZGF0YS1kYXJrcmVhZGVyLWlubGluZS1zdHJva2U9IiIgZD0iTTY2Myw1NDUsIDk3MywzMzAiIG1hcmtlci1lbmQ9IiIgc3R5bGU9InN0cm9rZS13aWR0aDogMS4zNzY4M3B4OyBzdHJva2Utb3BhY2l0eTogMTsgc3Ryb2tlOiByZ2IoODAsIDgwLCA4MCk7IC0tZGFya3JlYWRlci1pbmxpbmUtc3Ryb2tlOiAjYjVhZmE2OyIgY2xhc3M9ImxpbmsiLz48cGF0aCBkYXRhLWRhcmtyZWFkZXItaW5saW5lLXN0cm9rZT0iIiBkPSJNNjYzLDU0NSwgOTczLDM3MyIgbWFya2VyLWVuZD0iIiBzdHlsZT0ic3Ryb2tlLXdpZHRoOiAwLjAyMDMzNTFweDsgc3Ryb2tlLW9wYWNpdHk6IDE7IHN0cm9rZTogcmdiKDgwLCA4MCwgODApOyAtLWRhcmtyZWFkZXItaW5saW5lLXN0cm9rZTogI2I1YWZhNjsiIGNsYXNzPSJsaW5rIi8+PHBhdGggZGF0YS1kYXJrcmVhZGVyLWlubGluZS1zdHJva2U9IiIgZD0iTTY2Myw1NDUsIDk3Myw0MTYiIG1hcmtlci1lbmQ9IiIgc3R5bGU9InN0cm9rZS13aWR0aDogMC45MDVweDsgc3Ryb2tlLW9wYWNpdHk6IDE7IHN0cm9rZTogcmdiKDgwLCA4MCwgODApOyAtLWRhcmtyZWFkZXItaW5saW5lLXN0cm9rZTogI2I1YWZhNjsiIGNsYXNzPSJsaW5rIi8+PHBhdGggZGF0YS1kYXJrcmVhZGVyLWlubGluZS1zdHJva2U9IiIgZD0iTTY2Myw1NDUsIDk3Myw0NTkiIG1hcmtlci1lbmQ9IiIgc3R5bGU9InN0cm9rZS13aWR0aDogMC42MjMwMnB4OyBzdHJva2Utb3BhY2l0eTogMTsgc3Ryb2tlOiByZ2IoODAsIDgwLCA4MCk7IC0tZGFya3JlYWRlci1pbmxpbmUtc3Ryb2tlOiAjYjVhZmE2OyIgY2xhc3M9ImxpbmsiLz48cGF0aCBkYXRhLWRhcmtyZWFkZXItaW5saW5lLXN0cm9rZT0iIiBkPSJNNjYzLDU0NSwgOTczLDUwMiIgbWFya2VyLWVuZD0iIiBzdHlsZT0ic3Ryb2tlLXdpZHRoOiAwLjM0MzY5MXB4OyBzdHJva2Utb3BhY2l0eTogMTsgc3Ryb2tlOiByZ2IoODAsIDgwLCA4MCk7IC0tZGFya3JlYWRlci1pbmxpbmUtc3Ryb2tlOiAjYjVhZmE2OyIgY2xhc3M9ImxpbmsiLz48cGF0aCBkYXRhLWRhcmtyZWFkZXItaW5saW5lLXN0cm9rZT0iIiBkPSJNNjYzLDU0NSwgOTczLDU0NSIgbWFya2VyLWVuZD0iIiBzdHlsZT0ic3Ryb2tlLXdpZHRoOiAxLjI2MDMxcHg7IHN0cm9rZS1vcGFjaXR5OiAxOyBzdHJva2U6IHJnYig4MCwgODAsIDgwKTsgLS1kYXJrcmVhZGVyLWlubGluZS1zdHJva2U6ICNiNWFmYTY7IiBjbGFzcz0ibGluayIvPjxwYXRoIGRhdGEtZGFya3JlYWRlci1pbmxpbmUtc3Ryb2tlPSIiIGQ9Ik02NjMsNTQ1LCA5NzMsNTg4IiBtYXJrZXItZW5kPSIiIHN0eWxlPSJzdHJva2Utd2lkdGg6IDEuMTM2ODlweDsgc3Ryb2tlLW9wYWNpdHk6IDE7IHN0cm9rZTogcmdiKDgwLCA4MCwgODApOyAtLWRhcmtyZWFkZXItaW5saW5lLXN0cm9rZTogI2I1YWZhNjsiIGNsYXNzPSJsaW5rIi8+PHBhdGggZGF0YS1kYXJrcmVhZGVyLWlubGluZS1zdHJva2U9IiIgZD0iTTY2Myw1NDUsIDk3Myw2MzEiIG1hcmtlci1lbmQ9IiIgc3R5bGU9InN0cm9rZS13aWR0aDogMC4yMTc0NDNweDsgc3Ryb2tlLW9wYWNpdHk6IDE7IHN0cm9rZTogcmdiKDgwLCA4MCwgODApOyAtLWRhcmtyZWFkZXItaW5saW5lLXN0cm9rZTogI2I1YWZhNjsiIGNsYXNzPSJsaW5rIi8+PHBhdGggZGF0YS1kYXJrcmVhZGVyLWlubGluZS1zdHJva2U9IiIgZD0iTTY2Myw1NDUsIDk3Myw2NzQiIG1hcmtlci1lbmQ9IiIgc3R5bGU9InN0cm9rZS13aWR0aDogMC42NDUzMTlweDsgc3Ryb2tlLW9wYWNpdHk6IDE7IHN0cm9rZTogcmdiKDgwLCA4MCwgODApOyAtLWRhcmtyZWFkZXItaW5saW5lLXN0cm9rZTogI2I1YWZhNjsiIGNsYXNzPSJsaW5rIi8+PHBhdGggZGF0YS1kYXJrcmVhZGVyLWlubGluZS1zdHJva2U9IiIgZD0iTTY2Myw1ODgsIDk3MywyNDQiIG1hcmtlci1lbmQ9IiIgc3R5bGU9InN0cm9rZS13aWR0aDogMC4xOTM4NDhweDsgc3Ryb2tlLW9wYWNpdHk6IDE7IHN0cm9rZTogcmdiKDgwLCA4MCwgODApOyAtLWRhcmtyZWFkZXItaW5saW5lLXN0cm9rZTogI2I1YWZhNjsiIGNsYXNzPSJsaW5rIi8+PHBhdGggZGF0YS1kYXJrcmVhZGVyLWlubGluZS1zdHJva2U9IiIgZD0iTTY2Myw1ODgsIDk3MywyODciIG1hcmtlci1lbmQ9IiIgc3R5bGU9InN0cm9rZS13aWR0aDogMS4wNDYxNHB4OyBzdHJva2Utb3BhY2l0eTogMTsgc3Ryb2tlOiByZ2IoODAsIDgwLCA4MCk7IC0tZGFya3JlYWRlci1pbmxpbmUtc3Ryb2tlOiAjYjVhZmE2OyIgY2xhc3M9ImxpbmsiLz48cGF0aCBkYXRhLWRhcmtyZWFkZXItaW5saW5lLXN0cm9rZT0iIiBkPSJNNjYzLDU4OCwgOTczLDMzMCIgbWFya2VyLWVuZD0iIiBzdHlsZT0ic3Ryb2tlLXdpZHRoOiAwLjA4MDYxMjJweDsgc3Ryb2tlLW9wYWNpdHk6IDE7IHN0cm9rZTogcmdiKDgwLCA4MCwgODApOyAtLWRhcmtyZWFkZXItaW5saW5lLXN0cm9rZTogI2I1YWZhNjsiIGNsYXNzPSJsaW5rIi8+PHBhdGggZGF0YS1kYXJrcmVhZGVyLWlubGluZS1zdHJva2U9IiIgZD0iTTY2Myw1ODgsIDk3MywzNzMiIG1hcmtlci1lbmQ9IiIgc3R5bGU9InN0cm9rZS13aWR0aDogMC42NTcxOTJweDsgc3Ryb2tlLW9wYWNpdHk6IDE7IHN0cm9rZTogcmdiKDgwLCA4MCwgODApOyAtLWRhcmtyZWFkZXItaW5saW5lLXN0cm9rZTogI2I1YWZhNjsiIGNsYXNzPSJsaW5rIi8+PHBhdGggZGF0YS1kYXJrcmVhZGVyLWlubGluZS1zdHJva2U9IiIgZD0iTTY2Myw1ODgsIDk3Myw0MTYiIG1hcmtlci1lbmQ9IiIgc3R5bGU9InN0cm9rZS13aWR0aDogMS4wMTAwNnB4OyBzdHJva2Utb3BhY2l0eTogMTsgc3Ryb2tlOiByZ2IoODAsIDgwLCA4MCk7IC0tZGFya3JlYWRlci1pbmxpbmUtc3Ryb2tlOiAjYjVhZmE2OyIgY2xhc3M9ImxpbmsiLz48cGF0aCBkYXRhLWRhcmtyZWFkZXItaW5saW5lLXN0cm9rZT0iIiBkPSJNNjYzLDU4OCwgOTczLDQ1OSIgbWFya2VyLWVuZD0iIiBzdHlsZT0ic3Ryb2tlLXdpZHRoOiAxLjM4MTA1cHg7IHN0cm9rZS1vcGFjaXR5OiAxOyBzdHJva2U6IHJnYig4MCwgODAsIDgwKTsgLS1kYXJrcmVhZGVyLWlubGluZS1zdHJva2U6ICNiNWFmYTY7IiBjbGFzcz0ibGluayIvPjxwYXRoIGRhdGEtZGFya3JlYWRlci1pbmxpbmUtc3Ryb2tlPSIiIGQ9Ik02NjMsNTg4LCA5NzMsNTAyIiBtYXJrZXItZW5kPSIiIHN0eWxlPSJzdHJva2Utd2lkdGg6IDEuNDUwNjhweDsgc3Ryb2tlLW9wYWNpdHk6IDE7IHN0cm9rZTogcmdiKDgwLCA4MCwgODApOyAtLWRhcmtyZWFkZXItaW5saW5lLXN0cm9rZTogI2I1YWZhNjsiIGNsYXNzPSJsaW5rIi8+PHBhdGggZGF0YS1kYXJrcmVhZGVyLWlubGluZS1zdHJva2U9IiIgZD0iTTY2Myw1ODgsIDk3Myw1NDUiIG1hcmtlci1lbmQ9IiIgc3R5bGU9InN0cm9rZS13aWR0aDogMC4yMzgxODlweDsgc3Ryb2tlLW9wYWNpdHk6IDE7IHN0cm9rZTogcmdiKDgwLCA4MCwgODApOyAtLWRhcmtyZWFkZXItaW5saW5lLXN0cm9rZTogI2I1YWZhNjsiIGNsYXNzPSJsaW5rIi8+PHBhdGggZGF0YS1kYXJrcmVhZGVyLWlubGluZS1zdHJva2U9IiIgZD0iTTY2Myw1ODgsIDk3Myw1ODgiIG1hcmtlci1lbmQ9IiIgc3R5bGU9InN0cm9rZS13aWR0aDogMC42OTQ3MDFweDsgc3Ryb2tlLW9wYWNpdHk6IDE7IHN0cm9rZTogcmdiKDgwLCA4MCwgODApOyAtLWRhcmtyZWFkZXItaW5saW5lLXN0cm9rZTogI2I1YWZhNjsiIGNsYXNzPSJsaW5rIi8+PHBhdGggZGF0YS1kYXJrcmVhZGVyLWlubGluZS1zdHJva2U9IiIgZD0iTTY2Myw1ODgsIDk3Myw2MzEiIG1hcmtlci1lbmQ9IiIgc3R5bGU9InN0cm9rZS13aWR0aDogMC42OTEwMDJweDsgc3Ryb2tlLW9wYWNpdHk6IDE7IHN0cm9rZTogcmdiKDgwLCA4MCwgODApOyAtLWRhcmtyZWFkZXItaW5saW5lLXN0cm9rZTogI2I1YWZhNjsiIGNsYXNzPSJsaW5rIi8+PHBhdGggZGF0YS1kYXJrcmVhZGVyLWlubGluZS1zdHJva2U9IiIgZD0iTTY2Myw1ODgsIDk3Myw2NzQiIG1hcmtlci1lbmQ9IiIgc3R5bGU9InN0cm9rZS13aWR0aDogMS4xODA2NXB4OyBzdHJva2Utb3BhY2l0eTogMTsgc3Ryb2tlOiByZ2IoODAsIDgwLCA4MCk7IC0tZGFya3JlYWRlci1pbmxpbmUtc3Ryb2tlOiAjYjVhZmE2OyIgY2xhc3M9ImxpbmsiLz48cGF0aCBkYXRhLWRhcmtyZWFkZXItaW5saW5lLXN0cm9rZT0iIiBkPSJNNjYzLDYzMSwgOTczLDI0NCIgbWFya2VyLWVuZD0iIiBzdHlsZT0ic3Ryb2tlLXdpZHRoOiAwLjg1ODkzOXB4OyBzdHJva2Utb3BhY2l0eTogMTsgc3Ryb2tlOiByZ2IoODAsIDgwLCA4MCk7IC0tZGFya3JlYWRlci1pbmxpbmUtc3Ryb2tlOiAjYjVhZmE2OyIgY2xhc3M9ImxpbmsiLz48cGF0aCBkYXRhLWRhcmtyZWFkZXItaW5saW5lLXN0cm9rZT0iIiBkPSJNNjYzLDYzMSwgOTczLDI4NyIgbWFya2VyLWVuZD0iIiBzdHlsZT0ic3Ryb2tlLXdpZHRoOiAxLjI0NDY0cHg7IHN0cm9rZS1vcGFjaXR5OiAxOyBzdHJva2U6IHJnYig4MCwgODAsIDgwKTsgLS1kYXJrcmVhZGVyLWlubGluZS1zdHJva2U6ICNiNWFmYTY7IiBjbGFzcz0ibGluayIvPjxwYXRoIGRhdGEtZGFya3JlYWRlci1pbmxpbmUtc3Ryb2tlPSIiIGQ9Ik02NjMsNjMxLCA5NzMsMzMwIiBtYXJrZXItZW5kPSIiIHN0eWxlPSJzdHJva2Utd2lkdGg6IDEuMDU1ODNweDsgc3Ryb2tlLW9wYWNpdHk6IDE7IHN0cm9rZTogcmdiKDgwLCA4MCwgODApOyAtLWRhcmtyZWFkZXItaW5saW5lLXN0cm9rZTogI2I1YWZhNjsiIGNsYXNzPSJsaW5rIi8+PHBhdGggZGF0YS1kYXJrcmVhZGVyLWlubGluZS1zdHJva2U9IiIgZD0iTTY2Myw2MzEsIDk3MywzNzMiIG1hcmtlci1lbmQ9IiIgc3R5bGU9InN0cm9rZS13aWR0aDogMC43ODEwMzVweDsgc3Ryb2tlLW9wYWNpdHk6IDE7IHN0cm9rZTogcmdiKDgwLCA4MCwgODApOyAtLWRhcmtyZWFkZXItaW5saW5lLXN0cm9rZTogI2I1YWZhNjsiIGNsYXNzPSJsaW5rIi8+PHBhdGggZGF0YS1kYXJrcmVhZGVyLWlubGluZS1zdHJva2U9IiIgZD0iTTY2Myw2MzEsIDk3Myw0MTYiIG1hcmtlci1lbmQ9IiIgc3R5bGU9InN0cm9rZS13aWR0aDogMC44OTQ2N3B4OyBzdHJva2Utb3BhY2l0eTogMTsgc3Ryb2tlOiByZ2IoODAsIDgwLCA4MCk7IC0tZGFya3JlYWRlci1pbmxpbmUtc3Ryb2tlOiAjYjVhZmE2OyIgY2xhc3M9ImxpbmsiLz48cGF0aCBkYXRhLWRhcmtyZWFkZXItaW5saW5lLXN0cm9rZT0iIiBkPSJNNjYzLDYzMSwgOTczLDQ1OSIgbWFya2VyLWVuZD0iIiBzdHlsZT0ic3Ryb2tlLXdpZHRoOiAwLjEyMTQ2cHg7IHN0cm9rZS1vcGFjaXR5OiAxOyBzdHJva2U6IHJnYig4MCwgODAsIDgwKTsgLS1kYXJrcmVhZGVyLWlubGluZS1zdHJva2U6ICNiNWFmYTY7IiBjbGFzcz0ibGluayIvPjxwYXRoIGRhdGEtZGFya3JlYWRlci1pbmxpbmUtc3Ryb2tlPSIiIGQ9Ik02NjMsNjMxLCA5NzMsNTAyIiBtYXJrZXItZW5kPSIiIHN0eWxlPSJzdHJva2Utd2lkdGg6IDAuMzY2ODA0cHg7IHN0cm9rZS1vcGFjaXR5OiAxOyBzdHJva2U6IHJnYig4MCwgODAsIDgwKTsgLS1kYXJrcmVhZGVyLWlubGluZS1zdHJva2U6ICNiNWFmYTY7IiBjbGFzcz0ibGluayIvPjxwYXRoIGRhdGEtZGFya3JlYWRlci1pbmxpbmUtc3Ryb2tlPSIiIGQ9Ik02NjMsNjMxLCA5NzMsNTQ1IiBtYXJrZXItZW5kPSIiIHN0eWxlPSJzdHJva2Utd2lkdGg6IDAuNzU5MDc5cHg7IHN0cm9rZS1vcGFjaXR5OiAxOyBzdHJva2U6IHJnYig4MCwgODAsIDgwKTsgLS1kYXJrcmVhZGVyLWlubGluZS1zdHJva2U6ICNiNWFmYTY7IiBjbGFzcz0ibGluayIvPjxwYXRoIGRhdGEtZGFya3JlYWRlci1pbmxpbmUtc3Ryb2tlPSIiIGQ9Ik02NjMsNjMxLCA5NzMsNTg4IiBtYXJrZXItZW5kPSIiIHN0eWxlPSJzdHJva2Utd2lkdGg6IDAuMTg0MTYxcHg7IHN0cm9rZS1vcGFjaXR5OiAxOyBzdHJva2U6IHJnYig4MCwgODAsIDgwKTsgLS1kYXJrcmVhZGVyLWlubGluZS1zdHJva2U6ICNiNWFmYTY7IiBjbGFzcz0ibGluayIvPjxwYXRoIGRhdGEtZGFya3JlYWRlci1pbmxpbmUtc3Ryb2tlPSIiIGQ9Ik02NjMsNjMxLCA5NzMsNjMxIiBtYXJrZXItZW5kPSIiIHN0eWxlPSJzdHJva2Utd2lkdGg6IDEuMDM3MTdweDsgc3Ryb2tlLW9wYWNpdHk6IDE7IHN0cm9rZTogcmdiKDgwLCA4MCwgODApOyAtLWRhcmtyZWFkZXItaW5saW5lLXN0cm9rZTogI2I1YWZhNjsiIGNsYXNzPSJsaW5rIi8+PHBhdGggZGF0YS1kYXJrcmVhZGVyLWlubGluZS1zdHJva2U9IiIgZD0iTTY2Myw2MzEsIDk3Myw2NzQiIG1hcmtlci1lbmQ9IiIgc3R5bGU9InN0cm9rZS13aWR0aDogMC4wNzY2NzUxcHg7IHN0cm9rZS1vcGFjaXR5OiAxOyBzdHJva2U6IHJnYig4MCwgODAsIDgwKTsgLS1kYXJrcmVhZGVyLWlubGluZS1zdHJva2U6ICNiNWFmYTY7IiBjbGFzcz0ibGluayIvPjxwYXRoIGRhdGEtZGFya3JlYWRlci1pbmxpbmUtc3Ryb2tlPSIiIGQ9Ik02NjMsNjc0LCA5NzMsMjQ0IiBtYXJrZXItZW5kPSIiIHN0eWxlPSJzdHJva2Utd2lkdGg6IDEuMDQ0NzlweDsgc3Ryb2tlLW9wYWNpdHk6IDE7IHN0cm9rZTogcmdiKDgwLCA4MCwgODApOyAtLWRhcmtyZWFkZXItaW5saW5lLXN0cm9rZTogI2I1YWZhNjsiIGNsYXNzPSJsaW5rIi8+PHBhdGggZGF0YS1kYXJrcmVhZGVyLWlubGluZS1zdHJva2U9IiIgZD0iTTY2Myw2NzQsIDk3MywyODciIG1hcmtlci1lbmQ9IiIgc3R5bGU9InN0cm9rZS13aWR0aDogMC4wMzQ0MzgxcHg7IHN0cm9rZS1vcGFjaXR5OiAxOyBzdHJva2U6IHJnYig4MCwgODAsIDgwKTsgLS1kYXJrcmVhZGVyLWlubGluZS1zdHJva2U6ICNiNWFmYTY7IiBjbGFzcz0ibGluayIvPjxwYXRoIGRhdGEtZGFya3JlYWRlci1pbmxpbmUtc3Ryb2tlPSIiIGQ9Ik02NjMsNjc0LCA5NzMsMzMwIiBtYXJrZXItZW5kPSIiIHN0eWxlPSJzdHJva2Utd2lkdGg6IDAuMTgzOTFweDsgc3Ryb2tlLW9wYWNpdHk6IDE7IHN0cm9rZTogcmdiKDgwLCA4MCwgODApOyAtLWRhcmtyZWFkZXItaW5saW5lLXN0cm9rZTogI2I1YWZhNjsiIGNsYXNzPSJsaW5rIi8+PHBhdGggZGF0YS1kYXJrcmVhZGVyLWlubGluZS1zdHJva2U9IiIgZD0iTTY2Myw2NzQsIDk3MywzNzMiIG1hcmtlci1lbmQ9IiIgc3R5bGU9InN0cm9rZS13aWR0aDogMS4xMTUzNnB4OyBzdHJva2Utb3BhY2l0eTogMTsgc3Ryb2tlOiByZ2IoODAsIDgwLCA4MCk7IC0tZGFya3JlYWRlci1pbmxpbmUtc3Ryb2tlOiAjYjVhZmE2OyIgY2xhc3M9ImxpbmsiLz48cGF0aCBkYXRhLWRhcmtyZWFkZXItaW5saW5lLXN0cm9rZT0iIiBkPSJNNjYzLDY3NCwgOTczLDQxNiIgbWFya2VyLWVuZD0iIiBzdHlsZT0ic3Ryb2tlLXdpZHRoOiAwLjg2ODUwN3B4OyBzdHJva2Utb3BhY2l0eTogMTsgc3Ryb2tlOiByZ2IoODAsIDgwLCA4MCk7IC0tZGFya3JlYWRlci1pbmxpbmUtc3Ryb2tlOiAjYjVhZmE2OyIgY2xhc3M9ImxpbmsiLz48cGF0aCBkYXRhLWRhcmtyZWFkZXItaW5saW5lLXN0cm9rZT0iIiBkPSJNNjYzLDY3NCwgOTczLDQ1OSIgbWFya2VyLWVuZD0iIiBzdHlsZT0ic3Ryb2tlLXdpZHRoOiAwLjc4ODU5NXB4OyBzdHJva2Utb3BhY2l0eTogMTsgc3Ryb2tlOiByZ2IoODAsIDgwLCA4MCk7IC0tZGFya3JlYWRlci1pbmxpbmUtc3Ryb2tlOiAjYjVhZmE2OyIgY2xhc3M9ImxpbmsiLz48cGF0aCBkYXRhLWRhcmtyZWFkZXItaW5saW5lLXN0cm9rZT0iIiBkPSJNNjYzLDY3NCwgOTczLDUwMiIgbWFya2VyLWVuZD0iIiBzdHlsZT0ic3Ryb2tlLXdpZHRoOiAwLjY2MjIzOXB4OyBzdHJva2Utb3BhY2l0eTogMTsgc3Ryb2tlOiByZ2IoODAsIDgwLCA4MCk7IC0tZGFya3JlYWRlci1pbmxpbmUtc3Ryb2tlOiAjYjVhZmE2OyIgY2xhc3M9ImxpbmsiLz48cGF0aCBkYXRhLWRhcmtyZWFkZXItaW5saW5lLXN0cm9rZT0iIiBkPSJNNjYzLDY3NCwgOTczLDU0NSIgbWFya2VyLWVuZD0iIiBzdHlsZT0ic3Ryb2tlLXdpZHRoOiAwLjk1NzQ0N3B4OyBzdHJva2Utb3BhY2l0eTogMTsgc3Ryb2tlOiByZ2IoODAsIDgwLCA4MCk7IC0tZGFya3JlYWRlci1pbmxpbmUtc3Ryb2tlOiAjYjVhZmE2OyIgY2xhc3M9ImxpbmsiLz48cGF0aCBkYXRhLWRhcmtyZWFkZXItaW5saW5lLXN0cm9rZT0iIiBkPSJNNjYzLDY3NCwgOTczLDU4OCIgbWFya2VyLWVuZD0iIiBzdHlsZT0ic3Ryb2tlLXdpZHRoOiAwLjg5MzUyOXB4OyBzdHJva2Utb3BhY2l0eTogMTsgc3Ryb2tlOiByZ2IoODAsIDgwLCA4MCk7IC0tZGFya3JlYWRlci1pbmxpbmUtc3Ryb2tlOiAjYjVhZmE2OyIgY2xhc3M9ImxpbmsiLz48cGF0aCBkYXRhLWRhcmtyZWFkZXItaW5saW5lLXN0cm9rZT0iIiBkPSJNNjYzLDY3NCwgOTczLDYzMSIgbWFya2VyLWVuZD0iIiBzdHlsZT0ic3Ryb2tlLXdpZHRoOiAwLjMxNDAyNXB4OyBzdHJva2Utb3BhY2l0eTogMTsgc3Ryb2tlOiByZ2IoODAsIDgwLCA4MCk7IC0tZGFya3JlYWRlci1pbmxpbmUtc3Ryb2tlOiAjYjVhZmE2OyIgY2xhc3M9ImxpbmsiLz48cGF0aCBkYXRhLWRhcmtyZWFkZXItaW5saW5lLXN0cm9rZT0iIiBkPSJNNjYzLDY3NCwgOTczLDY3NCIgbWFya2VyLWVuZD0iIiBzdHlsZT0ic3Ryb2tlLXdpZHRoOiAwLjM2MTQwMnB4OyBzdHJva2Utb3BhY2l0eTogMTsgc3Ryb2tlOiByZ2IoODAsIDgwLCA4MCk7IC0tZGFya3JlYWRlci1pbmxpbmUtc3Ryb2tlOiAjYjVhZmE2OyIgY2xhc3M9ImxpbmsiLz48cGF0aCBkYXRhLWRhcmtyZWFkZXItaW5saW5lLXN0cm9rZT0iIiBkPSJNOTczLDIwMSwgMTI4MywzMDguNSIgbWFya2VyLWVuZD0iIiBzdHlsZT0ic3Ryb2tlLXdpZHRoOiAwLjgxMTQ1M3B4OyBzdHJva2Utb3BhY2l0eTogMTsgc3Ryb2tlOiByZ2IoODAsIDgwLCA4MCk7IC0tZGFya3JlYWRlci1pbmxpbmUtc3Ryb2tlOiAjYjVhZmE2OyIgY2xhc3M9ImxpbmsiLz48cGF0aCBkYXRhLWRhcmtyZWFkZXItaW5saW5lLXN0cm9rZT0iIiBkPSJNOTczLDIwMSwgMTI4MywzNTEuNSIgbWFya2VyLWVuZD0iIiBzdHlsZT0ic3Ryb2tlLXdpZHRoOiAxLjQxOTYycHg7IHN0cm9rZS1vcGFjaXR5OiAxOyBzdHJva2U6IHJnYig4MCwgODAsIDgwKTsgLS1kYXJrcmVhZGVyLWlubGluZS1zdHJva2U6ICNiNWFmYTY7IiBjbGFzcz0ibGluayIvPjxwYXRoIGRhdGEtZGFya3JlYWRlci1pbmxpbmUtc3Ryb2tlPSIiIGQ9Ik05NzMsMjAxLCAxMjgzLDM5NC41IiBtYXJrZXItZW5kPSIiIHN0eWxlPSJzdHJva2Utd2lkdGg6IDEuMDUxODhweDsgc3Ryb2tlLW9wYWNpdHk6IDE7IHN0cm9rZTogcmdiKDgwLCA4MCwgODApOyAtLWRhcmtyZWFkZXItaW5saW5lLXN0cm9rZTogI2I1YWZhNjsiIGNsYXNzPSJsaW5rIi8+PHBhdGggZGF0YS1kYXJrcmVhZGVyLWlubGluZS1zdHJva2U9IiIgZD0iTTk3MywyMDEsIDEyODMsNDM3LjUiIG1hcmtlci1lbmQ9IiIgc3R5bGU9InN0cm9rZS13aWR0aDogMS4yODQ2M3B4OyBzdHJva2Utb3BhY2l0eTogMTsgc3Ryb2tlOiByZ2IoODAsIDgwLCA4MCk7IC0tZGFya3JlYWRlci1pbmxpbmUtc3Ryb2tlOiAjYjVhZmE2OyIgY2xhc3M9ImxpbmsiLz48cGF0aCBkYXRhLWRhcmtyZWFkZXItaW5saW5lLXN0cm9rZT0iIiBkPSJNOTczLDIwMSwgMTI4Myw0ODAuNSIgbWFya2VyLWVuZD0iIiBzdHlsZT0ic3Ryb2tlLXdpZHRoOiAwLjQ0NDU5MXB4OyBzdHJva2Utb3BhY2l0eTogMTsgc3Ryb2tlOiByZ2IoODAsIDgwLCA4MCk7IC0tZGFya3JlYWRlci1pbmxpbmUtc3Ryb2tlOiAjYjVhZmE2OyIgY2xhc3M9ImxpbmsiLz48cGF0aCBkYXRhLWRhcmtyZWFkZXItaW5saW5lLXN0cm9rZT0iIiBkPSJNOTczLDIwMSwgMTI4Myw1MjMuNSIgbWFya2VyLWVuZD0iIiBzdHlsZT0ic3Ryb2tlLXdpZHRoOiAxLjIwOTE3cHg7IHN0cm9rZS1vcGFjaXR5OiAxOyBzdHJva2U6IHJnYig4MCwgODAsIDgwKTsgLS1kYXJrcmVhZGVyLWlubGluZS1zdHJva2U6ICNiNWFmYTY7IiBjbGFzcz0ibGluayIvPjxwYXRoIGRhdGEtZGFya3JlYWRlci1pbmxpbmUtc3Ryb2tlPSIiIGQ9Ik05NzMsMjAxLCAxMjgzLDU2Ni41IiBtYXJrZXItZW5kPSIiIHN0eWxlPSJzdHJva2Utd2lkdGg6IDAuMzY2MDE1cHg7IHN0cm9rZS1vcGFjaXR5OiAxOyBzdHJva2U6IHJnYig4MCwgODAsIDgwKTsgLS1kYXJrcmVhZGVyLWlubGluZS1zdHJva2U6ICNiNWFmYTY7IiBjbGFzcz0ibGluayIvPjxwYXRoIGRhdGEtZGFya3JlYWRlci1pbmxpbmUtc3Ryb2tlPSIiIGQ9Ik05NzMsMjAxLCAxMjgzLDYwOS41IiBtYXJrZXItZW5kPSIiIHN0eWxlPSJzdHJva2Utd2lkdGg6IDAuNzE0MDgxcHg7IHN0cm9rZS1vcGFjaXR5OiAxOyBzdHJva2U6IHJnYig4MCwgODAsIDgwKTsgLS1kYXJrcmVhZGVyLWlubGluZS1zdHJva2U6ICNiNWFmYTY7IiBjbGFzcz0ibGluayIvPjxwYXRoIGRhdGEtZGFya3JlYWRlci1pbmxpbmUtc3Ryb2tlPSIiIGQ9Ik05NzMsMjAxLCAxMjgzLDY1Mi41IiBtYXJrZXItZW5kPSIiIHN0eWxlPSJzdHJva2Utd2lkdGg6IDAuMDI4NjYwNXB4OyBzdHJva2Utb3BhY2l0eTogMTsgc3Ryb2tlOiByZ2IoODAsIDgwLCA4MCk7IC0tZGFya3JlYWRlci1pbmxpbmUtc3Ryb2tlOiAjYjVhZmE2OyIgY2xhc3M9ImxpbmsiLz48cGF0aCBkYXRhLWRhcmtyZWFkZXItaW5saW5lLXN0cm9rZT0iIiBkPSJNOTczLDI0NCwgMTI4MywzMDguNSIgbWFya2VyLWVuZD0iIiBzdHlsZT0ic3Ryb2tlLXdpZHRoOiAxLjEyMzc4cHg7IHN0cm9rZS1vcGFjaXR5OiAxOyBzdHJva2U6IHJnYig4MCwgODAsIDgwKTsgLS1kYXJrcmVhZGVyLWlubGluZS1zdHJva2U6ICNiNWFmYTY7IiBjbGFzcz0ibGluayIvPjxwYXRoIGRhdGEtZGFya3JlYWRlci1pbmxpbmUtc3Ryb2tlPSIiIGQ9Ik05NzMsMjQ0LCAxMjgzLDM1MS41IiBtYXJrZXItZW5kPSIiIHN0eWxlPSJzdHJva2Utd2lkdGg6IDAuNTA5NDU3cHg7IHN0cm9rZS1vcGFjaXR5OiAxOyBzdHJva2U6IHJnYig4MCwgODAsIDgwKTsgLS1kYXJrcmVhZGVyLWlubGluZS1zdHJva2U6ICNiNWFmYTY7IiBjbGFzcz0ibGluayIvPjxwYXRoIGRhdGEtZGFya3JlYWRlci1pbmxpbmUtc3Ryb2tlPSIiIGQ9Ik05NzMsMjQ0LCAxMjgzLDM5NC41IiBtYXJrZXItZW5kPSIiIHN0eWxlPSJzdHJva2Utd2lkdGg6IDAuNDgwMDc5cHg7IHN0cm9rZS1vcGFjaXR5OiAxOyBzdHJva2U6IHJnYig4MCwgODAsIDgwKTsgLS1kYXJrcmVhZGVyLWlubGluZS1zdHJva2U6ICNiNWFmYTY7IiBjbGFzcz0ibGluayIvPjxwYXRoIGRhdGEtZGFya3JlYWRlci1pbmxpbmUtc3Ryb2tlPSIiIGQ9Ik05NzMsMjQ0LCAxMjgzLDQzNy41IiBtYXJrZXItZW5kPSIiIHN0eWxlPSJzdHJva2Utd2lkdGg6IDAuNzE4NzU5cHg7IHN0cm9rZS1vcGFjaXR5OiAxOyBzdHJva2U6IHJnYig4MCwgODAsIDgwKTsgLS1kYXJrcmVhZGVyLWlubGluZS1zdHJva2U6ICNiNWFmYTY7IiBjbGFzcz0ibGluayIvPjxwYXRoIGRhdGEtZGFya3JlYWRlci1pbmxpbmUtc3Ryb2tlPSIiIGQ9Ik05NzMsMjQ0LCAxMjgzLDQ4MC41IiBtYXJrZXItZW5kPSIiIHN0eWxlPSJzdHJva2Utd2lkdGg6IDAuNDk1MzIycHg7IHN0cm9rZS1vcGFjaXR5OiAxOyBzdHJva2U6IHJnYig4MCwgODAsIDgwKTsgLS1kYXJrcmVhZGVyLWlubGluZS1zdHJva2U6ICNiNWFmYTY7IiBjbGFzcz0ibGluayIvPjxwYXRoIGRhdGEtZGFya3JlYWRlci1pbmxpbmUtc3Ryb2tlPSIiIGQ9Ik05NzMsMjQ0LCAxMjgzLDUyMy41IiBtYXJrZXItZW5kPSIiIHN0eWxlPSJzdHJva2Utd2lkdGg6IDEuMjc4MTVweDsgc3Ryb2tlLW9wYWNpdHk6IDE7IHN0cm9rZTogcmdiKDgwLCA4MCwgODApOyAtLWRhcmtyZWFkZXItaW5saW5lLXN0cm9rZTogI2I1YWZhNjsiIGNsYXNzPSJsaW5rIi8+PHBhdGggZGF0YS1kYXJrcmVhZGVyLWlubGluZS1zdHJva2U9IiIgZD0iTTk3MywyNDQsIDEyODMsNTY2LjUiIG1hcmtlci1lbmQ9IiIgc3R5bGU9InN0cm9rZS13aWR0aDogMS4yNDk3NXB4OyBzdHJva2Utb3BhY2l0eTogMTsgc3Ryb2tlOiByZ2IoODAsIDgwLCA4MCk7IC0tZGFya3JlYWRlci1pbmxpbmUtc3Ryb2tlOiAjYjVhZmE2OyIgY2xhc3M9ImxpbmsiLz48cGF0aCBkYXRhLWRhcmtyZWFkZXItaW5saW5lLXN0cm9rZT0iIiBkPSJNOTczLDI0NCwgMTI4Myw2MDkuNSIgbWFya2VyLWVuZD0iIiBzdHlsZT0ic3Ryb2tlLXdpZHRoOiAwLjQ0ODUycHg7IHN0cm9rZS1vcGFjaXR5OiAxOyBzdHJva2U6IHJnYig4MCwgODAsIDgwKTsgLS1kYXJrcmVhZGVyLWlubGluZS1zdHJva2U6ICNiNWFmYTY7IiBjbGFzcz0ibGluayIvPjxwYXRoIGRhdGEtZGFya3JlYWRlci1pbmxpbmUtc3Ryb2tlPSIiIGQ9Ik05NzMsMjQ0LCAxMjgzLDY1Mi41IiBtYXJrZXItZW5kPSIiIHN0eWxlPSJzdHJva2Utd2lkdGg6IDAuMTM4OTAzcHg7IHN0cm9rZS1vcGFjaXR5OiAxOyBzdHJva2U6IHJnYig4MCwgODAsIDgwKTsgLS1kYXJrcmVhZGVyLWlubGluZS1zdHJva2U6ICNiNWFmYTY7IiBjbGFzcz0ibGluayIvPjxwYXRoIGRhdGEtZGFya3JlYWRlci1pbmxpbmUtc3Ryb2tlPSIiIGQ9Ik05NzMsMjg3LCAxMjgzLDMwOC41IiBtYXJrZXItZW5kPSIiIHN0eWxlPSJzdHJva2Utd2lkdGg6IDAuMTYxNTM5cHg7IHN0cm9rZS1vcGFjaXR5OiAxOyBzdHJva2U6IHJnYig4MCwgODAsIDgwKTsgLS1kYXJrcmVhZGVyLWlubGluZS1zdHJva2U6ICNiNWFmYTY7IiBjbGFzcz0ibGluayIvPjxwYXRoIGRhdGEtZGFya3JlYWRlci1pbmxpbmUtc3Ryb2tlPSIiIGQ9Ik05NzMsMjg3LCAxMjgzLDM1MS41IiBtYXJrZXItZW5kPSIiIHN0eWxlPSJzdHJva2Utd2lkdGg6IDAuNDM4NzU0cHg7IHN0cm9rZS1vcGFjaXR5OiAxOyBzdHJva2U6IHJnYig4MCwgODAsIDgwKTsgLS1kYXJrcmVhZGVyLWlubGluZS1zdHJva2U6ICNiNWFmYTY7IiBjbGFzcz0ibGluayIvPjxwYXRoIGRhdGEtZGFya3JlYWRlci1pbmxpbmUtc3Ryb2tlPSIiIGQ9Ik05NzMsMjg3LCAxMjgzLDM5NC41IiBtYXJrZXItZW5kPSIiIHN0eWxlPSJzdHJva2Utd2lkdGg6IDEuMjU1NjdweDsgc3Ryb2tlLW9wYWNpdHk6IDE7IHN0cm9rZTogcmdiKDgwLCA4MCwgODApOyAtLWRhcmtyZWFkZXItaW5saW5lLXN0cm9rZTogI2I1YWZhNjsiIGNsYXNzPSJsaW5rIi8+PHBhdGggZGF0YS1kYXJrcmVhZGVyLWlubGluZS1zdHJva2U9IiIgZD0iTTk3MywyODcsIDEyODMsNDM3LjUiIG1hcmtlci1lbmQ9IiIgc3R5bGU9InN0cm9rZS13aWR0aDogMS4zNDI0cHg7IHN0cm9rZS1vcGFjaXR5OiAxOyBzdHJva2U6IHJnYig4MCwgODAsIDgwKTsgLS1kYXJrcmVhZGVyLWlubGluZS1zdHJva2U6ICNiNWFmYTY7IiBjbGFzcz0ibGluayIvPjxwYXRoIGRhdGEtZGFya3JlYWRlci1pbmxpbmUtc3Ryb2tlPSIiIGQ9Ik05NzMsMjg3LCAxMjgzLDQ4MC41IiBtYXJrZXItZW5kPSIiIHN0eWxlPSJzdHJva2Utd2lkdGg6IDAuNDUwNDg0cHg7IHN0cm9rZS1vcGFjaXR5OiAxOyBzdHJva2U6IHJnYig4MCwgODAsIDgwKTsgLS1kYXJrcmVhZGVyLWlubGluZS1zdHJva2U6ICNiNWFmYTY7IiBjbGFzcz0ibGluayIvPjxwYXRoIGRhdGEtZGFya3JlYWRlci1pbmxpbmUtc3Ryb2tlPSIiIGQ9Ik05NzMsMjg3LCAxMjgzLDUyMy41IiBtYXJrZXItZW5kPSIiIHN0eWxlPSJzdHJva2Utd2lkdGg6IDAuNzQ5MDkycHg7IHN0cm9rZS1vcGFjaXR5OiAxOyBzdHJva2U6IHJnYig4MCwgODAsIDgwKTsgLS1kYXJrcmVhZGVyLWlubGluZS1zdHJva2U6ICNiNWFmYTY7IiBjbGFzcz0ibGluayIvPjxwYXRoIGRhdGEtZGFya3JlYWRlci1pbmxpbmUtc3Ryb2tlPSIiIGQ9Ik05NzMsMjg3LCAxMjgzLDU2Ni41IiBtYXJrZXItZW5kPSIiIHN0eWxlPSJzdHJva2Utd2lkdGg6IDEuNDIzMDJweDsgc3Ryb2tlLW9wYWNpdHk6IDE7IHN0cm9rZTogcmdiKDgwLCA4MCwgODApOyAtLWRhcmtyZWFkZXItaW5saW5lLXN0cm9rZTogI2I1YWZhNjsiIGNsYXNzPSJsaW5rIi8+PHBhdGggZGF0YS1kYXJrcmVhZGVyLWlubGluZS1zdHJva2U9IiIgZD0iTTk3MywyODcsIDEyODMsNjA5LjUiIG1hcmtlci1lbmQ9IiIgc3R5bGU9InN0cm9rZS13aWR0aDogMC43MzgzNHB4OyBzdHJva2Utb3BhY2l0eTogMTsgc3Ryb2tlOiByZ2IoODAsIDgwLCA4MCk7IC0tZGFya3JlYWRlci1pbmxpbmUtc3Ryb2tlOiAjYjVhZmE2OyIgY2xhc3M9ImxpbmsiLz48cGF0aCBkYXRhLWRhcmtyZWFkZXItaW5saW5lLXN0cm9rZT0iIiBkPSJNOTczLDI4NywgMTI4Myw2NTIuNSIgbWFya2VyLWVuZD0iIiBzdHlsZT0ic3Ryb2tlLXdpZHRoOiAwLjg2NzE0M3B4OyBzdHJva2Utb3BhY2l0eTogMTsgc3Ryb2tlOiByZ2IoODAsIDgwLCA4MCk7IC0tZGFya3JlYWRlci1pbmxpbmUtc3Ryb2tlOiAjYjVhZmE2OyIgY2xhc3M9ImxpbmsiLz48cGF0aCBkYXRhLWRhcmtyZWFkZXItaW5saW5lLXN0cm9rZT0iIiBkPSJNOTczLDMzMCwgMTI4MywzMDguNSIgbWFya2VyLWVuZD0iIiBzdHlsZT0ic3Ryb2tlLXdpZHRoOiAwLjMzMjUzcHg7IHN0cm9rZS1vcGFjaXR5OiAxOyBzdHJva2U6IHJnYig4MCwgODAsIDgwKTsgLS1kYXJrcmVhZGVyLWlubGluZS1zdHJva2U6ICNiNWFmYTY7IiBjbGFzcz0ibGluayIvPjxwYXRoIGRhdGEtZGFya3JlYWRlci1pbmxpbmUtc3Ryb2tlPSIiIGQ9Ik05NzMsMzMwLCAxMjgzLDM1MS41IiBtYXJrZXItZW5kPSIiIHN0eWxlPSJzdHJva2Utd2lkdGg6IDEuMzUwMzlweDsgc3Ryb2tlLW9wYWNpdHk6IDE7IHN0cm9rZTogcmdiKDgwLCA4MCwgODApOyAtLWRhcmtyZWFkZXItaW5saW5lLXN0cm9rZTogI2I1YWZhNjsiIGNsYXNzPSJsaW5rIi8+PHBhdGggZGF0YS1kYXJrcmVhZGVyLWlubGluZS1zdHJva2U9IiIgZD0iTTk3MywzMzAsIDEyODMsMzk0LjUiIG1hcmtlci1lbmQ9IiIgc3R5bGU9InN0cm9rZS13aWR0aDogMC4zNzEyMzVweDsgc3Ryb2tlLW9wYWNpdHk6IDE7IHN0cm9rZTogcmdiKDgwLCA4MCwgODApOyAtLWRhcmtyZWFkZXItaW5saW5lLXN0cm9rZTogI2I1YWZhNjsiIGNsYXNzPSJsaW5rIi8+PHBhdGggZGF0YS1kYXJrcmVhZGVyLWlubGluZS1zdHJva2U9IiIgZD0iTTk3MywzMzAsIDEyODMsNDM3LjUiIG1hcmtlci1lbmQ9IiIgc3R5bGU9InN0cm9rZS13aWR0aDogMC45ODYzMzFweDsgc3Ryb2tlLW9wYWNpdHk6IDE7IHN0cm9rZTogcmdiKDgwLCA4MCwgODApOyAtLWRhcmtyZWFkZXItaW5saW5lLXN0cm9rZTogI2I1YWZhNjsiIGNsYXNzPSJsaW5rIi8+PHBhdGggZGF0YS1kYXJrcmVhZGVyLWlubGluZS1zdHJva2U9IiIgZD0iTTk3MywzMzAsIDEyODMsNDgwLjUiIG1hcmtlci1lbmQ9IiIgc3R5bGU9InN0cm9rZS13aWR0aDogMS4wNDYwNHB4OyBzdHJva2Utb3BhY2l0eTogMTsgc3Ryb2tlOiByZ2IoODAsIDgwLCA4MCk7IC0tZGFya3JlYWRlci1pbmxpbmUtc3Ryb2tlOiAjYjVhZmE2OyIgY2xhc3M9ImxpbmsiLz48cGF0aCBkYXRhLWRhcmtyZWFkZXItaW5saW5lLXN0cm9rZT0iIiBkPSJNOTczLDMzMCwgMTI4Myw1MjMuNSIgbWFya2VyLWVuZD0iIiBzdHlsZT0ic3Ryb2tlLXdpZHRoOiAwLjcwMDUzMXB4OyBzdHJva2Utb3BhY2l0eTogMTsgc3Ryb2tlOiByZ2IoODAsIDgwLCA4MCk7IC0tZGFya3JlYWRlci1pbmxpbmUtc3Ryb2tlOiAjYjVhZmE2OyIgY2xhc3M9ImxpbmsiLz48cGF0aCBkYXRhLWRhcmtyZWFkZXItaW5saW5lLXN0cm9rZT0iIiBkPSJNOTczLDMzMCwgMTI4Myw1NjYuNSIgbWFya2VyLWVuZD0iIiBzdHlsZT0ic3Ryb2tlLXdpZHRoOiAwLjI4MDk0NHB4OyBzdHJva2Utb3BhY2l0eTogMTsgc3Ryb2tlOiByZ2IoODAsIDgwLCA4MCk7IC0tZGFya3JlYWRlci1pbmxpbmUtc3Ryb2tlOiAjYjVhZmE2OyIgY2xhc3M9ImxpbmsiLz48cGF0aCBkYXRhLWRhcmtyZWFkZXItaW5saW5lLXN0cm9rZT0iIiBkPSJNOTczLDMzMCwgMTI4Myw2MDkuNSIgbWFya2VyLWVuZD0iIiBzdHlsZT0ic3Ryb2tlLXdpZHRoOiAwLjU1MjY2M3B4OyBzdHJva2Utb3BhY2l0eTogMTsgc3Ryb2tlOiByZ2IoODAsIDgwLCA4MCk7IC0tZGFya3JlYWRlci1pbmxpbmUtc3Ryb2tlOiAjYjVhZmE2OyIgY2xhc3M9ImxpbmsiLz48cGF0aCBkYXRhLWRhcmtyZWFkZXItaW5saW5lLXN0cm9rZT0iIiBkPSJNOTczLDMzMCwgMTI4Myw2NTIuNSIgbWFya2VyLWVuZD0iIiBzdHlsZT0ic3Ryb2tlLXdpZHRoOiAwLjE0MzgwNXB4OyBzdHJva2Utb3BhY2l0eTogMTsgc3Ryb2tlOiByZ2IoODAsIDgwLCA4MCk7IC0tZGFya3JlYWRlci1pbmxpbmUtc3Ryb2tlOiAjYjVhZmE2OyIgY2xhc3M9ImxpbmsiLz48cGF0aCBkYXRhLWRhcmtyZWFkZXItaW5saW5lLXN0cm9rZT0iIiBkPSJNOTczLDM3MywgMTI4MywzMDguNSIgbWFya2VyLWVuZD0iIiBzdHlsZT0ic3Ryb2tlLXdpZHRoOiAxLjIwNDI2cHg7IHN0cm9rZS1vcGFjaXR5OiAxOyBzdHJva2U6IHJnYig4MCwgODAsIDgwKTsgLS1kYXJrcmVhZGVyLWlubGluZS1zdHJva2U6ICNiNWFmYTY7IiBjbGFzcz0ibGluayIvPjxwYXRoIGRhdGEtZGFya3JlYWRlci1pbmxpbmUtc3Ryb2tlPSIiIGQ9Ik05NzMsMzczLCAxMjgzLDM1MS41IiBtYXJrZXItZW5kPSIiIHN0eWxlPSJzdHJva2Utd2lkdGg6IDEuMjQ1MzhweDsgc3Ryb2tlLW9wYWNpdHk6IDE7IHN0cm9rZTogcmdiKDgwLCA4MCwgODApOyAtLWRhcmtyZWFkZXItaW5saW5lLXN0cm9rZTogI2I1YWZhNjsiIGNsYXNzPSJsaW5rIi8+PHBhdGggZGF0YS1kYXJrcmVhZGVyLWlubGluZS1zdHJva2U9IiIgZD0iTTk3MywzNzMsIDEyODMsMzk0LjUiIG1hcmtlci1lbmQ9IiIgc3R5bGU9InN0cm9rZS13aWR0aDogMC40NDcxMzNweDsgc3Ryb2tlLW9wYWNpdHk6IDE7IHN0cm9rZTogcmdiKDgwLCA4MCwgODApOyAtLWRhcmtyZWFkZXItaW5saW5lLXN0cm9rZTogI2I1YWZhNjsiIGNsYXNzPSJsaW5rIi8+PHBhdGggZGF0YS1kYXJrcmVhZGVyLWlubGluZS1zdHJva2U9IiIgZD0iTTk3MywzNzMsIDEyODMsNDM3LjUiIG1hcmtlci1lbmQ9IiIgc3R5bGU9InN0cm9rZS13aWR0aDogMC4zOTg1ODdweDsgc3Ryb2tlLW9wYWNpdHk6IDE7IHN0cm9rZTogcmdiKDgwLCA4MCwgODApOyAtLWRhcmtyZWFkZXItaW5saW5lLXN0cm9rZTogI2I1YWZhNjsiIGNsYXNzPSJsaW5rIi8+PHBhdGggZGF0YS1kYXJrcmVhZGVyLWlubGluZS1zdHJva2U9IiIgZD0iTTk3MywzNzMsIDEyODMsNDgwLjUiIG1hcmtlci1lbmQ9IiIgc3R5bGU9InN0cm9rZS13aWR0aDogMC4wODgyMjAxcHg7IHN0cm9rZS1vcGFjaXR5OiAxOyBzdHJva2U6IHJnYig4MCwgODAsIDgwKTsgLS1kYXJrcmVhZGVyLWlubGluZS1zdHJva2U6ICNiNWFmYTY7IiBjbGFzcz0ibGluayIvPjxwYXRoIGRhdGEtZGFya3JlYWRlci1pbmxpbmUtc3Ryb2tlPSIiIGQ9Ik05NzMsMzczLCAxMjgzLDUyMy41IiBtYXJrZXItZW5kPSIiIHN0eWxlPSJzdHJva2Utd2lkdGg6IDEuMDEwMXB4OyBzdHJva2Utb3BhY2l0eTogMTsgc3Ryb2tlOiByZ2IoODAsIDgwLCA4MCk7IC0tZGFya3JlYWRlci1pbmxpbmUtc3Ryb2tlOiAjYjVhZmE2OyIgY2xhc3M9ImxpbmsiLz48cGF0aCBkYXRhLWRhcmtyZWFkZXItaW5saW5lLXN0cm9rZT0iIiBkPSJNOTczLDM3MywgMTI4Myw1NjYuNSIgbWFya2VyLWVuZD0iIiBzdHlsZT0ic3Ryb2tlLXdpZHRoOiAxLjA3Nzk5cHg7IHN0cm9rZS1vcGFjaXR5OiAxOyBzdHJva2U6IHJnYig4MCwgODAsIDgwKTsgLS1kYXJrcmVhZGVyLWlubGluZS1zdHJva2U6ICNiNWFmYTY7IiBjbGFzcz0ibGluayIvPjxwYXRoIGRhdGEtZGFya3JlYWRlci1pbmxpbmUtc3Ryb2tlPSIiIGQ9Ik05NzMsMzczLCAxMjgzLDYwOS41IiBtYXJrZXItZW5kPSIiIHN0eWxlPSJzdHJva2Utd2lkdGg6IDAuODk5MjgycHg7IHN0cm9rZS1vcGFjaXR5OiAxOyBzdHJva2U6IHJnYig4MCwgODAsIDgwKTsgLS1kYXJrcmVhZGVyLWlubGluZS1zdHJva2U6ICNiNWFmYTY7IiBjbGFzcz0ibGluayIvPjxwYXRoIGRhdGEtZGFya3JlYWRlci1pbmxpbmUtc3Ryb2tlPSIiIGQ9Ik05NzMsMzczLCAxMjgzLDY1Mi41IiBtYXJrZXItZW5kPSIiIHN0eWxlPSJzdHJva2Utd2lkdGg6IDEuMDYxMjdweDsgc3Ryb2tlLW9wYWNpdHk6IDE7IHN0cm9rZTogcmdiKDgwLCA4MCwgODApOyAtLWRhcmtyZWFkZXItaW5saW5lLXN0cm9rZTogI2I1YWZhNjsiIGNsYXNzPSJsaW5rIi8+PHBhdGggZGF0YS1kYXJrcmVhZGVyLWlubGluZS1zdHJva2U9IiIgZD0iTTk3Myw0MTYsIDEyODMsMzA4LjUiIG1hcmtlci1lbmQ9IiIgc3R5bGU9InN0cm9rZS13aWR0aDogMC4wODg5MTYycHg7IHN0cm9rZS1vcGFjaXR5OiAxOyBzdHJva2U6IHJnYig4MCwgODAsIDgwKTsgLS1kYXJrcmVhZGVyLWlubGluZS1zdHJva2U6ICNiNWFmYTY7IiBjbGFzcz0ibGluayIvPjxwYXRoIGRhdGEtZGFya3JlYWRlci1pbmxpbmUtc3Ryb2tlPSIiIGQ9Ik05NzMsNDE2LCAxMjgzLDM1MS41IiBtYXJrZXItZW5kPSIiIHN0eWxlPSJzdHJva2Utd2lkdGg6IDAuNTAxNjcxcHg7IHN0cm9rZS1vcGFjaXR5OiAxOyBzdHJva2U6IHJnYig4MCwgODAsIDgwKTsgLS1kYXJrcmVhZGVyLWlubGluZS1zdHJva2U6ICNiNWFmYTY7IiBjbGFzcz0ibGluayIvPjxwYXRoIGRhdGEtZGFya3JlYWRlci1pbmxpbmUtc3Ryb2tlPSIiIGQ9Ik05NzMsNDE2LCAxMjgzLDM5NC41IiBtYXJrZXItZW5kPSIiIHN0eWxlPSJzdHJva2Utd2lkdGg6IDAuMDkwMzc2NHB4OyBzdHJva2Utb3BhY2l0eTogMTsgc3Ryb2tlOiByZ2IoODAsIDgwLCA4MCk7IC0tZGFya3JlYWRlci1pbmxpbmUtc3Ryb2tlOiAjYjVhZmE2OyIgY2xhc3M9ImxpbmsiLz48cGF0aCBkYXRhLWRhcmtyZWFkZXItaW5saW5lLXN0cm9rZT0iIiBkPSJNOTczLDQxNiwgMTI4Myw0MzcuNSIgbWFya2VyLWVuZD0iIiBzdHlsZT0ic3Ryb2tlLXdpZHRoOiAwLjkyNTA0MXB4OyBzdHJva2Utb3BhY2l0eTogMTsgc3Ryb2tlOiByZ2IoODAsIDgwLCA4MCk7IC0tZGFya3JlYWRlci1pbmxpbmUtc3Ryb2tlOiAjYjVhZmE2OyIgY2xhc3M9ImxpbmsiLz48cGF0aCBkYXRhLWRhcmtyZWFkZXItaW5saW5lLXN0cm9rZT0iIiBkPSJNOTczLDQxNiwgMTI4Myw0ODAuNSIgbWFya2VyLWVuZD0iIiBzdHlsZT0ic3Ryb2tlLXdpZHRoOiAwLjUyNDExOHB4OyBzdHJva2Utb3BhY2l0eTogMTsgc3Ryb2tlOiByZ2IoODAsIDgwLCA4MCk7IC0tZGFya3JlYWRlci1pbmxpbmUtc3Ryb2tlOiAjYjVhZmE2OyIgY2xhc3M9ImxpbmsiLz48cGF0aCBkYXRhLWRhcmtyZWFkZXItaW5saW5lLXN0cm9rZT0iIiBkPSJNOTczLDQxNiwgMTI4Myw1MjMuNSIgbWFya2VyLWVuZD0iIiBzdHlsZT0ic3Ryb2tlLXdpZHRoOiAwLjIwMTM2cHg7IHN0cm9rZS1vcGFjaXR5OiAxOyBzdHJva2U6IHJnYig4MCwgODAsIDgwKTsgLS1kYXJrcmVhZGVyLWlubGluZS1zdHJva2U6ICNiNWFmYTY7IiBjbGFzcz0ibGluayIvPjxwYXRoIGRhdGEtZGFya3JlYWRlci1pbmxpbmUtc3Ryb2tlPSIiIGQ9Ik05NzMsNDE2LCAxMjgzLDU2Ni41IiBtYXJrZXItZW5kPSIiIHN0eWxlPSJzdHJva2Utd2lkdGg6IDAuNDQxNjQ0cHg7IHN0cm9rZS1vcGFjaXR5OiAxOyBzdHJva2U6IHJnYig4MCwgODAsIDgwKTsgLS1kYXJrcmVhZGVyLWlubGluZS1zdHJva2U6ICNiNWFmYTY7IiBjbGFzcz0ibGluayIvPjxwYXRoIGRhdGEtZGFya3JlYWRlci1pbmxpbmUtc3Ryb2tlPSIiIGQ9Ik05NzMsNDE2LCAxMjgzLDYwOS41IiBtYXJrZXItZW5kPSIiIHN0eWxlPSJzdHJva2Utd2lkdGg6IDAuNTI5MDA2cHg7IHN0cm9rZS1vcGFjaXR5OiAxOyBzdHJva2U6IHJnYig4MCwgODAsIDgwKTsgLS1kYXJrcmVhZGVyLWlubGluZS1zdHJva2U6ICNiNWFmYTY7IiBjbGFzcz0ibGluayIvPjxwYXRoIGRhdGEtZGFya3JlYWRlci1pbmxpbmUtc3Ryb2tlPSIiIGQ9Ik05NzMsNDE2LCAxMjgzLDY1Mi41IiBtYXJrZXItZW5kPSIiIHN0eWxlPSJzdHJva2Utd2lkdGg6IDAuMjI4NzI0cHg7IHN0cm9rZS1vcGFjaXR5OiAxOyBzdHJva2U6IHJnYig4MCwgODAsIDgwKTsgLS1kYXJrcmVhZGVyLWlubGluZS1zdHJva2U6ICNiNWFmYTY7IiBjbGFzcz0ibGluayIvPjxwYXRoIGRhdGEtZGFya3JlYWRlci1pbmxpbmUtc3Ryb2tlPSIiIGQ9Ik05NzMsNDU5LCAxMjgzLDMwOC41IiBtYXJrZXItZW5kPSIiIHN0eWxlPSJzdHJva2Utd2lkdGg6IDEuMDc0NjNweDsgc3Ryb2tlLW9wYWNpdHk6IDE7IHN0cm9rZTogcmdiKDgwLCA4MCwgODApOyAtLWRhcmtyZWFkZXItaW5saW5lLXN0cm9rZTogI2I1YWZhNjsiIGNsYXNzPSJsaW5rIi8+PHBhdGggZGF0YS1kYXJrcmVhZGVyLWlubGluZS1zdHJva2U9IiIgZD0iTTk3Myw0NTksIDEyODMsMzUxLjUiIG1hcmtlci1lbmQ9IiIgc3R5bGU9InN0cm9rZS13aWR0aDogMS4yMjAxMXB4OyBzdHJva2Utb3BhY2l0eTogMTsgc3Ryb2tlOiByZ2IoODAsIDgwLCA4MCk7IC0tZGFya3JlYWRlci1pbmxpbmUtc3Ryb2tlOiAjYjVhZmE2OyIgY2xhc3M9ImxpbmsiLz48cGF0aCBkYXRhLWRhcmtyZWFkZXItaW5saW5lLXN0cm9rZT0iIiBkPSJNOTczLDQ1OSwgMTI4MywzOTQuNSIgbWFya2VyLWVuZD0iIiBzdHlsZT0ic3Ryb2tlLXdpZHRoOiAwLjE3NjYzMnB4OyBzdHJva2Utb3BhY2l0eTogMTsgc3Ryb2tlOiByZ2IoODAsIDgwLCA4MCk7IC0tZGFya3JlYWRlci1pbmxpbmUtc3Ryb2tlOiAjYjVhZmE2OyIgY2xhc3M9ImxpbmsiLz48cGF0aCBkYXRhLWRhcmtyZWFkZXItaW5saW5lLXN0cm9rZT0iIiBkPSJNOTczLDQ1OSwgMTI4Myw0MzcuNSIgbWFya2VyLWVuZD0iIiBzdHlsZT0ic3Ryb2tlLXdpZHRoOiAxLjIzOTk2cHg7IHN0cm9rZS1vcGFjaXR5OiAxOyBzdHJva2U6IHJnYig4MCwgODAsIDgwKTsgLS1kYXJrcmVhZGVyLWlubGluZS1zdHJva2U6ICNiNWFmYTY7IiBjbGFzcz0ibGluayIvPjxwYXRoIGRhdGEtZGFya3JlYWRlci1pbmxpbmUtc3Ryb2tlPSIiIGQ9Ik05NzMsNDU5LCAxMjgzLDQ4MC41IiBtYXJrZXItZW5kPSIiIHN0eWxlPSJzdHJva2Utd2lkdGg6IDEuMTM2N3B4OyBzdHJva2Utb3BhY2l0eTogMTsgc3Ryb2tlOiByZ2IoODAsIDgwLCA4MCk7IC0tZGFya3JlYWRlci1pbmxpbmUtc3Ryb2tlOiAjYjVhZmE2OyIgY2xhc3M9ImxpbmsiLz48cGF0aCBkYXRhLWRhcmtyZWFkZXItaW5saW5lLXN0cm9rZT0iIiBkPSJNOTczLDQ1OSwgMTI4Myw1MjMuNSIgbWFya2VyLWVuZD0iIiBzdHlsZT0ic3Ryb2tlLXdpZHRoOiAwLjQwNDY5N3B4OyBzdHJva2Utb3BhY2l0eTogMTsgc3Ryb2tlOiByZ2IoODAsIDgwLCA4MCk7IC0tZGFya3JlYWRlci1pbmxpbmUtc3Ryb2tlOiAjYjVhZmE2OyIgY2xhc3M9ImxpbmsiLz48cGF0aCBkYXRhLWRhcmtyZWFkZXItaW5saW5lLXN0cm9rZT0iIiBkPSJNOTczLDQ1OSwgMTI4Myw1NjYuNSIgbWFya2VyLWVuZD0iIiBzdHlsZT0ic3Ryb2tlLXdpZHRoOiAwLjg1MjgzNXB4OyBzdHJva2Utb3BhY2l0eTogMTsgc3Ryb2tlOiByZ2IoODAsIDgwLCA4MCk7IC0tZGFya3JlYWRlci1pbmxpbmUtc3Ryb2tlOiAjYjVhZmE2OyIgY2xhc3M9ImxpbmsiLz48cGF0aCBkYXRhLWRhcmtyZWFkZXItaW5saW5lLXN0cm9rZT0iIiBkPSJNOTczLDQ1OSwgMTI4Myw2MDkuNSIgbWFya2VyLWVuZD0iIiBzdHlsZT0ic3Ryb2tlLXdpZHRoOiAwLjQzMzYzNHB4OyBzdHJva2Utb3BhY2l0eTogMTsgc3Ryb2tlOiByZ2IoODAsIDgwLCA4MCk7IC0tZGFya3JlYWRlci1pbmxpbmUtc3Ryb2tlOiAjYjVhZmE2OyIgY2xhc3M9ImxpbmsiLz48cGF0aCBkYXRhLWRhcmtyZWFkZXItaW5saW5lLXN0cm9rZT0iIiBkPSJNOTczLDQ1OSwgMTI4Myw2NTIuNSIgbWFya2VyLWVuZD0iIiBzdHlsZT0ic3Ryb2tlLXdpZHRoOiAwLjAxMDkxNjlweDsgc3Ryb2tlLW9wYWNpdHk6IDE7IHN0cm9rZTogcmdiKDgwLCA4MCwgODApOyAtLWRhcmtyZWFkZXItaW5saW5lLXN0cm9rZTogI2I1YWZhNjsiIGNsYXNzPSJsaW5rIi8+PHBhdGggZGF0YS1kYXJrcmVhZGVyLWlubGluZS1zdHJva2U9IiIgZD0iTTk3Myw1MDIsIDEyODMsMzA4LjUiIG1hcmtlci1lbmQ9IiIgc3R5bGU9InN0cm9rZS13aWR0aDogMC42MTcxNjlweDsgc3Ryb2tlLW9wYWNpdHk6IDE7IHN0cm9rZTogcmdiKDgwLCA4MCwgODApOyAtLWRhcmtyZWFkZXItaW5saW5lLXN0cm9rZTogI2I1YWZhNjsiIGNsYXNzPSJsaW5rIi8+PHBhdGggZGF0YS1kYXJrcmVhZGVyLWlubGluZS1zdHJva2U9IiIgZD0iTTk3Myw1MDIsIDEyODMsMzUxLjUiIG1hcmtlci1lbmQ9IiIgc3R5bGU9InN0cm9rZS13aWR0aDogMC45NTg1NXB4OyBzdHJva2Utb3BhY2l0eTogMTsgc3Ryb2tlOiByZ2IoODAsIDgwLCA4MCk7IC0tZGFya3JlYWRlci1pbmxpbmUtc3Ryb2tlOiAjYjVhZmE2OyIgY2xhc3M9ImxpbmsiLz48cGF0aCBkYXRhLWRhcmtyZWFkZXItaW5saW5lLXN0cm9rZT0iIiBkPSJNOTczLDUwMiwgMTI4MywzOTQuNSIgbWFya2VyLWVuZD0iIiBzdHlsZT0ic3Ryb2tlLXdpZHRoOiAwLjE0NTE4OXB4OyBzdHJva2Utb3BhY2l0eTogMTsgc3Ryb2tlOiByZ2IoODAsIDgwLCA4MCk7IC0tZGFya3JlYWRlci1pbmxpbmUtc3Ryb2tlOiAjYjVhZmE2OyIgY2xhc3M9ImxpbmsiLz48cGF0aCBkYXRhLWRhcmtyZWFkZXItaW5saW5lLXN0cm9rZT0iIiBkPSJNOTczLDUwMiwgMTI4Myw0MzcuNSIgbWFya2VyLWVuZD0iIiBzdHlsZT0ic3Ryb2tlLXdpZHRoOiAxLjE3OTUxcHg7IHN0cm9rZS1vcGFjaXR5OiAxOyBzdHJva2U6IHJnYig4MCwgODAsIDgwKTsgLS1kYXJrcmVhZGVyLWlubGluZS1zdHJva2U6ICNiNWFmYTY7IiBjbGFzcz0ibGluayIvPjxwYXRoIGRhdGEtZGFya3JlYWRlci1pbmxpbmUtc3Ryb2tlPSIiIGQ9Ik05NzMsNTAyLCAxMjgzLDQ4MC41IiBtYXJrZXItZW5kPSIiIHN0eWxlPSJzdHJva2Utd2lkdGg6IDAuMDM4MDcwM3B4OyBzdHJva2Utb3BhY2l0eTogMTsgc3Ryb2tlOiByZ2IoODAsIDgwLCA4MCk7IC0tZGFya3JlYWRlci1pbmxpbmUtc3Ryb2tlOiAjYjVhZmE2OyIgY2xhc3M9ImxpbmsiLz48cGF0aCBkYXRhLWRhcmtyZWFkZXItaW5saW5lLXN0cm9rZT0iIiBkPSJNOTczLDUwMiwgMTI4Myw1MjMuNSIgbWFya2VyLWVuZD0iIiBzdHlsZT0ic3Ryb2tlLXdpZHRoOiAwLjc1OTkxOHB4OyBzdHJva2Utb3BhY2l0eTogMTsgc3Ryb2tlOiByZ2IoODAsIDgwLCA4MCk7IC0tZGFya3JlYWRlci1pbmxpbmUtc3Ryb2tlOiAjYjVhZmE2OyIgY2xhc3M9ImxpbmsiLz48cGF0aCBkYXRhLWRhcmtyZWFkZXItaW5saW5lLXN0cm9rZT0iIiBkPSJNOTczLDUwMiwgMTI4Myw1NjYuNSIgbWFya2VyLWVuZD0iIiBzdHlsZT0ic3Ryb2tlLXdpZHRoOiAxLjEyNTQzcHg7IHN0cm9rZS1vcGFjaXR5OiAxOyBzdHJva2U6IHJnYig4MCwgODAsIDgwKTsgLS1kYXJrcmVhZGVyLWlubGluZS1zdHJva2U6ICNiNWFmYTY7IiBjbGFzcz0ibGluayIvPjxwYXRoIGRhdGEtZGFya3JlYWRlci1pbmxpbmUtc3Ryb2tlPSIiIGQ9Ik05NzMsNTAyLCAxMjgzLDYwOS41IiBtYXJrZXItZW5kPSIiIHN0eWxlPSJzdHJva2Utd2lkdGg6IDEuMTE3OXB4OyBzdHJva2Utb3BhY2l0eTogMTsgc3Ryb2tlOiByZ2IoODAsIDgwLCA4MCk7IC0tZGFya3JlYWRlci1pbmxpbmUtc3Ryb2tlOiAjYjVhZmE2OyIgY2xhc3M9ImxpbmsiLz48cGF0aCBkYXRhLWRhcmtyZWFkZXItaW5saW5lLXN0cm9rZT0iIiBkPSJNOTczLDUwMiwgMTI4Myw2NTIuNSIgbWFya2VyLWVuZD0iIiBzdHlsZT0ic3Ryb2tlLXdpZHRoOiAwLjY4NDg5MnB4OyBzdHJva2Utb3BhY2l0eTogMTsgc3Ryb2tlOiByZ2IoODAsIDgwLCA4MCk7IC0tZGFya3JlYWRlci1pbmxpbmUtc3Ryb2tlOiAjYjVhZmE2OyIgY2xhc3M9ImxpbmsiLz48cGF0aCBkYXRhLWRhcmtyZWFkZXItaW5saW5lLXN0cm9rZT0iIiBkPSJNOTczLDU0NSwgMTI4MywzMDguNSIgbWFya2VyLWVuZD0iIiBzdHlsZT0ic3Ryb2tlLXdpZHRoOiAwLjk1OTQ4MXB4OyBzdHJva2Utb3BhY2l0eTogMTsgc3Ryb2tlOiByZ2IoODAsIDgwLCA4MCk7IC0tZGFya3JlYWRlci1pbmxpbmUtc3Ryb2tlOiAjYjVhZmE2OyIgY2xhc3M9ImxpbmsiLz48cGF0aCBkYXRhLWRhcmtyZWFkZXItaW5saW5lLXN0cm9rZT0iIiBkPSJNOTczLDU0NSwgMTI4MywzNTEuNSIgbWFya2VyLWVuZD0iIiBzdHlsZT0ic3Ryb2tlLXdpZHRoOiAxLjE0OTk5cHg7IHN0cm9rZS1vcGFjaXR5OiAxOyBzdHJva2U6IHJnYig4MCwgODAsIDgwKTsgLS1kYXJrcmVhZGVyLWlubGluZS1zdHJva2U6ICNiNWFmYTY7IiBjbGFzcz0ibGluayIvPjxwYXRoIGRhdGEtZGFya3JlYWRlci1pbmxpbmUtc3Ryb2tlPSIiIGQ9Ik05NzMsNTQ1LCAxMjgzLDM5NC41IiBtYXJrZXItZW5kPSIiIHN0eWxlPSJzdHJva2Utd2lkdGg6IDAuMDI5NzQwM3B4OyBzdHJva2Utb3BhY2l0eTogMTsgc3Ryb2tlOiByZ2IoODAsIDgwLCA4MCk7IC0tZGFya3JlYWRlci1pbmxpbmUtc3Ryb2tlOiAjYjVhZmE2OyIgY2xhc3M9ImxpbmsiLz48cGF0aCBkYXRhLWRhcmtyZWFkZXItaW5saW5lLXN0cm9rZT0iIiBkPSJNOTczLDU0NSwgMTI4Myw0MzcuNSIgbWFya2VyLWVuZD0iIiBzdHlsZT0ic3Ryb2tlLXdpZHRoOiAxLjI5Nzg4cHg7IHN0cm9rZS1vcGFjaXR5OiAxOyBzdHJva2U6IHJnYig4MCwgODAsIDgwKTsgLS1kYXJrcmVhZGVyLWlubGluZS1zdHJva2U6ICNiNWFmYTY7IiBjbGFzcz0ibGluayIvPjxwYXRoIGRhdGEtZGFya3JlYWRlci1pbmxpbmUtc3Ryb2tlPSIiIGQ9Ik05NzMsNTQ1LCAxMjgzLDQ4MC41IiBtYXJrZXItZW5kPSIiIHN0eWxlPSJzdHJva2Utd2lkdGg6IDAuMDE5MjkyOHB4OyBzdHJva2Utb3BhY2l0eTogMTsgc3Ryb2tlOiByZ2IoODAsIDgwLCA4MCk7IC0tZGFya3JlYWRlci1pbmxpbmUtc3Ryb2tlOiAjYjVhZmE2OyIgY2xhc3M9ImxpbmsiLz48cGF0aCBkYXRhLWRhcmtyZWFkZXItaW5saW5lLXN0cm9rZT0iIiBkPSJNOTczLDU0NSwgMTI4Myw1MjMuNSIgbWFya2VyLWVuZD0iIiBzdHlsZT0ic3Ryb2tlLXdpZHRoOiAxLjI4NjA3cHg7IHN0cm9rZS1vcGFjaXR5OiAxOyBzdHJva2U6IHJnYig4MCwgODAsIDgwKTsgLS1kYXJrcmVhZGVyLWlubGluZS1zdHJva2U6ICNiNWFmYTY7IiBjbGFzcz0ibGluayIvPjxwYXRoIGRhdGEtZGFya3JlYWRlci1pbmxpbmUtc3Ryb2tlPSIiIGQ9Ik05NzMsNTQ1LCAxMjgzLDU2Ni41IiBtYXJrZXItZW5kPSIiIHN0eWxlPSJzdHJva2Utd2lkdGg6IDEuMzkyMjVweDsgc3Ryb2tlLW9wYWNpdHk6IDE7IHN0cm9rZTogcmdiKDgwLCA4MCwgODApOyAtLWRhcmtyZWFkZXItaW5saW5lLXN0cm9rZTogI2I1YWZhNjsiIGNsYXNzPSJsaW5rIi8+PHBhdGggZGF0YS1kYXJrcmVhZGVyLWlubGluZS1zdHJva2U9IiIgZD0iTTk3Myw1NDUsIDEyODMsNjA5LjUiIG1hcmtlci1lbmQ9IiIgc3R5bGU9InN0cm9rZS13aWR0aDogMC40MzYwMjJweDsgc3Ryb2tlLW9wYWNpdHk6IDE7IHN0cm9rZTogcmdiKDgwLCA4MCwgODApOyAtLWRhcmtyZWFkZXItaW5saW5lLXN0cm9rZTogI2I1YWZhNjsiIGNsYXNzPSJsaW5rIi8+PHBhdGggZGF0YS1kYXJrcmVhZGVyLWlubGluZS1zdHJva2U9IiIgZD0iTTk3Myw1NDUsIDEyODMsNjUyLjUiIG1hcmtlci1lbmQ9IiIgc3R5bGU9InN0cm9rZS13aWR0aDogMC44NzQ0MTJweDsgc3Ryb2tlLW9wYWNpdHk6IDE7IHN0cm9rZTogcmdiKDgwLCA4MCwgODApOyAtLWRhcmtyZWFkZXItaW5saW5lLXN0cm9rZTogI2I1YWZhNjsiIGNsYXNzPSJsaW5rIi8+PHBhdGggZGF0YS1kYXJrcmVhZGVyLWlubGluZS1zdHJva2U9IiIgZD0iTTk3Myw1ODgsIDEyODMsMzA4LjUiIG1hcmtlci1lbmQ9IiIgc3R5bGU9InN0cm9rZS13aWR0aDogMC42NDMxMzNweDsgc3Ryb2tlLW9wYWNpdHk6IDE7IHN0cm9rZTogcmdiKDgwLCA4MCwgODApOyAtLWRhcmtyZWFkZXItaW5saW5lLXN0cm9rZTogI2I1YWZhNjsiIGNsYXNzPSJsaW5rIi8+PHBhdGggZGF0YS1kYXJrcmVhZGVyLWlubGluZS1zdHJva2U9IiIgZD0iTTk3Myw1ODgsIDEyODMsMzUxLjUiIG1hcmtlci1lbmQ9IiIgc3R5bGU9InN0cm9rZS13aWR0aDogMS40MDE1MXB4OyBzdHJva2Utb3BhY2l0eTogMTsgc3Ryb2tlOiByZ2IoODAsIDgwLCA4MCk7IC0tZGFya3JlYWRlci1pbmxpbmUtc3Ryb2tlOiAjYjVhZmE2OyIgY2xhc3M9ImxpbmsiLz48cGF0aCBkYXRhLWRhcmtyZWFkZXItaW5saW5lLXN0cm9rZT0iIiBkPSJNOTczLDU4OCwgMTI4MywzOTQuNSIgbWFya2VyLWVuZD0iIiBzdHlsZT0ic3Ryb2tlLXdpZHRoOiAwLjI2MTA3NHB4OyBzdHJva2Utb3BhY2l0eTogMTsgc3Ryb2tlOiByZ2IoODAsIDgwLCA4MCk7IC0tZGFya3JlYWRlci1pbmxpbmUtc3Ryb2tlOiAjYjVhZmE2OyIgY2xhc3M9ImxpbmsiLz48cGF0aCBkYXRhLWRhcmtyZWFkZXItaW5saW5lLXN0cm9rZT0iIiBkPSJNOTczLDU4OCwgMTI4Myw0MzcuNSIgbWFya2VyLWVuZD0iIiBzdHlsZT0ic3Ryb2tlLXdpZHRoOiAwLjExMTA4NXB4OyBzdHJva2Utb3BhY2l0eTogMTsgc3Ryb2tlOiByZ2IoODAsIDgwLCA4MCk7IC0tZGFya3JlYWRlci1pbmxpbmUtc3Ryb2tlOiAjYjVhZmE2OyIgY2xhc3M9ImxpbmsiLz48cGF0aCBkYXRhLWRhcmtyZWFkZXItaW5saW5lLXN0cm9rZT0iIiBkPSJNOTczLDU4OCwgMTI4Myw0ODAuNSIgbWFya2VyLWVuZD0iIiBzdHlsZT0ic3Ryb2tlLXdpZHRoOiAwLjE2OTEwM3B4OyBzdHJva2Utb3BhY2l0eTogMTsgc3Ryb2tlOiByZ2IoODAsIDgwLCA4MCk7IC0tZGFya3JlYWRlci1pbmxpbmUtc3Ryb2tlOiAjYjVhZmE2OyIgY2xhc3M9ImxpbmsiLz48cGF0aCBkYXRhLWRhcmtyZWFkZXItaW5saW5lLXN0cm9rZT0iIiBkPSJNOTczLDU4OCwgMTI4Myw1MjMuNSIgbWFya2VyLWVuZD0iIiBzdHlsZT0ic3Ryb2tlLXdpZHRoOiAwLjkyNDU5N3B4OyBzdHJva2Utb3BhY2l0eTogMTsgc3Ryb2tlOiByZ2IoODAsIDgwLCA4MCk7IC0tZGFya3JlYWRlci1pbmxpbmUtc3Ryb2tlOiAjYjVhZmE2OyIgY2xhc3M9ImxpbmsiLz48cGF0aCBkYXRhLWRhcmtyZWFkZXItaW5saW5lLXN0cm9rZT0iIiBkPSJNOTczLDU4OCwgMTI4Myw1NjYuNSIgbWFya2VyLWVuZD0iIiBzdHlsZT0ic3Ryb2tlLXdpZHRoOiAxLjA1NDY1cHg7IHN0cm9rZS1vcGFjaXR5OiAxOyBzdHJva2U6IHJnYig4MCwgODAsIDgwKTsgLS1kYXJrcmVhZGVyLWlubGluZS1zdHJva2U6ICNiNWFmYTY7IiBjbGFzcz0ibGluayIvPjxwYXRoIGRhdGEtZGFya3JlYWRlci1pbmxpbmUtc3Ryb2tlPSIiIGQ9Ik05NzMsNTg4LCAxMjgzLDYwOS41IiBtYXJrZXItZW5kPSIiIHN0eWxlPSJzdHJva2Utd2lkdGg6IDAuNDk1MTE3cHg7IHN0cm9rZS1vcGFjaXR5OiAxOyBzdHJva2U6IHJnYig4MCwgODAsIDgwKTsgLS1kYXJrcmVhZGVyLWlubGluZS1zdHJva2U6ICNiNWFmYTY7IiBjbGFzcz0ibGluayIvPjxwYXRoIGRhdGEtZGFya3JlYWRlci1pbmxpbmUtc3Ryb2tlPSIiIGQ9Ik05NzMsNTg4LCAxMjgzLDY1Mi41IiBtYXJrZXItZW5kPSIiIHN0eWxlPSJzdHJva2Utd2lkdGg6IDAuODk3NjM3cHg7IHN0cm9rZS1vcGFjaXR5OiAxOyBzdHJva2U6IHJnYig4MCwgODAsIDgwKTsgLS1kYXJrcmVhZGVyLWlubGluZS1zdHJva2U6ICNiNWFmYTY7IiBjbGFzcz0ibGluayIvPjxwYXRoIGRhdGEtZGFya3JlYWRlci1pbmxpbmUtc3Ryb2tlPSIiIGQ9Ik05NzMsNjMxLCAxMjgzLDMwOC41IiBtYXJrZXItZW5kPSIiIHN0eWxlPSJzdHJva2Utd2lkdGg6IDAuMDQ0OTU2M3B4OyBzdHJva2Utb3BhY2l0eTogMTsgc3Ryb2tlOiByZ2IoODAsIDgwLCA4MCk7IC0tZGFya3JlYWRlci1pbmxpbmUtc3Ryb2tlOiAjYjVhZmE2OyIgY2xhc3M9ImxpbmsiLz48cGF0aCBkYXRhLWRhcmtyZWFkZXItaW5saW5lLXN0cm9rZT0iIiBkPSJNOTczLDYzMSwgMTI4MywzNTEuNSIgbWFya2VyLWVuZD0iIiBzdHlsZT0ic3Ryb2tlLXdpZHRoOiAwLjQwMDg5N3B4OyBzdHJva2Utb3BhY2l0eTogMTsgc3Ryb2tlOiByZ2IoODAsIDgwLCA4MCk7IC0tZGFya3JlYWRlci1pbmxpbmUtc3Ryb2tlOiAjYjVhZmE2OyIgY2xhc3M9ImxpbmsiLz48cGF0aCBkYXRhLWRhcmtyZWFkZXItaW5saW5lLXN0cm9rZT0iIiBkPSJNOTczLDYzMSwgMTI4MywzOTQuNSIgbWFya2VyLWVuZD0iIiBzdHlsZT0ic3Ryb2tlLXdpZHRoOiAwLjY3MzQ1OHB4OyBzdHJva2Utb3BhY2l0eTogMTsgc3Ryb2tlOiByZ2IoODAsIDgwLCA4MCk7IC0tZGFya3JlYWRlci1pbmxpbmUtc3Ryb2tlOiAjYjVhZmE2OyIgY2xhc3M9ImxpbmsiLz48cGF0aCBkYXRhLWRhcmtyZWFkZXItaW5saW5lLXN0cm9rZT0iIiBkPSJNOTczLDYzMSwgMTI4Myw0MzcuNSIgbWFya2VyLWVuZD0iIiBzdHlsZT0ic3Ryb2tlLXdpZHRoOiAwLjkzMjc2MXB4OyBzdHJva2Utb3BhY2l0eTogMTsgc3Ryb2tlOiByZ2IoODAsIDgwLCA4MCk7IC0tZGFya3JlYWRlci1pbmxpbmUtc3Ryb2tlOiAjYjVhZmE2OyIgY2xhc3M9ImxpbmsiLz48cGF0aCBkYXRhLWRhcmtyZWFkZXItaW5saW5lLXN0cm9rZT0iIiBkPSJNOTczLDYzMSwgMTI4Myw0ODAuNSIgbWFya2VyLWVuZD0iIiBzdHlsZT0ic3Ryb2tlLXdpZHRoOiAxLjEyOTc5cHg7IHN0cm9rZS1vcGFjaXR5OiAxOyBzdHJva2U6IHJnYig4MCwgODAsIDgwKTsgLS1kYXJrcmVhZGVyLWlubGluZS1zdHJva2U6ICNiNWFmYTY7IiBjbGFzcz0ibGluayIvPjxwYXRoIGRhdGEtZGFya3JlYWRlci1pbmxpbmUtc3Ryb2tlPSIiIGQ9Ik05NzMsNjMxLCAxMjgzLDUyMy41IiBtYXJrZXItZW5kPSIiIHN0eWxlPSJzdHJva2Utd2lkdGg6IDAuMzczMDk3cHg7IHN0cm9rZS1vcGFjaXR5OiAxOyBzdHJva2U6IHJnYig4MCwgODAsIDgwKTsgLS1kYXJrcmVhZGVyLWlubGluZS1zdHJva2U6ICNiNWFmYTY7IiBjbGFzcz0ibGluayIvPjxwYXRoIGRhdGEtZGFya3JlYWRlci1pbmxpbmUtc3Ryb2tlPSIiIGQ9Ik05NzMsNjMxLCAxMjgzLDU2Ni41IiBtYXJrZXItZW5kPSIiIHN0eWxlPSJzdHJva2Utd2lkdGg6IDEuMDUyMjhweDsgc3Ryb2tlLW9wYWNpdHk6IDE7IHN0cm9rZTogcmdiKDgwLCA4MCwgODApOyAtLWRhcmtyZWFkZXItaW5saW5lLXN0cm9rZTogI2I1YWZhNjsiIGNsYXNzPSJsaW5rIi8+PHBhdGggZGF0YS1kYXJrcmVhZGVyLWlubGluZS1zdHJva2U9IiIgZD0iTTk3Myw2MzEsIDEyODMsNjA5LjUiIG1hcmtlci1lbmQ9IiIgc3R5bGU9InN0cm9rZS13aWR0aDogMC40Njk3MTdweDsgc3Ryb2tlLW9wYWNpdHk6IDE7IHN0cm9rZTogcmdiKDgwLCA4MCwgODApOyAtLWRhcmtyZWFkZXItaW5saW5lLXN0cm9rZTogI2I1YWZhNjsiIGNsYXNzPSJsaW5rIi8+PHBhdGggZGF0YS1kYXJrcmVhZGVyLWlubGluZS1zdHJva2U9IiIgZD0iTTk3Myw2MzEsIDEyODMsNjUyLjUiIG1hcmtlci1lbmQ9IiIgc3R5bGU9InN0cm9rZS13aWR0aDogMC4wMzIzMjM1cHg7IHN0cm9rZS1vcGFjaXR5OiAxOyBzdHJva2U6IHJnYig4MCwgODAsIDgwKTsgLS1kYXJrcmVhZGVyLWlubGluZS1zdHJva2U6ICNiNWFmYTY7IiBjbGFzcz0ibGluayIvPjxwYXRoIGRhdGEtZGFya3JlYWRlci1pbmxpbmUtc3Ryb2tlPSIiIGQ9Ik05NzMsNjc0LCAxMjgzLDMwOC41IiBtYXJrZXItZW5kPSIiIHN0eWxlPSJzdHJva2Utd2lkdGg6IDAuODE5Njk1cHg7IHN0cm9rZS1vcGFjaXR5OiAxOyBzdHJva2U6IHJnYig4MCwgODAsIDgwKTsgLS1kYXJrcmVhZGVyLWlubGluZS1zdHJva2U6ICNiNWFmYTY7IiBjbGFzcz0ibGluayIvPjxwYXRoIGRhdGEtZGFya3JlYWRlci1pbmxpbmUtc3Ryb2tlPSIiIGQ9Ik05NzMsNjc0LCAxMjgzLDM1MS41IiBtYXJrZXItZW5kPSIiIHN0eWxlPSJzdHJva2Utd2lkdGg6IDAuOTcyODY4cHg7IHN0cm9rZS1vcGFjaXR5OiAxOyBzdHJva2U6IHJnYig4MCwgODAsIDgwKTsgLS1kYXJrcmVhZGVyLWlubGluZS1zdHJva2U6ICNiNWFmYTY7IiBjbGFzcz0ibGluayIvPjxwYXRoIGRhdGEtZGFya3JlYWRlci1pbmxpbmUtc3Ryb2tlPSIiIGQ9Ik05NzMsNjc0LCAxMjgzLDM5NC41IiBtYXJrZXItZW5kPSIiIHN0eWxlPSJzdHJva2Utd2lkdGg6IDEuMTc4N3B4OyBzdHJva2Utb3BhY2l0eTogMTsgc3Ryb2tlOiByZ2IoODAsIDgwLCA4MCk7IC0tZGFya3JlYWRlci1pbmxpbmUtc3Ryb2tlOiAjYjVhZmE2OyIgY2xhc3M9ImxpbmsiLz48cGF0aCBkYXRhLWRhcmtyZWFkZXItaW5saW5lLXN0cm9rZT0iIiBkPSJNOTczLDY3NCwgMTI4Myw0MzcuNSIgbWFya2VyLWVuZD0iIiBzdHlsZT0ic3Ryb2tlLXdpZHRoOiAwLjc2OTc1OXB4OyBzdHJva2Utb3BhY2l0eTogMTsgc3Ryb2tlOiByZ2IoODAsIDgwLCA4MCk7IC0tZGFya3JlYWRlci1pbmxpbmUtc3Ryb2tlOiAjYjVhZmE2OyIgY2xhc3M9ImxpbmsiLz48cGF0aCBkYXRhLWRhcmtyZWFkZXItaW5saW5lLXN0cm9rZT0iIiBkPSJNOTczLDY3NCwgMTI4Myw0ODAuNSIgbWFya2VyLWVuZD0iIiBzdHlsZT0ic3Ryb2tlLXdpZHRoOiAxLjM3NDQ4cHg7IHN0cm9rZS1vcGFjaXR5OiAxOyBzdHJva2U6IHJnYig4MCwgODAsIDgwKTsgLS1kYXJrcmVhZGVyLWlubGluZS1zdHJva2U6ICNiNWFmYTY7IiBjbGFzcz0ibGluayIvPjxwYXRoIGRhdGEtZGFya3JlYWRlci1pbmxpbmUtc3Ryb2tlPSIiIGQ9Ik05NzMsNjc0LCAxMjgzLDUyMy41IiBtYXJrZXItZW5kPSIiIHN0eWxlPSJzdHJva2Utd2lkdGg6IDEuMzE0OTRweDsgc3Ryb2tlLW9wYWNpdHk6IDE7IHN0cm9rZTogcmdiKDgwLCA4MCwgODApOyAtLWRhcmtyZWFkZXItaW5saW5lLXN0cm9rZTogI2I1YWZhNjsiIGNsYXNzPSJsaW5rIi8+PHBhdGggZGF0YS1kYXJrcmVhZGVyLWlubGluZS1zdHJva2U9IiIgZD0iTTk3Myw2NzQsIDEyODMsNTY2LjUiIG1hcmtlci1lbmQ9IiIgc3R5bGU9InN0cm9rZS13aWR0aDogMS4wMDA5M3B4OyBzdHJva2Utb3BhY2l0eTogMTsgc3Ryb2tlOiByZ2IoODAsIDgwLCA4MCk7IC0tZGFya3JlYWRlci1pbmxpbmUtc3Ryb2tlOiAjYjVhZmE2OyIgY2xhc3M9ImxpbmsiLz48cGF0aCBkYXRhLWRhcmtyZWFkZXItaW5saW5lLXN0cm9rZT0iIiBkPSJNOTczLDY3NCwgMTI4Myw2MDkuNSIgbWFya2VyLWVuZD0iIiBzdHlsZT0ic3Ryb2tlLXdpZHRoOiAwLjAzOTIyMTFweDsgc3Ryb2tlLW9wYWNpdHk6IDE7IHN0cm9rZTogcmdiKDgwLCA4MCwgODApOyAtLWRhcmtyZWFkZXItaW5saW5lLXN0cm9rZTogI2I1YWZhNjsiIGNsYXNzPSJsaW5rIi8+PHBhdGggZGF0YS1kYXJrcmVhZGVyLWlubGluZS1zdHJva2U9IiIgZD0iTTk3Myw2NzQsIDEyODMsNjUyLjUiIG1hcmtlci1lbmQ9IiIgc3R5bGU9InN0cm9rZS13aWR0aDogMC4yMTU2NDNweDsgc3Ryb2tlLW9wYWNpdHk6IDE7IHN0cm9rZTogcmdiKDgwLCA4MCwgODApOyAtLWRhcmtyZWFkZXItaW5saW5lLXN0cm9rZTogI2I1YWZhNjsiIGNsYXNzPSJsaW5rIi8+PHBhdGggZD0iTTY2MywyOSwgOTczLDIwMSIgbWFya2VyLWVuZD0iIiBzdHlsZT0ic3Ryb2tlLXdpZHRoOiAwLjUyNjMxNHB4OyBzdHJva2Utb3BhY2l0eTogMTsgc3Ryb2tlOiByZ2IoODAsIDgwLCA4MCk7IiBjbGFzcz0ibGluayIvPjxwYXRoIGQ9Ik02NjMsNzIsIDk3MywyMDEiIG1hcmtlci1lbmQ9IiIgc3R5bGU9InN0cm9rZS13aWR0aDogMS40NjUwMXB4OyBzdHJva2Utb3BhY2l0eTogMTsgc3Ryb2tlOiByZ2IoODAsIDgwLCA4MCk7IiBjbGFzcz0ibGluayIvPjxwYXRoIGQ9Ik02NjMsMTE1LCA5NzMsMjAxIiBtYXJrZXItZW5kPSIiIHN0eWxlPSJzdHJva2Utd2lkdGg6IDAuMDQxMjE3N3B4OyBzdHJva2Utb3BhY2l0eTogMTsgc3Ryb2tlOiByZ2IoODAsIDgwLCA4MCk7IiBjbGFzcz0ibGluayIvPjxwYXRoIGQ9Ik02NjMsMTU4LCA5NzMsMjAxIiBtYXJrZXItZW5kPSIiIHN0eWxlPSJzdHJva2Utd2lkdGg6IDEuMDgzMjdweDsgc3Ryb2tlLW9wYWNpdHk6IDE7IHN0cm9rZTogcmdiKDgwLCA4MCwgODApOyIgY2xhc3M9ImxpbmsiLz48cGF0aCBkPSJNNjYzLDIwMSwgOTczLDIwMSIgbWFya2VyLWVuZD0iIiBzdHlsZT0ic3Ryb2tlLXdpZHRoOiAwLjQ4MzE3NXB4OyBzdHJva2Utb3BhY2l0eTogMTsgc3Ryb2tlOiByZ2IoODAsIDgwLCA4MCk7IiBjbGFzcz0ibGluayIvPjxwYXRoIGQ9Ik02NjMsMjQ0LCA5NzMsMjAxIiBtYXJrZXItZW5kPSIiIHN0eWxlPSJzdHJva2Utd2lkdGg6IDEuMzkwOThweDsgc3Ryb2tlLW9wYWNpdHk6IDE7IHN0cm9rZTogcmdiKDgwLCA4MCwgODApOyIgY2xhc3M9ImxpbmsiLz48cGF0aCBkPSJNNjYzLDI4NywgOTczLDIwMSIgbWFya2VyLWVuZD0iIiBzdHlsZT0ic3Ryb2tlLXdpZHRoOiAwLjc0NTc0NXB4OyBzdHJva2Utb3BhY2l0eTogMTsgc3Ryb2tlOiByZ2IoODAsIDgwLCA4MCk7IiBjbGFzcz0ibGluayIvPjxwYXRoIGQ9Ik02NjMsMzMwLCA5NzMsMjAxIiBtYXJrZXItZW5kPSIiIHN0eWxlPSJzdHJva2Utd2lkdGg6IDAuODk3Njc1cHg7IHN0cm9rZS1vcGFjaXR5OiAxOyBzdHJva2U6IHJnYig4MCwgODAsIDgwKTsiIGNsYXNzPSJsaW5rIi8+PHBhdGggZD0iTTY2MywzNzMsIDk3MywyMDEiIG1hcmtlci1lbmQ9IiIgc3R5bGU9InN0cm9rZS13aWR0aDogMC4yNjg0MjdweDsgc3Ryb2tlLW9wYWNpdHk6IDE7IHN0cm9rZTogcmdiKDgwLCA4MCwgODApOyIgY2xhc3M9ImxpbmsiLz48cGF0aCBkPSJNNjYzLDQxNiwgOTczLDIwMSIgbWFya2VyLWVuZD0iIiBzdHlsZT0ic3Ryb2tlLXdpZHRoOiAxLjMzODY5cHg7IHN0cm9rZS1vcGFjaXR5OiAxOyBzdHJva2U6IHJnYig4MCwgODAsIDgwKTsiIGNsYXNzPSJsaW5rIi8+PHBhdGggZD0iTTY2Myw0NTksIDk3MywyMDEiIG1hcmtlci1lbmQ9IiIgc3R5bGU9InN0cm9rZS13aWR0aDogMC42MTIwODJweDsgc3Ryb2tlLW9wYWNpdHk6IDE7IHN0cm9rZTogcmdiKDgwLCA4MCwgODApOyIgY2xhc3M9ImxpbmsiLz48cGF0aCBkPSJNNjYzLDUwMiwgOTczLDIwMSIgbWFya2VyLWVuZD0iIiBzdHlsZT0ic3Ryb2tlLXdpZHRoOiAwLjA4MzE4NTVweDsgc3Ryb2tlLW9wYWNpdHk6IDE7IHN0cm9rZTogcmdiKDgwLCA4MCwgODApOyIgY2xhc3M9ImxpbmsiLz48cGF0aCBkPSJNNjYzLDU0NSwgOTczLDIwMSIgbWFya2VyLWVuZD0iIiBzdHlsZT0ic3Ryb2tlLXdpZHRoOiAwLjAwMjkwOTgxcHg7IHN0cm9rZS1vcGFjaXR5OiAxOyBzdHJva2U6IHJnYig4MCwgODAsIDgwKTsiIGNsYXNzPSJsaW5rIi8+PHBhdGggZD0iTTY2Myw1ODgsIDk3MywyMDEiIG1hcmtlci1lbmQ9IiIgc3R5bGU9InN0cm9rZS13aWR0aDogMS40MjU5N3B4OyBzdHJva2Utb3BhY2l0eTogMTsgc3Ryb2tlOiByZ2IoODAsIDgwLCA4MCk7IiBjbGFzcz0ibGluayIvPjxwYXRoIGQ9Ik02NjMsNjMxLCA5NzMsMjAxIiBtYXJrZXItZW5kPSIiIHN0eWxlPSJzdHJva2Utd2lkdGg6IDAuNjc2MzI0cHg7IHN0cm9rZS1vcGFjaXR5OiAxOyBzdHJva2U6IHJnYig4MCwgODAsIDgwKTsiIGNsYXNzPSJsaW5rIi8+PHBhdGggZD0iTTY2Myw2NzQsIDk3MywyMDEiIG1hcmtlci1lbmQ9IiIgc3R5bGU9InN0cm9rZS13aWR0aDogMC41MDIzMDZweDsgc3Ryb2tlLW9wYWNpdHk6IDE7IHN0cm9rZTogcmdiKDgwLCA4MCwgODApOyIgY2xhc3M9ImxpbmsiLz48cGF0aCBkPSJNOTczLDIwMSwgMTI4MywyNjUuNSIgbWFya2VyLWVuZD0iIiBzdHlsZT0ic3Ryb2tlLXdpZHRoOiAwLjI3NzIwN3B4OyBzdHJva2Utb3BhY2l0eTogMTsgc3Ryb2tlOiByZ2IoODAsIDgwLCA4MCk7IiBjbGFzcz0ibGluayIvPjxwYXRoIGQ9Ik05NzMsMjQ0LCAxMjgzLDI2NS41IiBtYXJrZXItZW5kPSIiIHN0eWxlPSJzdHJva2Utd2lkdGg6IDAuMjUyNjZweDsgc3Ryb2tlLW9wYWNpdHk6IDE7IHN0cm9rZTogcmdiKDgwLCA4MCwgODApOyIgY2xhc3M9ImxpbmsiLz48cGF0aCBkPSJNOTczLDI4NywgMTI4MywyNjUuNSIgbWFya2VyLWVuZD0iIiBzdHlsZT0ic3Ryb2tlLXdpZHRoOiAwLjgzMjUycHg7IHN0cm9rZS1vcGFjaXR5OiAxOyBzdHJva2U6IHJnYig4MCwgODAsIDgwKTsiIGNsYXNzPSJsaW5rIi8+PHBhdGggZD0iTTk3MywzMzAsIDEyODMsMjY1LjUiIG1hcmtlci1lbmQ9IiIgc3R5bGU9InN0cm9rZS13aWR0aDogMC4yMjU4OHB4OyBzdHJva2Utb3BhY2l0eTogMTsgc3Ryb2tlOiByZ2IoODAsIDgwLCA4MCk7IiBjbGFzcz0ibGluayIvPjxwYXRoIGQ9Ik05NzMsMzczLCAxMjgzLDI2NS41IiBtYXJrZXItZW5kPSIiIHN0eWxlPSJzdHJva2Utd2lkdGg6IDEuMjM0NHB4OyBzdHJva2Utb3BhY2l0eTogMTsgc3Ryb2tlOiByZ2IoODAsIDgwLCA4MCk7IiBjbGFzcz0ibGluayIvPjxwYXRoIGQ9Ik05NzMsNDE2LCAxMjgzLDI2NS41IiBtYXJrZXItZW5kPSIiIHN0eWxlPSJzdHJva2Utd2lkdGg6IDAuMTEzMDQycHg7IHN0cm9rZS1vcGFjaXR5OiAxOyBzdHJva2U6IHJnYig4MCwgODAsIDgwKTsiIGNsYXNzPSJsaW5rIi8+PHBhdGggZD0iTTk3Myw0NTksIDEyODMsMjY1LjUiIG1hcmtlci1lbmQ9IiIgc3R5bGU9InN0cm9rZS13aWR0aDogMS4yMzY4NXB4OyBzdHJva2Utb3BhY2l0eTogMTsgc3Ryb2tlOiByZ2IoODAsIDgwLCA4MCk7IiBjbGFzcz0ibGluayIvPjxwYXRoIGQ9Ik05NzMsNTAyLCAxMjgzLDI2NS41IiBtYXJrZXItZW5kPSIiIHN0eWxlPSJzdHJva2Utd2lkdGg6IDEuMTU1ODdweDsgc3Ryb2tlLW9wYWNpdHk6IDE7IHN0cm9rZTogcmdiKDgwLCA4MCwgODApOyIgY2xhc3M9ImxpbmsiLz48cGF0aCBkPSJNOTczLDU0NSwgMTI4MywyNjUuNSIgbWFya2VyLWVuZD0iIiBzdHlsZT0ic3Ryb2tlLXdpZHRoOiAwLjQ3MDY4N3B4OyBzdHJva2Utb3BhY2l0eTogMTsgc3Ryb2tlOiByZ2IoODAsIDgwLCA4MCk7IiBjbGFzcz0ibGluayIvPjxwYXRoIGQ9Ik05NzMsNTg4LCAxMjgzLDI2NS41IiBtYXJrZXItZW5kPSIiIHN0eWxlPSJzdHJva2Utd2lkdGg6IDAuNTYxNzlweDsgc3Ryb2tlLW9wYWNpdHk6IDE7IHN0cm9rZTogcmdiKDgwLCA4MCwgODApOyIgY2xhc3M9ImxpbmsiLz48cGF0aCBkPSJNOTczLDYzMSwgMTI4MywyNjUuNSIgbWFya2VyLWVuZD0iIiBzdHlsZT0ic3Ryb2tlLXdpZHRoOiAwLjY1MTZweDsgc3Ryb2tlLW9wYWNpdHk6IDE7IHN0cm9rZTogcmdiKDgwLCA4MCwgODApOyIgY2xhc3M9ImxpbmsiLz48cGF0aCBkPSJNOTczLDY3NCwgMTI4MywyNjUuNSIgbWFya2VyLWVuZD0iIiBzdHlsZT0ic3Ryb2tlLXdpZHRoOiAwLjA0MTczNzZweDsgc3Ryb2tlLW9wYWNpdHk6IDE7IHN0cm9rZTogcmdiKDgwLCA4MCwgODApOyIgY2xhc3M9ImxpbmsiLz48cGF0aCBkPSJNNjYzLDcxNywgOTczLDIwMSIgbWFya2VyLWVuZD0iIiBzdHlsZT0ic3Ryb2tlLXdpZHRoOiAxLjIyMzc5cHg7IHN0cm9rZS1vcGFjaXR5OiAxOyBzdHJva2U6IHJnYig4MCwgODAsIDgwKTsiIGNsYXNzPSJsaW5rIi8+PHBhdGggZD0iTTY2Myw3MTcsIDk3MywyNDQiIG1hcmtlci1lbmQ9IiIgc3R5bGU9InN0cm9rZS13aWR0aDogMC4yNzY1NDFweDsgc3Ryb2tlLW9wYWNpdHk6IDE7IHN0cm9rZTogcmdiKDgwLCA4MCwgODApOyIgY2xhc3M9ImxpbmsiLz48cGF0aCBkPSJNNjYzLDcxNywgOTczLDI4NyIgbWFya2VyLWVuZD0iIiBzdHlsZT0ic3Ryb2tlLXdpZHRoOiAwLjMyOTI3NnB4OyBzdHJva2Utb3BhY2l0eTogMTsgc3Ryb2tlOiByZ2IoODAsIDgwLCA4MCk7IiBjbGFzcz0ibGluayIvPjxwYXRoIGQ9Ik02NjMsNzE3LCA5NzMsMzMwIiBtYXJrZXItZW5kPSIiIHN0eWxlPSJzdHJva2Utd2lkdGg6IDAuMjAyMTk5cHg7IHN0cm9rZS1vcGFjaXR5OiAxOyBzdHJva2U6IHJnYig4MCwgODAsIDgwKTsiIGNsYXNzPSJsaW5rIi8+PHBhdGggZD0iTTY2Myw3MTcsIDk3MywzNzMiIG1hcmtlci1lbmQ9IiIgc3R5bGU9InN0cm9rZS13aWR0aDogMC4yMjA3ODRweDsgc3Ryb2tlLW9wYWNpdHk6IDE7IHN0cm9rZTogcmdiKDgwLCA4MCwgODApOyIgY2xhc3M9ImxpbmsiLz48cGF0aCBkPSJNNjYzLDcxNywgOTczLDQxNiIgbWFya2VyLWVuZD0iIiBzdHlsZT0ic3Ryb2tlLXdpZHRoOiAwLjM0Mjc5M3B4OyBzdHJva2Utb3BhY2l0eTogMTsgc3Ryb2tlOiByZ2IoODAsIDgwLCA4MCk7IiBjbGFzcz0ibGluayIvPjxwYXRoIGQ9Ik02NjMsNzE3LCA5NzMsNDU5IiBtYXJrZXItZW5kPSIiIHN0eWxlPSJzdHJva2Utd2lkdGg6IDEuMjExOTRweDsgc3Ryb2tlLW9wYWNpdHk6IDE7IHN0cm9rZTogcmdiKDgwLCA4MCwgODApOyIgY2xhc3M9ImxpbmsiLz48cGF0aCBkPSJNNjYzLDcxNywgOTczLDUwMiIgbWFya2VyLWVuZD0iIiBzdHlsZT0ic3Ryb2tlLXdpZHRoOiAxLjI1ODlweDsgc3Ryb2tlLW9wYWNpdHk6IDE7IHN0cm9rZTogcmdiKDgwLCA4MCwgODApOyIgY2xhc3M9ImxpbmsiLz48cGF0aCBkPSJNNjYzLDcxNywgOTczLDU0NSIgbWFya2VyLWVuZD0iIiBzdHlsZT0ic3Ryb2tlLXdpZHRoOiAxLjIzMDY0cHg7IHN0cm9rZS1vcGFjaXR5OiAxOyBzdHJva2U6IHJnYig4MCwgODAsIDgwKTsiIGNsYXNzPSJsaW5rIi8+PHBhdGggZD0iTTY2Myw3MTcsIDk3Myw1ODgiIG1hcmtlci1lbmQ9IiIgc3R5bGU9InN0cm9rZS13aWR0aDogMS4zODc0NXB4OyBzdHJva2Utb3BhY2l0eTogMTsgc3Ryb2tlOiByZ2IoODAsIDgwLCA4MCk7IiBjbGFzcz0ibGluayIvPjxwYXRoIGQ9Ik02NjMsNzE3LCA5NzMsNjMxIiBtYXJrZXItZW5kPSIiIHN0eWxlPSJzdHJva2Utd2lkdGg6IDAuNTIyMzA2cHg7IHN0cm9rZS1vcGFjaXR5OiAxOyBzdHJva2U6IHJnYig4MCwgODAsIDgwKTsiIGNsYXNzPSJsaW5rIi8+PHBhdGggZD0iTTY2Myw3MTcsIDk3Myw2NzQiIG1hcmtlci1lbmQ9IiIgc3R5bGU9InN0cm9rZS13aWR0aDogMC43NjE4MDdweDsgc3Ryb2tlLW9wYWNpdHk6IDE7IHN0cm9rZTogcmdiKDgwLCA4MCwgODApOyIgY2xhc3M9ImxpbmsiLz48cGF0aCBkPSJNNjYzLDc2MCwgOTczLDIwMSIgbWFya2VyLWVuZD0iIiBzdHlsZT0ic3Ryb2tlLXdpZHRoOiAxLjE5MDUzcHg7IHN0cm9rZS1vcGFjaXR5OiAxOyBzdHJva2U6IHJnYig4MCwgODAsIDgwKTsiIGNsYXNzPSJsaW5rIi8+PHBhdGggZD0iTTY2Myw3NjAsIDk3MywyNDQiIG1hcmtlci1lbmQ9IiIgc3R5bGU9InN0cm9rZS13aWR0aDogMS4yNjA1OHB4OyBzdHJva2Utb3BhY2l0eTogMTsgc3Ryb2tlOiByZ2IoODAsIDgwLCA4MCk7IiBjbGFzcz0ibGluayIvPjxwYXRoIGQ9Ik02NjMsNzYwLCA5NzMsMjg3IiBtYXJrZXItZW5kPSIiIHN0eWxlPSJzdHJva2Utd2lkdGg6IDAuNzg1MzZweDsgc3Ryb2tlLW9wYWNpdHk6IDE7IHN0cm9rZTogcmdiKDgwLCA4MCwgODApOyIgY2xhc3M9ImxpbmsiLz48cGF0aCBkPSJNNjYzLDc2MCwgOTczLDMzMCIgbWFya2VyLWVuZD0iIiBzdHlsZT0ic3Ryb2tlLXdpZHRoOiAwLjM1ODQyMnB4OyBzdHJva2Utb3BhY2l0eTogMTsgc3Ryb2tlOiByZ2IoODAsIDgwLCA4MCk7IiBjbGFzcz0ibGluayIvPjxwYXRoIGQ9Ik02NjMsNzYwLCA5NzMsMzczIiBtYXJrZXItZW5kPSIiIHN0eWxlPSJzdHJva2Utd2lkdGg6IDAuMDk5OTQ2OXB4OyBzdHJva2Utb3BhY2l0eTogMTsgc3Ryb2tlOiByZ2IoODAsIDgwLCA4MCk7IiBjbGFzcz0ibGluayIvPjxwYXRoIGQ9Ik02NjMsNzYwLCA5NzMsNDE2IiBtYXJrZXItZW5kPSIiIHN0eWxlPSJzdHJva2Utd2lkdGg6IDAuMjU0MDExcHg7IHN0cm9rZS1vcGFjaXR5OiAxOyBzdHJva2U6IHJnYig4MCwgODAsIDgwKTsiIGNsYXNzPSJsaW5rIi8+PHBhdGggZD0iTTY2Myw3NjAsIDk3Myw0NTkiIG1hcmtlci1lbmQ9IiIgc3R5bGU9InN0cm9rZS13aWR0aDogMC4wNTYxNDVweDsgc3Ryb2tlLW9wYWNpdHk6IDE7IHN0cm9rZTogcmdiKDgwLCA4MCwgODApOyIgY2xhc3M9ImxpbmsiLz48cGF0aCBkPSJNNjYzLDc2MCwgOTczLDUwMiIgbWFya2VyLWVuZD0iIiBzdHlsZT0ic3Ryb2tlLXdpZHRoOiAxLjIxMzc5cHg7IHN0cm9rZS1vcGFjaXR5OiAxOyBzdHJva2U6IHJnYig4MCwgODAsIDgwKTsiIGNsYXNzPSJsaW5rIi8+PHBhdGggZD0iTTY2Myw3NjAsIDk3Myw1NDUiIG1hcmtlci1lbmQ9IiIgc3R5bGU9InN0cm9rZS13aWR0aDogMC4zMzczMDhweDsgc3Ryb2tlLW9wYWNpdHk6IDE7IHN0cm9rZTogcmdiKDgwLCA4MCwgODApOyIgY2xhc3M9ImxpbmsiLz48cGF0aCBkPSJNNjYzLDc2MCwgOTczLDU4OCIgbWFya2VyLWVuZD0iIiBzdHlsZT0ic3Ryb2tlLXdpZHRoOiAwLjg2NjYxcHg7IHN0cm9rZS1vcGFjaXR5OiAxOyBzdHJva2U6IHJnYig4MCwgODAsIDgwKTsiIGNsYXNzPSJsaW5rIi8+PHBhdGggZD0iTTY2Myw3NjAsIDk3Myw2MzEiIG1hcmtlci1lbmQ9IiIgc3R5bGU9InN0cm9rZS13aWR0aDogMC45OTY2NDRweDsgc3Ryb2tlLW9wYWNpdHk6IDE7IHN0cm9rZTogcmdiKDgwLCA4MCwgODApOyIgY2xhc3M9ImxpbmsiLz48cGF0aCBkPSJNNjYzLDc2MCwgOTczLDY3NCIgbWFya2VyLWVuZD0iIiBzdHlsZT0ic3Ryb2tlLXdpZHRoOiAxLjI4NzEycHg7IHN0cm9rZS1vcGFjaXR5OiAxOyBzdHJva2U6IHJnYig4MCwgODAsIDgwKTsiIGNsYXNzPSJsaW5rIi8+PHBhdGggZD0iTTY2Myw4MDMsIDk3MywyMDEiIG1hcmtlci1lbmQ9IiIgc3R5bGU9InN0cm9rZS13aWR0aDogMC41ODE0MTlweDsgc3Ryb2tlLW9wYWNpdHk6IDE7IHN0cm9rZTogcmdiKDgwLCA4MCwgODApOyIgY2xhc3M9ImxpbmsiLz48cGF0aCBkPSJNNjYzLDgwMywgOTczLDI0NCIgbWFya2VyLWVuZD0iIiBzdHlsZT0ic3Ryb2tlLXdpZHRoOiAwLjk0NTY1OXB4OyBzdHJva2Utb3BhY2l0eTogMTsgc3Ryb2tlOiByZ2IoODAsIDgwLCA4MCk7IiBjbGFzcz0ibGluayIvPjxwYXRoIGQ9Ik02NjMsODAzLCA5NzMsMjg3IiBtYXJrZXItZW5kPSIiIHN0eWxlPSJzdHJva2Utd2lkdGg6IDEuNDYzOThweDsgc3Ryb2tlLW9wYWNpdHk6IDE7IHN0cm9rZTogcmdiKDgwLCA4MCwgODApOyIgY2xhc3M9ImxpbmsiLz48cGF0aCBkPSJNNjYzLDgwMywgOTczLDMzMCIgbWFya2VyLWVuZD0iIiBzdHlsZT0ic3Ryb2tlLXdpZHRoOiAwLjE0NjI1MXB4OyBzdHJva2Utb3BhY2l0eTogMTsgc3Ryb2tlOiByZ2IoODAsIDgwLCA4MCk7IiBjbGFzcz0ibGluayIvPjxwYXRoIGQ9Ik02NjMsODAzLCA5NzMsMzczIiBtYXJrZXItZW5kPSIiIHN0eWxlPSJzdHJva2Utd2lkdGg6IDAuNjc5OTcxcHg7IHN0cm9rZS1vcGFjaXR5OiAxOyBzdHJva2U6IHJnYig4MCwgODAsIDgwKTsiIGNsYXNzPSJsaW5rIi8+PHBhdGggZD0iTTY2Myw4MDMsIDk3Myw0MTYiIG1hcmtlci1lbmQ9IiIgc3R5bGU9InN0cm9rZS13aWR0aDogMS4yOTI3N3B4OyBzdHJva2Utb3BhY2l0eTogMTsgc3Ryb2tlOiByZ2IoODAsIDgwLCA4MCk7IiBjbGFzcz0ibGluayIvPjxwYXRoIGQ9Ik02NjMsODAzLCA5NzMsNDU5IiBtYXJrZXItZW5kPSIiIHN0eWxlPSJzdHJva2Utd2lkdGg6IDEuMDc4MTJweDsgc3Ryb2tlLW9wYWNpdHk6IDE7IHN0cm9rZTogcmdiKDgwLCA4MCwgODApOyIgY2xhc3M9ImxpbmsiLz48cGF0aCBkPSJNNjYzLDgwMywgOTczLDUwMiIgbWFya2VyLWVuZD0iIiBzdHlsZT0ic3Ryb2tlLXdpZHRoOiAxLjQ2MTYycHg7IHN0cm9rZS1vcGFjaXR5OiAxOyBzdHJva2U6IHJnYig4MCwgODAsIDgwKTsiIGNsYXNzPSJsaW5rIi8+PHBhdGggZD0iTTY2Myw4MDMsIDk3Myw1NDUiIG1hcmtlci1lbmQ9IiIgc3R5bGU9InN0cm9rZS13aWR0aDogMC4zMzgyNzhweDsgc3Ryb2tlLW9wYWNpdHk6IDE7IHN0cm9rZTogcmdiKDgwLCA4MCwgODApOyIgY2xhc3M9ImxpbmsiLz48cGF0aCBkPSJNNjYzLDgwMywgOTczLDU4OCIgbWFya2VyLWVuZD0iIiBzdHlsZT0ic3Ryb2tlLXdpZHRoOiAwLjkzODgzNnB4OyBzdHJva2Utb3BhY2l0eTogMTsgc3Ryb2tlOiByZ2IoODAsIDgwLCA4MCk7IiBjbGFzcz0ibGluayIvPjxwYXRoIGQ9Ik02NjMsODAzLCA5NzMsNjMxIiBtYXJrZXItZW5kPSIiIHN0eWxlPSJzdHJva2Utd2lkdGg6IDEuMzUwMjVweDsgc3Ryb2tlLW9wYWNpdHk6IDE7IHN0cm9rZTogcmdiKDgwLCA4MCwgODApOyIgY2xhc3M9ImxpbmsiLz48cGF0aCBkPSJNNjYzLDgwMywgOTczLDY3NCIgbWFya2VyLWVuZD0iIiBzdHlsZT0ic3Ryb2tlLXdpZHRoOiAwLjE2NjczNHB4OyBzdHJva2Utb3BhY2l0eTogMTsgc3Ryb2tlOiByZ2IoODAsIDgwLCA4MCk7IiBjbGFzcz0ibGluayIvPjxwYXRoIGQ9Ik02NjMsODQ2LCA5NzMsMjAxIiBtYXJrZXItZW5kPSIiIHN0eWxlPSJzdHJva2Utd2lkdGg6IDAuNTU2MzA5cHg7IHN0cm9rZS1vcGFjaXR5OiAxOyBzdHJva2U6IHJnYig4MCwgODAsIDgwKTsiIGNsYXNzPSJsaW5rIi8+PHBhdGggZD0iTTY2Myw4NDYsIDk3MywyNDQiIG1hcmtlci1lbmQ9IiIgc3R5bGU9InN0cm9rZS13aWR0aDogMC45MDA4OTJweDsgc3Ryb2tlLW9wYWNpdHk6IDE7IHN0cm9rZTogcmdiKDgwLCA4MCwgODApOyIgY2xhc3M9ImxpbmsiLz48cGF0aCBkPSJNNjYzLDg0NiwgOTczLDI4NyIgbWFya2VyLWVuZD0iIiBzdHlsZT0ic3Ryb2tlLXdpZHRoOiAxLjIwNzVweDsgc3Ryb2tlLW9wYWNpdHk6IDE7IHN0cm9rZTogcmdiKDgwLCA4MCwgODApOyIgY2xhc3M9ImxpbmsiLz48cGF0aCBkPSJNNjYzLDg0NiwgOTczLDMzMCIgbWFya2VyLWVuZD0iIiBzdHlsZT0ic3Ryb2tlLXdpZHRoOiAwLjY0Njc0OXB4OyBzdHJva2Utb3BhY2l0eTogMTsgc3Ryb2tlOiByZ2IoODAsIDgwLCA4MCk7IiBjbGFzcz0ibGluayIvPjxwYXRoIGQ9Ik02NjMsODQ2LCA5NzMsMzczIiBtYXJrZXItZW5kPSIiIHN0eWxlPSJzdHJva2Utd2lkdGg6IDEuMTY4MTJweDsgc3Ryb2tlLW9wYWNpdHk6IDE7IHN0cm9rZTogcmdiKDgwLCA4MCwgODApOyIgY2xhc3M9ImxpbmsiLz48cGF0aCBkPSJNNjYzLDg0NiwgOTczLDQxNiIgbWFya2VyLWVuZD0iIiBzdHlsZT0ic3Ryb2tlLXdpZHRoOiAxLjQ2NTI3cHg7IHN0cm9rZS1vcGFjaXR5OiAxOyBzdHJva2U6IHJnYig4MCwgODAsIDgwKTsiIGNsYXNzPSJsaW5rIi8+PHBhdGggZD0iTTY2Myw4NDYsIDk3Myw0NTkiIG1hcmtlci1lbmQ9IiIgc3R5bGU9InN0cm9rZS13aWR0aDogMC4xMTI1OTRweDsgc3Ryb2tlLW9wYWNpdHk6IDE7IHN0cm9rZTogcmdiKDgwLCA4MCwgODApOyIgY2xhc3M9ImxpbmsiLz48cGF0aCBkPSJNNjYzLDg0NiwgOTczLDUwMiIgbWFya2VyLWVuZD0iIiBzdHlsZT0ic3Ryb2tlLXdpZHRoOiAxLjQzNjM0cHg7IHN0cm9rZS1vcGFjaXR5OiAxOyBzdHJva2U6IHJnYig4MCwgODAsIDgwKTsiIGNsYXNzPSJsaW5rIi8+PHBhdGggZD0iTTY2Myw4NDYsIDk3Myw1NDUiIG1hcmtlci1lbmQ9IiIgc3R5bGU9InN0cm9rZS13aWR0aDogMC4wNjEyMTRweDsgc3Ryb2tlLW9wYWNpdHk6IDE7IHN0cm9rZTogcmdiKDgwLCA4MCwgODApOyIgY2xhc3M9ImxpbmsiLz48cGF0aCBkPSJNNjYzLDg0NiwgOTczLDU4OCIgbWFya2VyLWVuZD0iIiBzdHlsZT0ic3Ryb2tlLXdpZHRoOiAxLjEwODMxcHg7IHN0cm9rZS1vcGFjaXR5OiAxOyBzdHJva2U6IHJnYig4MCwgODAsIDgwKTsiIGNsYXNzPSJsaW5rIi8+PHBhdGggZD0iTTY2Myw4NDYsIDk3Myw2MzEiIG1hcmtlci1lbmQ9IiIgc3R5bGU9InN0cm9rZS13aWR0aDogMS4yNTA1MnB4OyBzdHJva2Utb3BhY2l0eTogMTsgc3Ryb2tlOiByZ2IoODAsIDgwLCA4MCk7IiBjbGFzcz0ibGluayIvPjxwYXRoIGQ9Ik02NjMsODQ2LCA5NzMsNjc0IiBtYXJrZXItZW5kPSIiIHN0eWxlPSJzdHJva2Utd2lkdGg6IDAuNDg5NTU0cHg7IHN0cm9rZS1vcGFjaXR5OiAxOyBzdHJva2U6IHJnYig4MCwgODAsIDgwKTsiIGNsYXNzPSJsaW5rIi8+PHBhdGggZD0iTTY2Myw4ODksIDk3MywyMDEiIG1hcmtlci1lbmQ9IiIgc3R5bGU9InN0cm9rZS13aWR0aDogMS4xMTc4NnB4OyBzdHJva2Utb3BhY2l0eTogMTsgc3Ryb2tlOiByZ2IoODAsIDgwLCA4MCk7IiBjbGFzcz0ibGluayIvPjxwYXRoIGQ9Ik02NjMsODg5LCA5NzMsMjQ0IiBtYXJrZXItZW5kPSIiIHN0eWxlPSJzdHJva2Utd2lkdGg6IDEuMTU4NjlweDsgc3Ryb2tlLW9wYWNpdHk6IDE7IHN0cm9rZTogcmdiKDgwLCA4MCwgODApOyIgY2xhc3M9ImxpbmsiLz48cGF0aCBkPSJNNjYzLDg4OSwgOTczLDI4NyIgbWFya2VyLWVuZD0iIiBzdHlsZT0ic3Ryb2tlLXdpZHRoOiAwLjg2MzYwNHB4OyBzdHJva2Utb3BhY2l0eTogMTsgc3Ryb2tlOiByZ2IoODAsIDgwLCA4MCk7IiBjbGFzcz0ibGluayIvPjxwYXRoIGQ9Ik02NjMsODg5LCA5NzMsMzMwIiBtYXJrZXItZW5kPSIiIHN0eWxlPSJzdHJva2Utd2lkdGg6IDAuNDMyMTMxcHg7IHN0cm9rZS1vcGFjaXR5OiAxOyBzdHJva2U6IHJnYig4MCwgODAsIDgwKTsiIGNsYXNzPSJsaW5rIi8+PHBhdGggZD0iTTY2Myw4ODksIDk3MywzNzMiIG1hcmtlci1lbmQ9IiIgc3R5bGU9InN0cm9rZS13aWR0aDogMS4yOTQ5NXB4OyBzdHJva2Utb3BhY2l0eTogMTsgc3Ryb2tlOiByZ2IoODAsIDgwLCA4MCk7IiBjbGFzcz0ibGluayIvPjxwYXRoIGQ9Ik02NjMsODg5LCA5NzMsNDE2IiBtYXJrZXItZW5kPSIiIHN0eWxlPSJzdHJva2Utd2lkdGg6IDAuNDE1NzAzcHg7IHN0cm9rZS1vcGFjaXR5OiAxOyBzdHJva2U6IHJnYig4MCwgODAsIDgwKTsiIGNsYXNzPSJsaW5rIi8+PHBhdGggZD0iTTY2Myw4ODksIDk3Myw0NTkiIG1hcmtlci1lbmQ9IiIgc3R5bGU9InN0cm9rZS13aWR0aDogMC4wMzQ0MzUzcHg7IHN0cm9rZS1vcGFjaXR5OiAxOyBzdHJva2U6IHJnYig4MCwgODAsIDgwKTsiIGNsYXNzPSJsaW5rIi8+PHBhdGggZD0iTTY2Myw4ODksIDk3Myw1MDIiIG1hcmtlci1lbmQ9IiIgc3R5bGU9InN0cm9rZS13aWR0aDogMS4zOTA5M3B4OyBzdHJva2Utb3BhY2l0eTogMTsgc3Ryb2tlOiByZ2IoODAsIDgwLCA4MCk7IiBjbGFzcz0ibGluayIvPjxwYXRoIGQ9Ik02NjMsODg5LCA5NzMsNTQ1IiBtYXJrZXItZW5kPSIiIHN0eWxlPSJzdHJva2Utd2lkdGg6IDAuNjU1MTA2cHg7IHN0cm9rZS1vcGFjaXR5OiAxOyBzdHJva2U6IHJnYig4MCwgODAsIDgwKTsiIGNsYXNzPSJsaW5rIi8+PHBhdGggZD0iTTY2Myw4ODksIDk3Myw1ODgiIG1hcmtlci1lbmQ9IiIgc3R5bGU9InN0cm9rZS13aWR0aDogMS4yNzgyMnB4OyBzdHJva2Utb3BhY2l0eTogMTsgc3Ryb2tlOiByZ2IoODAsIDgwLCA4MCk7IiBjbGFzcz0ibGluayIvPjxwYXRoIGQ9Ik02NjMsODg5LCA5NzMsNjMxIiBtYXJrZXItZW5kPSIiIHN0eWxlPSJzdHJva2Utd2lkdGg6IDAuNzE0NTIxcHg7IHN0cm9rZS1vcGFjaXR5OiAxOyBzdHJva2U6IHJnYig4MCwgODAsIDgwKTsiIGNsYXNzPSJsaW5rIi8+PHBhdGggZD0iTTY2Myw4ODksIDk3Myw2NzQiIG1hcmtlci1lbmQ9IiIgc3R5bGU9InN0cm9rZS13aWR0aDogMC44OTUyNzRweDsgc3Ryb2tlLW9wYWNpdHk6IDE7IHN0cm9rZTogcmdiKDgwLCA4MCwgODApOyIgY2xhc3M9ImxpbmsiLz48cGF0aCBkPSJNNjYzLDI5LCA5NzMsNzE3IiBtYXJrZXItZW5kPSIiIHN0eWxlPSJzdHJva2Utd2lkdGg6IDAuNTA0MTdweDsgc3Ryb2tlLW9wYWNpdHk6IDE7IHN0cm9rZTogcmdiKDgwLCA4MCwgODApOyIgY2xhc3M9ImxpbmsiLz48cGF0aCBkPSJNNjYzLDcyLCA5NzMsNzE3IiBtYXJrZXItZW5kPSIiIHN0eWxlPSJzdHJva2Utd2lkdGg6IDEuMzIyM3B4OyBzdHJva2Utb3BhY2l0eTogMTsgc3Ryb2tlOiByZ2IoODAsIDgwLCA4MCk7IiBjbGFzcz0ibGluayIvPjxwYXRoIGQ9Ik02NjMsMTE1LCA5NzMsNzE3IiBtYXJrZXItZW5kPSIiIHN0eWxlPSJzdHJva2Utd2lkdGg6IDEuMDI1M3B4OyBzdHJva2Utb3BhY2l0eTogMTsgc3Ryb2tlOiByZ2IoODAsIDgwLCA4MCk7IiBjbGFzcz0ibGluayIvPjxwYXRoIGQ9Ik02NjMsMTU4LCA5NzMsNzE3IiBtYXJrZXItZW5kPSIiIHN0eWxlPSJzdHJva2Utd2lkdGg6IDAuOTI4ODc4cHg7IHN0cm9rZS1vcGFjaXR5OiAxOyBzdHJva2U6IHJnYig4MCwgODAsIDgwKTsiIGNsYXNzPSJsaW5rIi8+PHBhdGggZD0iTTY2MywyMDEsIDk3Myw3MTciIG1hcmtlci1lbmQ9IiIgc3R5bGU9InN0cm9rZS13aWR0aDogMS40NDc4N3B4OyBzdHJva2Utb3BhY2l0eTogMTsgc3Ryb2tlOiByZ2IoODAsIDgwLCA4MCk7IiBjbGFzcz0ibGluayIvPjxwYXRoIGQ9Ik02NjMsMjQ0LCA5NzMsNzE3IiBtYXJrZXItZW5kPSIiIHN0eWxlPSJzdHJva2Utd2lkdGg6IDEuNDQ3ODNweDsgc3Ryb2tlLW9wYWNpdHk6IDE7IHN0cm9rZTogcmdiKDgwLCA4MCwgODApOyIgY2xhc3M9ImxpbmsiLz48cGF0aCBkPSJNNjYzLDI4NywgOTczLDcxNyIgbWFya2VyLWVuZD0iIiBzdHlsZT0ic3Ryb2tlLXdpZHRoOiAwLjUwNDE4MXB4OyBzdHJva2Utb3BhY2l0eTogMTsgc3Ryb2tlOiByZ2IoODAsIDgwLCA4MCk7IiBjbGFzcz0ibGluayIvPjxwYXRoIGQ9Ik02NjMsMzMwLCA5NzMsNzE3IiBtYXJrZXItZW5kPSIiIHN0eWxlPSJzdHJva2Utd2lkdGg6IDAuOTY2NjgycHg7IHN0cm9rZS1vcGFjaXR5OiAxOyBzdHJva2U6IHJnYig4MCwgODAsIDgwKTsiIGNsYXNzPSJsaW5rIi8+PHBhdGggZD0iTTY2MywzNzMsIDk3Myw3MTciIG1hcmtlci1lbmQ9IiIgc3R5bGU9InN0cm9rZS13aWR0aDogMC4xNTQ5MTRweDsgc3Ryb2tlLW9wYWNpdHk6IDE7IHN0cm9rZTogcmdiKDgwLCA4MCwgODApOyIgY2xhc3M9ImxpbmsiLz48cGF0aCBkPSJNNjYzLDQxNiwgOTczLDcxNyIgbWFya2VyLWVuZD0iIiBzdHlsZT0ic3Ryb2tlLXdpZHRoOiAwLjQ4ODg5OHB4OyBzdHJva2Utb3BhY2l0eTogMTsgc3Ryb2tlOiByZ2IoODAsIDgwLCA4MCk7IiBjbGFzcz0ibGluayIvPjxwYXRoIGQ9Ik02NjMsNDU5LCA5NzMsNzE3IiBtYXJrZXItZW5kPSIiIHN0eWxlPSJzdHJva2Utd2lkdGg6IDAuNzE0MDgycHg7IHN0cm9rZS1vcGFjaXR5OiAxOyBzdHJva2U6IHJnYig4MCwgODAsIDgwKTsiIGNsYXNzPSJsaW5rIi8+PHBhdGggZD0iTTY2Myw1MDIsIDk3Myw3MTciIG1hcmtlci1lbmQ9IiIgc3R5bGU9InN0cm9rZS13aWR0aDogMS4yNzM5NnB4OyBzdHJva2Utb3BhY2l0eTogMTsgc3Ryb2tlOiByZ2IoODAsIDgwLCA4MCk7IiBjbGFzcz0ibGluayIvPjxwYXRoIGQ9Ik02NjMsNTQ1LCA5NzMsNzE3IiBtYXJrZXItZW5kPSIiIHN0eWxlPSJzdHJva2Utd2lkdGg6IDAuNjQ0ODQ2cHg7IHN0cm9rZS1vcGFjaXR5OiAxOyBzdHJva2U6IHJnYig4MCwgODAsIDgwKTsiIGNsYXNzPSJsaW5rIi8+PHBhdGggZD0iTTY2Myw1ODgsIDk3Myw3MTciIG1hcmtlci1lbmQ9IiIgc3R5bGU9InN0cm9rZS13aWR0aDogMC45NTIyNTRweDsgc3Ryb2tlLW9wYWNpdHk6IDE7IHN0cm9rZTogcmdiKDgwLCA4MCwgODApOyIgY2xhc3M9ImxpbmsiLz48cGF0aCBkPSJNNjYzLDYzMSwgOTczLDcxNyIgbWFya2VyLWVuZD0iIiBzdHlsZT0ic3Ryb2tlLXdpZHRoOiAwLjU4MjA1N3B4OyBzdHJva2Utb3BhY2l0eTogMTsgc3Ryb2tlOiByZ2IoODAsIDgwLCA4MCk7IiBjbGFzcz0ibGluayIvPjxwYXRoIGQ9Ik02NjMsNjc0LCA5NzMsNzE3IiBtYXJrZXItZW5kPSIiIHN0eWxlPSJzdHJva2Utd2lkdGg6IDAuMTM0NDk5cHg7IHN0cm9rZS1vcGFjaXR5OiAxOyBzdHJva2U6IHJnYig4MCwgODAsIDgwKTsiIGNsYXNzPSJsaW5rIi8+PHBhdGggZD0iTTY2Myw3MTcsIDk3Myw3MTciIG1hcmtlci1lbmQ9IiIgc3R5bGU9InN0cm9rZS13aWR0aDogMS4yNjk4MXB4OyBzdHJva2Utb3BhY2l0eTogMTsgc3Ryb2tlOiByZ2IoODAsIDgwLCA4MCk7IiBjbGFzcz0ibGluayIvPjxwYXRoIGQ9Ik02NjMsNzYwLCA5NzMsNzE3IiBtYXJrZXItZW5kPSIiIHN0eWxlPSJzdHJva2Utd2lkdGg6IDEuMjY4MzNweDsgc3Ryb2tlLW9wYWNpdHk6IDE7IHN0cm9rZTogcmdiKDgwLCA4MCwgODApOyIgY2xhc3M9ImxpbmsiLz48cGF0aCBkPSJNNjYzLDgwMywgOTczLDcxNyIgbWFya2VyLWVuZD0iIiBzdHlsZT0ic3Ryb2tlLXdpZHRoOiAwLjc1NDU4NHB4OyBzdHJva2Utb3BhY2l0eTogMTsgc3Ryb2tlOiByZ2IoODAsIDgwLCA4MCk7IiBjbGFzcz0ibGluayIvPjxwYXRoIGQ9Ik02NjMsODQ2LCA5NzMsNzE3IiBtYXJrZXItZW5kPSIiIHN0eWxlPSJzdHJva2Utd2lkdGg6IDAuNTI0MjY0cHg7IHN0cm9rZS1vcGFjaXR5OiAxOyBzdHJva2U6IHJnYig4MCwgODAsIDgwKTsiIGNsYXNzPSJsaW5rIi8+PHBhdGggZD0iTTY2Myw4ODksIDk3Myw3MTciIG1hcmtlci1lbmQ9IiIgc3R5bGU9InN0cm9rZS13aWR0aDogMC4wNDc3ODgycHg7IHN0cm9rZS1vcGFjaXR5OiAxOyBzdHJva2U6IHJnYig4MCwgODAsIDgwKTsiIGNsYXNzPSJsaW5rIi8+PHBhdGggZD0iTTk3Myw3MTcsIDEyODMsMjY1LjUiIG1hcmtlci1lbmQ9IiIgc3R5bGU9InN0cm9rZS13aWR0aDogMC44NDMyMjJweDsgc3Ryb2tlLW9wYWNpdHk6IDE7IHN0cm9rZTogcmdiKDgwLCA4MCwgODApOyIgY2xhc3M9ImxpbmsiLz48cGF0aCBkPSJNOTczLDcxNywgMTI4MywzMDguNSIgbWFya2VyLWVuZD0iIiBzdHlsZT0ic3Ryb2tlLXdpZHRoOiAwLjUyMTczMXB4OyBzdHJva2Utb3BhY2l0eTogMTsgc3Ryb2tlOiByZ2IoODAsIDgwLCA4MCk7IiBjbGFzcz0ibGluayIvPjxwYXRoIGQ9Ik05NzMsNzE3LCAxMjgzLDM1MS41IiBtYXJrZXItZW5kPSIiIHN0eWxlPSJzdHJva2Utd2lkdGg6IDAuNDc5Mzg4cHg7IHN0cm9rZS1vcGFjaXR5OiAxOyBzdHJva2U6IHJnYig4MCwgODAsIDgwKTsiIGNsYXNzPSJsaW5rIi8+PHBhdGggZD0iTTk3Myw3MTcsIDEyODMsMzk0LjUiIG1hcmtlci1lbmQ9IiIgc3R5bGU9InN0cm9rZS13aWR0aDogMS4yNTgzMXB4OyBzdHJva2Utb3BhY2l0eTogMTsgc3Ryb2tlOiByZ2IoODAsIDgwLCA4MCk7IiBjbGFzcz0ibGluayIvPjxwYXRoIGQ9Ik05NzMsNzE3LCAxMjgzLDQzNy41IiBtYXJrZXItZW5kPSIiIHN0eWxlPSJzdHJva2Utd2lkdGg6IDAuNzc0MzYycHg7IHN0cm9rZS1vcGFjaXR5OiAxOyBzdHJva2U6IHJnYig4MCwgODAsIDgwKTsiIGNsYXNzPSJsaW5rIi8+PHBhdGggZD0iTTk3Myw3MTcsIDEyODMsNDgwLjUiIG1hcmtlci1lbmQ9IiIgc3R5bGU9InN0cm9rZS13aWR0aDogMS4yOTY0M3B4OyBzdHJva2Utb3BhY2l0eTogMTsgc3Ryb2tlOiByZ2IoODAsIDgwLCA4MCk7IiBjbGFzcz0ibGluayIvPjxwYXRoIGQ9Ik05NzMsNzE3LCAxMjgzLDUyMy41IiBtYXJrZXItZW5kPSIiIHN0eWxlPSJzdHJva2Utd2lkdGg6IDAuNzE1NzMzcHg7IHN0cm9rZS1vcGFjaXR5OiAxOyBzdHJva2U6IHJnYig4MCwgODAsIDgwKTsiIGNsYXNzPSJsaW5rIi8+PHBhdGggZD0iTTk3Myw3MTcsIDEyODMsNTY2LjUiIG1hcmtlci1lbmQ9IiIgc3R5bGU9InN0cm9rZS13aWR0aDogMS4xNDhweDsgc3Ryb2tlLW9wYWNpdHk6IDE7IHN0cm9rZTogcmdiKDgwLCA4MCwgODApOyIgY2xhc3M9ImxpbmsiLz48cGF0aCBkPSJNOTczLDcxNywgMTI4Myw2MDkuNSIgbWFya2VyLWVuZD0iIiBzdHlsZT0ic3Ryb2tlLXdpZHRoOiAwLjEyOTc2OXB4OyBzdHJva2Utb3BhY2l0eTogMTsgc3Ryb2tlOiByZ2IoODAsIDgwLCA4MCk7IiBjbGFzcz0ibGluayIvPjxwYXRoIGQ9Ik05NzMsNzE3LCAxMjgzLDY1Mi41IiBtYXJrZXItZW5kPSIiIHN0eWxlPSJzdHJva2Utd2lkdGg6IDAuMTc4MDEzcHg7IHN0cm9rZS1vcGFjaXR5OiAxOyBzdHJva2U6IHJnYig4MCwgODAsIDgwKTsiIGNsYXNzPSJsaW5rIi8+PGNpcmNsZSBkYXRhLWRhcmtyZWFkZXItaW5saW5lLXN0cm9rZT0iIiBkYXRhLWRhcmtyZWFkZXItaW5saW5lLWZpbGw9IiIgY3k9IjI5IiBjeD0iNjYzIiBzdHlsZT0iZmlsbDogcmdiKDI1NSwgMjU1LCAyNTUpOyBzdHJva2U6IHJnYig1MSwgNTEsIDUxKTsgLS1kYXJrcmVhZGVyLWlubGluZS1maWxsOiAjZThlNmUzOyAtLWRhcmtyZWFkZXItaW5saW5lLXN0cm9rZTogI2M4YzNiYzsiIGlkPSIwXzAiIGNsYXNzPSJub2RlIiByPSIxMS41Ii8+PGNpcmNsZSBkYXRhLWRhcmtyZWFkZXItaW5saW5lLXN0cm9rZT0iIiBkYXRhLWRhcmtyZWFkZXItaW5saW5lLWZpbGw9IiIgY3k9IjcyIiBjeD0iNjYzIiBzdHlsZT0iZmlsbDogcmdiKDI1NSwgMjU1LCAyNTUpOyBzdHJva2U6IHJnYig1MSwgNTEsIDUxKTsgLS1kYXJrcmVhZGVyLWlubGluZS1maWxsOiAjZThlNmUzOyAtLWRhcmtyZWFkZXItaW5saW5lLXN0cm9rZTogI2M4YzNiYzsiIGlkPSIwXzEiIGNsYXNzPSJub2RlIiByPSIxMS41Ii8+PGNpcmNsZSBkYXRhLWRhcmtyZWFkZXItaW5saW5lLXN0cm9rZT0iIiBkYXRhLWRhcmtyZWFkZXItaW5saW5lLWZpbGw9IiIgY3k9IjExNSIgY3g9IjY2MyIgc3R5bGU9ImZpbGw6IHJnYigyNTUsIDI1NSwgMjU1KTsgc3Ryb2tlOiByZ2IoNTEsIDUxLCA1MSk7IC0tZGFya3JlYWRlci1pbmxpbmUtZmlsbDogI2U4ZTZlMzsgLS1kYXJrcmVhZGVyLWlubGluZS1zdHJva2U6ICNjOGMzYmM7IiBpZD0iMF8yIiBjbGFzcz0ibm9kZSIgcj0iMTEuNSIvPjxjaXJjbGUgZGF0YS1kYXJrcmVhZGVyLWlubGluZS1zdHJva2U9IiIgZGF0YS1kYXJrcmVhZGVyLWlubGluZS1maWxsPSIiIGN5PSIxNTgiIGN4PSI2NjMiIHN0eWxlPSJmaWxsOiByZ2IoMjU1LCAyNTUsIDI1NSk7IHN0cm9rZTogcmdiKDUxLCA1MSwgNTEpOyAtLWRhcmtyZWFkZXItaW5saW5lLWZpbGw6ICNlOGU2ZTM7IC0tZGFya3JlYWRlci1pbmxpbmUtc3Ryb2tlOiAjYzhjM2JjOyIgaWQ9IjBfMyIgY2xhc3M9Im5vZGUiIHI9IjExLjUiLz48Y2lyY2xlIGRhdGEtZGFya3JlYWRlci1pbmxpbmUtc3Ryb2tlPSIiIGRhdGEtZGFya3JlYWRlci1pbmxpbmUtZmlsbD0iIiBjeT0iMjAxIiBjeD0iNjYzIiBzdHlsZT0iZmlsbDogcmdiKDI1NSwgMjU1LCAyNTUpOyBzdHJva2U6IHJnYig1MSwgNTEsIDUxKTsgLS1kYXJrcmVhZGVyLWlubGluZS1maWxsOiAjZThlNmUzOyAtLWRhcmtyZWFkZXItaW5saW5lLXN0cm9rZTogI2M4YzNiYzsiIGlkPSIwXzQiIGNsYXNzPSJub2RlIiByPSIxMS41Ii8+PGNpcmNsZSBkYXRhLWRhcmtyZWFkZXItaW5saW5lLXN0cm9rZT0iIiBkYXRhLWRhcmtyZWFkZXItaW5saW5lLWZpbGw9IiIgY3k9IjI0NCIgY3g9IjY2MyIgc3R5bGU9ImZpbGw6IHJnYigyNTUsIDI1NSwgMjU1KTsgc3Ryb2tlOiByZ2IoNTEsIDUxLCA1MSk7IC0tZGFya3JlYWRlci1pbmxpbmUtZmlsbDogI2U4ZTZlMzsgLS1kYXJrcmVhZGVyLWlubGluZS1zdHJva2U6ICNjOGMzYmM7IiBpZD0iMF81IiBjbGFzcz0ibm9kZSIgcj0iMTEuNSIvPjxjaXJjbGUgZGF0YS1kYXJrcmVhZGVyLWlubGluZS1zdHJva2U9IiIgZGF0YS1kYXJrcmVhZGVyLWlubGluZS1maWxsPSIiIGN5PSIyODciIGN4PSI2NjMiIHN0eWxlPSJmaWxsOiByZ2IoMjU1LCAyNTUsIDI1NSk7IHN0cm9rZTogcmdiKDUxLCA1MSwgNTEpOyAtLWRhcmtyZWFkZXItaW5saW5lLWZpbGw6ICNlOGU2ZTM7IC0tZGFya3JlYWRlci1pbmxpbmUtc3Ryb2tlOiAjYzhjM2JjOyIgaWQ9IjBfNiIgY2xhc3M9Im5vZGUiIHI9IjExLjUiLz48Y2lyY2xlIGRhdGEtZGFya3JlYWRlci1pbmxpbmUtc3Ryb2tlPSIiIGRhdGEtZGFya3JlYWRlci1pbmxpbmUtZmlsbD0iIiBjeT0iMzMwIiBjeD0iNjYzIiBzdHlsZT0iZmlsbDogcmdiKDI1NSwgMjU1LCAyNTUpOyBzdHJva2U6IHJnYig1MSwgNTEsIDUxKTsgLS1kYXJrcmVhZGVyLWlubGluZS1maWxsOiAjZThlNmUzOyAtLWRhcmtyZWFkZXItaW5saW5lLXN0cm9rZTogI2M4YzNiYzsiIGlkPSIwXzciIGNsYXNzPSJub2RlIiByPSIxMS41Ii8+PGNpcmNsZSBkYXRhLWRhcmtyZWFkZXItaW5saW5lLXN0cm9rZT0iIiBkYXRhLWRhcmtyZWFkZXItaW5saW5lLWZpbGw9IiIgY3k9IjM3MyIgY3g9IjY2MyIgc3R5bGU9ImZpbGw6IHJnYigyNTUsIDI1NSwgMjU1KTsgc3Ryb2tlOiByZ2IoNTEsIDUxLCA1MSk7IC0tZGFya3JlYWRlci1pbmxpbmUtZmlsbDogI2U4ZTZlMzsgLS1kYXJrcmVhZGVyLWlubGluZS1zdHJva2U6ICNjOGMzYmM7IiBpZD0iMF84IiBjbGFzcz0ibm9kZSIgcj0iMTEuNSIvPjxjaXJjbGUgZGF0YS1kYXJrcmVhZGVyLWlubGluZS1zdHJva2U9IiIgZGF0YS1kYXJrcmVhZGVyLWlubGluZS1maWxsPSIiIGN5PSI0MTYiIGN4PSI2NjMiIHN0eWxlPSJmaWxsOiByZ2IoMjU1LCAyNTUsIDI1NSk7IHN0cm9rZTogcmdiKDUxLCA1MSwgNTEpOyAtLWRhcmtyZWFkZXItaW5saW5lLWZpbGw6ICNlOGU2ZTM7IC0tZGFya3JlYWRlci1pbmxpbmUtc3Ryb2tlOiAjYzhjM2JjOyIgaWQ9IjBfOSIgY2xhc3M9Im5vZGUiIHI9IjExLjUiLz48Y2lyY2xlIGRhdGEtZGFya3JlYWRlci1pbmxpbmUtc3Ryb2tlPSIiIGRhdGEtZGFya3JlYWRlci1pbmxpbmUtZmlsbD0iIiBjeT0iNDU5IiBjeD0iNjYzIiBzdHlsZT0iZmlsbDogcmdiKDI1NSwgMjU1LCAyNTUpOyBzdHJva2U6IHJnYig1MSwgNTEsIDUxKTsgLS1kYXJrcmVhZGVyLWlubGluZS1maWxsOiAjZThlNmUzOyAtLWRhcmtyZWFkZXItaW5saW5lLXN0cm9rZTogI2M4YzNiYzsiIGlkPSIwXzEwIiBjbGFzcz0ibm9kZSIgcj0iMTEuNSIvPjxjaXJjbGUgZGF0YS1kYXJrcmVhZGVyLWlubGluZS1zdHJva2U9IiIgZGF0YS1kYXJrcmVhZGVyLWlubGluZS1maWxsPSIiIGN5PSI1MDIiIGN4PSI2NjMiIHN0eWxlPSJmaWxsOiByZ2IoMjU1LCAyNTUsIDI1NSk7IHN0cm9rZTogcmdiKDUxLCA1MSwgNTEpOyAtLWRhcmtyZWFkZXItaW5saW5lLWZpbGw6ICNlOGU2ZTM7IC0tZGFya3JlYWRlci1pbmxpbmUtc3Ryb2tlOiAjYzhjM2JjOyIgaWQ9IjBfMTEiIGNsYXNzPSJub2RlIiByPSIxMS41Ii8+PGNpcmNsZSBkYXRhLWRhcmtyZWFkZXItaW5saW5lLXN0cm9rZT0iIiBkYXRhLWRhcmtyZWFkZXItaW5saW5lLWZpbGw9IiIgY3k9IjU0NSIgY3g9IjY2MyIgc3R5bGU9ImZpbGw6IHJnYigyNTUsIDI1NSwgMjU1KTsgc3Ryb2tlOiByZ2IoNTEsIDUxLCA1MSk7IC0tZGFya3JlYWRlci1pbmxpbmUtZmlsbDogI2U4ZTZlMzsgLS1kYXJrcmVhZGVyLWlubGluZS1zdHJva2U6ICNjOGMzYmM7IiBpZD0iMF8xMiIgY2xhc3M9Im5vZGUiIHI9IjExLjUiLz48Y2lyY2xlIGRhdGEtZGFya3JlYWRlci1pbmxpbmUtc3Ryb2tlPSIiIGRhdGEtZGFya3JlYWRlci1pbmxpbmUtZmlsbD0iIiBjeT0iNTg4IiBjeD0iNjYzIiBzdHlsZT0iZmlsbDogcmdiKDI1NSwgMjU1LCAyNTUpOyBzdHJva2U6IHJnYig1MSwgNTEsIDUxKTsgLS1kYXJrcmVhZGVyLWlubGluZS1maWxsOiAjZThlNmUzOyAtLWRhcmtyZWFkZXItaW5saW5lLXN0cm9rZTogI2M4YzNiYzsiIGlkPSIwXzEzIiBjbGFzcz0ibm9kZSIgcj0iMTEuNSIvPjxjaXJjbGUgZGF0YS1kYXJrcmVhZGVyLWlubGluZS1zdHJva2U9IiIgZGF0YS1kYXJrcmVhZGVyLWlubGluZS1maWxsPSIiIGN5PSI2MzEiIGN4PSI2NjMiIHN0eWxlPSJmaWxsOiByZ2IoMjU1LCAyNTUsIDI1NSk7IHN0cm9rZTogcmdiKDUxLCA1MSwgNTEpOyAtLWRhcmtyZWFkZXItaW5saW5lLWZpbGw6ICNlOGU2ZTM7IC0tZGFya3JlYWRlci1pbmxpbmUtc3Ryb2tlOiAjYzhjM2JjOyIgaWQ9IjBfMTQiIGNsYXNzPSJub2RlIiByPSIxMS41Ii8+PGNpcmNsZSBkYXRhLWRhcmtyZWFkZXItaW5saW5lLXN0cm9rZT0iIiBkYXRhLWRhcmtyZWFkZXItaW5saW5lLWZpbGw9IiIgY3k9IjY3NCIgY3g9IjY2MyIgc3R5bGU9ImZpbGw6IHJnYigyNTUsIDI1NSwgMjU1KTsgc3Ryb2tlOiByZ2IoNTEsIDUxLCA1MSk7IC0tZGFya3JlYWRlci1pbmxpbmUtZmlsbDogI2U4ZTZlMzsgLS1kYXJrcmVhZGVyLWlubGluZS1zdHJva2U6ICNjOGMzYmM7IiBpZD0iMF8xNSIgY2xhc3M9Im5vZGUiIHI9IjExLjUiLz48Y2lyY2xlIGN5PSI3MTciIGN4PSI2NjMiIHN0eWxlPSJmaWxsOiByZ2IoMjU1LCAyNTUsIDI1NSk7IHN0cm9rZTogcmdiKDUxLCA1MSwgNTEpOyIgaWQ9IjBfMTYiIGNsYXNzPSJub2RlIiByPSIxMS41Ii8+PGNpcmNsZSBjeT0iNzYwIiBjeD0iNjYzIiBzdHlsZT0iZmlsbDogcmdiKDI1NSwgMjU1LCAyNTUpOyBzdHJva2U6IHJnYig1MSwgNTEsIDUxKTsiIGlkPSIwXzE3IiBjbGFzcz0ibm9kZSIgcj0iMTEuNSIvPjxjaXJjbGUgY3k9IjgwMyIgY3g9IjY2MyIgc3R5bGU9ImZpbGw6IHJnYigyNTUsIDI1NSwgMjU1KTsgc3Ryb2tlOiByZ2IoNTEsIDUxLCA1MSk7IiBpZD0iMF8xOCIgY2xhc3M9Im5vZGUiIHI9IjExLjUiLz48Y2lyY2xlIGN5PSI4NDYiIGN4PSI2NjMiIHN0eWxlPSJmaWxsOiByZ2IoMjU1LCAyNTUsIDI1NSk7IHN0cm9rZTogcmdiKDUxLCA1MSwgNTEpOyIgaWQ9IjBfMTkiIGNsYXNzPSJub2RlIiByPSIxMS41Ii8+PGNpcmNsZSBjeT0iODg5IiBjeD0iNjYzIiBzdHlsZT0iZmlsbDogcmdiKDI1NSwgMjU1LCAyNTUpOyBzdHJva2U6IHJnYig1MSwgNTEsIDUxKTsiIGlkPSIwXzIwIiBjbGFzcz0ibm9kZSIgcj0iMTEuNSIvPjxjaXJjbGUgZGF0YS1kYXJrcmVhZGVyLWlubGluZS1zdHJva2U9IiIgZGF0YS1kYXJrcmVhZGVyLWlubGluZS1maWxsPSIiIGN5PSIyMDEiIGN4PSI5NzMiIHN0eWxlPSJmaWxsOiByZ2IoMjU1LCAyNTUsIDI1NSk7IHN0cm9rZTogcmdiKDUxLCA1MSwgNTEpOyAtLWRhcmtyZWFkZXItaW5saW5lLWZpbGw6ICNlOGU2ZTM7IC0tZGFya3JlYWRlci1pbmxpbmUtc3Ryb2tlOiAjYzhjM2JjOyIgaWQ9IjFfMCIgY2xhc3M9Im5vZGUiIHI9IjExLjUiLz48Y2lyY2xlIGRhdGEtZGFya3JlYWRlci1pbmxpbmUtc3Ryb2tlPSIiIGRhdGEtZGFya3JlYWRlci1pbmxpbmUtZmlsbD0iIiBjeT0iMjQ0IiBjeD0iOTczIiBzdHlsZT0iZmlsbDogcmdiKDI1NSwgMjU1LCAyNTUpOyBzdHJva2U6IHJnYig1MSwgNTEsIDUxKTsgLS1kYXJrcmVhZGVyLWlubGluZS1maWxsOiAjZThlNmUzOyAtLWRhcmtyZWFkZXItaW5saW5lLXN0cm9rZTogI2M4YzNiYzsiIGlkPSIxXzEiIGNsYXNzPSJub2RlIiByPSIxMS41Ii8+PGNpcmNsZSBkYXRhLWRhcmtyZWFkZXItaW5saW5lLXN0cm9rZT0iIiBkYXRhLWRhcmtyZWFkZXItaW5saW5lLWZpbGw9IiIgY3k9IjI4NyIgY3g9Ijk3MyIgc3R5bGU9ImZpbGw6IHJnYigyNTUsIDI1NSwgMjU1KTsgc3Ryb2tlOiByZ2IoNTEsIDUxLCA1MSk7IC0tZGFya3JlYWRlci1pbmxpbmUtZmlsbDogI2U4ZTZlMzsgLS1kYXJrcmVhZGVyLWlubGluZS1zdHJva2U6ICNjOGMzYmM7IiBpZD0iMV8yIiBjbGFzcz0ibm9kZSIgcj0iMTEuNSIvPjxjaXJjbGUgZGF0YS1kYXJrcmVhZGVyLWlubGluZS1zdHJva2U9IiIgZGF0YS1kYXJrcmVhZGVyLWlubGluZS1maWxsPSIiIGN5PSIzMzAiIGN4PSI5NzMiIHN0eWxlPSJmaWxsOiByZ2IoMjU1LCAyNTUsIDI1NSk7IHN0cm9rZTogcmdiKDUxLCA1MSwgNTEpOyAtLWRhcmtyZWFkZXItaW5saW5lLWZpbGw6ICNlOGU2ZTM7IC0tZGFya3JlYWRlci1pbmxpbmUtc3Ryb2tlOiAjYzhjM2JjOyIgaWQ9IjFfMyIgY2xhc3M9Im5vZGUiIHI9IjExLjUiLz48Y2lyY2xlIGRhdGEtZGFya3JlYWRlci1pbmxpbmUtc3Ryb2tlPSIiIGRhdGEtZGFya3JlYWRlci1pbmxpbmUtZmlsbD0iIiBjeT0iMzczIiBjeD0iOTczIiBzdHlsZT0iZmlsbDogcmdiKDI1NSwgMjU1LCAyNTUpOyBzdHJva2U6IHJnYig1MSwgNTEsIDUxKTsgLS1kYXJrcmVhZGVyLWlubGluZS1maWxsOiAjZThlNmUzOyAtLWRhcmtyZWFkZXItaW5saW5lLXN0cm9rZTogI2M4YzNiYzsiIGlkPSIxXzQiIGNsYXNzPSJub2RlIiByPSIxMS41Ii8+PGNpcmNsZSBkYXRhLWRhcmtyZWFkZXItaW5saW5lLXN0cm9rZT0iIiBkYXRhLWRhcmtyZWFkZXItaW5saW5lLWZpbGw9IiIgY3k9IjQxNiIgY3g9Ijk3MyIgc3R5bGU9ImZpbGw6IHJnYigyNTUsIDI1NSwgMjU1KTsgc3Ryb2tlOiByZ2IoNTEsIDUxLCA1MSk7IC0tZGFya3JlYWRlci1pbmxpbmUtZmlsbDogI2U4ZTZlMzsgLS1kYXJrcmVhZGVyLWlubGluZS1zdHJva2U6ICNjOGMzYmM7IiBpZD0iMV81IiBjbGFzcz0ibm9kZSIgcj0iMTEuNSIvPjxjaXJjbGUgZGF0YS1kYXJrcmVhZGVyLWlubGluZS1zdHJva2U9IiIgZGF0YS1kYXJrcmVhZGVyLWlubGluZS1maWxsPSIiIGN5PSI0NTkiIGN4PSI5NzMiIHN0eWxlPSJmaWxsOiByZ2IoMjU1LCAyNTUsIDI1NSk7IHN0cm9rZTogcmdiKDUxLCA1MSwgNTEpOyAtLWRhcmtyZWFkZXItaW5saW5lLWZpbGw6ICNlOGU2ZTM7IC0tZGFya3JlYWRlci1pbmxpbmUtc3Ryb2tlOiAjYzhjM2JjOyIgaWQ9IjFfNiIgY2xhc3M9Im5vZGUiIHI9IjExLjUiLz48Y2lyY2xlIGRhdGEtZGFya3JlYWRlci1pbmxpbmUtc3Ryb2tlPSIiIGRhdGEtZGFya3JlYWRlci1pbmxpbmUtZmlsbD0iIiBjeT0iNTAyIiBjeD0iOTczIiBzdHlsZT0iZmlsbDogcmdiKDI1NSwgMjU1LCAyNTUpOyBzdHJva2U6IHJnYig1MSwgNTEsIDUxKTsgLS1kYXJrcmVhZGVyLWlubGluZS1maWxsOiAjZThlNmUzOyAtLWRhcmtyZWFkZXItaW5saW5lLXN0cm9rZTogI2M4YzNiYzsiIGlkPSIxXzciIGNsYXNzPSJub2RlIiByPSIxMS41Ii8+PGNpcmNsZSBkYXRhLWRhcmtyZWFkZXItaW5saW5lLXN0cm9rZT0iIiBkYXRhLWRhcmtyZWFkZXItaW5saW5lLWZpbGw9IiIgY3k9IjU0NSIgY3g9Ijk3MyIgc3R5bGU9ImZpbGw6IHJnYigyNTUsIDI1NSwgMjU1KTsgc3Ryb2tlOiByZ2IoNTEsIDUxLCA1MSk7IC0tZGFya3JlYWRlci1pbmxpbmUtZmlsbDogI2U4ZTZlMzsgLS1kYXJrcmVhZGVyLWlubGluZS1zdHJva2U6ICNjOGMzYmM7IiBpZD0iMV84IiBjbGFzcz0ibm9kZSIgcj0iMTEuNSIvPjxjaXJjbGUgZGF0YS1kYXJrcmVhZGVyLWlubGluZS1zdHJva2U9IiIgZGF0YS1kYXJrcmVhZGVyLWlubGluZS1maWxsPSIiIGN5PSI1ODgiIGN4PSI5NzMiIHN0eWxlPSJmaWxsOiByZ2IoMjU1LCAyNTUsIDI1NSk7IHN0cm9rZTogcmdiKDUxLCA1MSwgNTEpOyAtLWRhcmtyZWFkZXItaW5saW5lLWZpbGw6ICNlOGU2ZTM7IC0tZGFya3JlYWRlci1pbmxpbmUtc3Ryb2tlOiAjYzhjM2JjOyIgaWQ9IjFfOSIgY2xhc3M9Im5vZGUiIHI9IjExLjUiLz48Y2lyY2xlIGRhdGEtZGFya3JlYWRlci1pbmxpbmUtc3Ryb2tlPSIiIGRhdGEtZGFya3JlYWRlci1pbmxpbmUtZmlsbD0iIiBjeT0iNjMxIiBjeD0iOTczIiBzdHlsZT0iZmlsbDogcmdiKDI1NSwgMjU1LCAyNTUpOyBzdHJva2U6IHJnYig1MSwgNTEsIDUxKTsgLS1kYXJrcmVhZGVyLWlubGluZS1maWxsOiAjZThlNmUzOyAtLWRhcmtyZWFkZXItaW5saW5lLXN0cm9rZTogI2M4YzNiYzsiIGlkPSIxXzEwIiBjbGFzcz0ibm9kZSIgcj0iMTEuNSIvPjxjaXJjbGUgZGF0YS1kYXJrcmVhZGVyLWlubGluZS1zdHJva2U9IiIgZGF0YS1kYXJrcmVhZGVyLWlubGluZS1maWxsPSIiIGN5PSI2NzQiIGN4PSI5NzMiIHN0eWxlPSJmaWxsOiByZ2IoMjU1LCAyNTUsIDI1NSk7IHN0cm9rZTogcmdiKDUxLCA1MSwgNTEpOyAtLWRhcmtyZWFkZXItaW5saW5lLWZpbGw6ICNlOGU2ZTM7IC0tZGFya3JlYWRlci1pbmxpbmUtc3Ryb2tlOiAjYzhjM2JjOyIgaWQ9IjFfMTEiIGNsYXNzPSJub2RlIiByPSIxMS41Ii8+PGNpcmNsZSBjeT0iNzE3IiBjeD0iOTczIiBzdHlsZT0iZmlsbDogcmdiKDI1NSwgMjU1LCAyNTUpOyBzdHJva2U6IHJnYig1MSwgNTEsIDUxKTsiIGlkPSIxXzEyIiBjbGFzcz0ibm9kZSIgcj0iMTEuNSIvPjxjaXJjbGUgZGF0YS1kYXJrcmVhZGVyLWlubGluZS1zdHJva2U9IiIgZGF0YS1kYXJrcmVhZGVyLWlubGluZS1maWxsPSIiIGN5PSIyNjUuNSIgY3g9IjEyODMiIHN0eWxlPSJmaWxsOiByZ2IoMjU1LCAyNTUsIDI1NSk7IHN0cm9rZTogcmdiKDUxLCA1MSwgNTEpOyAtLWRhcmtyZWFkZXItaW5saW5lLWZpbGw6ICNlOGU2ZTM7IC0tZGFya3JlYWRlci1pbmxpbmUtc3Ryb2tlOiAjYzhjM2JjOyIgaWQ9IjJfMCIgY2xhc3M9Im5vZGUiIHI9IjExLjUiLz48Y2lyY2xlIGRhdGEtZGFya3JlYWRlci1pbmxpbmUtc3Ryb2tlPSIiIGRhdGEtZGFya3JlYWRlci1pbmxpbmUtZmlsbD0iIiBjeT0iMzA4LjUiIGN4PSIxMjgzIiBzdHlsZT0iZmlsbDogcmdiKDI1NSwgMjU1LCAyNTUpOyBzdHJva2U6IHJnYig1MSwgNTEsIDUxKTsgLS1kYXJrcmVhZGVyLWlubGluZS1maWxsOiAjZThlNmUzOyAtLWRhcmtyZWFkZXItaW5saW5lLXN0cm9rZTogI2M4YzNiYzsiIGlkPSIyXzEiIGNsYXNzPSJub2RlIiByPSIxMS41Ii8+PGNpcmNsZSBkYXRhLWRhcmtyZWFkZXItaW5saW5lLXN0cm9rZT0iIiBkYXRhLWRhcmtyZWFkZXItaW5saW5lLWZpbGw9IiIgY3k9IjM1MS41IiBjeD0iMTI4MyIgc3R5bGU9ImZpbGw6IHJnYigyNTUsIDI1NSwgMjU1KTsgc3Ryb2tlOiByZ2IoNTEsIDUxLCA1MSk7IC0tZGFya3JlYWRlci1pbmxpbmUtZmlsbDogI2U4ZTZlMzsgLS1kYXJrcmVhZGVyLWlubGluZS1zdHJva2U6ICNjOGMzYmM7IiBpZD0iMl8yIiBjbGFzcz0ibm9kZSIgcj0iMTEuNSIvPjxjaXJjbGUgZGF0YS1kYXJrcmVhZGVyLWlubGluZS1zdHJva2U9IiIgZGF0YS1kYXJrcmVhZGVyLWlubGluZS1maWxsPSIiIGN5PSIzOTQuNSIgY3g9IjEyODMiIHN0eWxlPSJmaWxsOiByZ2IoMjU1LCAyNTUsIDI1NSk7IHN0cm9rZTogcmdiKDUxLCA1MSwgNTEpOyAtLWRhcmtyZWFkZXItaW5saW5lLWZpbGw6ICNlOGU2ZTM7IC0tZGFya3JlYWRlci1pbmxpbmUtc3Ryb2tlOiAjYzhjM2JjOyIgaWQ9IjJfMyIgY2xhc3M9Im5vZGUiIHI9IjExLjUiLz48Y2lyY2xlIGRhdGEtZGFya3JlYWRlci1pbmxpbmUtc3Ryb2tlPSIiIGRhdGEtZGFya3JlYWRlci1pbmxpbmUtZmlsbD0iIiBjeT0iNDM3LjUiIGN4PSIxMjgzIiBzdHlsZT0iZmlsbDogcmdiKDI1NSwgMjU1LCAyNTUpOyBzdHJva2U6IHJnYig1MSwgNTEsIDUxKTsgLS1kYXJrcmVhZGVyLWlubGluZS1maWxsOiAjZThlNmUzOyAtLWRhcmtyZWFkZXItaW5saW5lLXN0cm9rZTogI2M4YzNiYzsiIGlkPSIyXzQiIGNsYXNzPSJub2RlIiByPSIxMS41Ii8+PGNpcmNsZSBkYXRhLWRhcmtyZWFkZXItaW5saW5lLXN0cm9rZT0iIiBkYXRhLWRhcmtyZWFkZXItaW5saW5lLWZpbGw9IiIgY3k9IjQ4MC41IiBjeD0iMTI4MyIgc3R5bGU9ImZpbGw6IHJnYigyNTUsIDI1NSwgMjU1KTsgc3Ryb2tlOiByZ2IoNTEsIDUxLCA1MSk7IC0tZGFya3JlYWRlci1pbmxpbmUtZmlsbDogI2U4ZTZlMzsgLS1kYXJrcmVhZGVyLWlubGluZS1zdHJva2U6ICNjOGMzYmM7IiBpZD0iMl81IiBjbGFzcz0ibm9kZSIgcj0iMTEuNSIvPjxjaXJjbGUgZGF0YS1kYXJrcmVhZGVyLWlubGluZS1zdHJva2U9IiIgZGF0YS1kYXJrcmVhZGVyLWlubGluZS1maWxsPSIiIGN5PSI1MjMuNSIgY3g9IjEyODMiIHN0eWxlPSJmaWxsOiByZ2IoMjU1LCAyNTUsIDI1NSk7IHN0cm9rZTogcmdiKDUxLCA1MSwgNTEpOyAtLWRhcmtyZWFkZXItaW5saW5lLWZpbGw6ICNlOGU2ZTM7IC0tZGFya3JlYWRlci1pbmxpbmUtc3Ryb2tlOiAjYzhjM2JjOyIgaWQ9IjJfNiIgY2xhc3M9Im5vZGUiIHI9IjExLjUiLz48Y2lyY2xlIGRhdGEtZGFya3JlYWRlci1pbmxpbmUtc3Ryb2tlPSIiIGRhdGEtZGFya3JlYWRlci1pbmxpbmUtZmlsbD0iIiBjeT0iNTY2LjUiIGN4PSIxMjgzIiBzdHlsZT0iZmlsbDogcmdiKDI1NSwgMjU1LCAyNTUpOyBzdHJva2U6IHJnYig1MSwgNTEsIDUxKTsgLS1kYXJrcmVhZGVyLWlubGluZS1maWxsOiAjZThlNmUzOyAtLWRhcmtyZWFkZXItaW5saW5lLXN0cm9rZTogI2M4YzNiYzsiIGlkPSIyXzciIGNsYXNzPSJub2RlIiByPSIxMS41Ii8+PGNpcmNsZSBkYXRhLWRhcmtyZWFkZXItaW5saW5lLXN0cm9rZT0iIiBkYXRhLWRhcmtyZWFkZXItaW5saW5lLWZpbGw9IiIgY3k9IjYwOS41IiBjeD0iMTI4MyIgc3R5bGU9ImZpbGw6IHJnYigyNTUsIDI1NSwgMjU1KTsgc3Ryb2tlOiByZ2IoNTEsIDUxLCA1MSk7IC0tZGFya3JlYWRlci1pbmxpbmUtZmlsbDogI2U4ZTZlMzsgLS1kYXJrcmVhZGVyLWlubGluZS1zdHJva2U6ICNjOGMzYmM7IiBpZD0iMl84IiBjbGFzcz0ibm9kZSIgcj0iMTEuNSIvPjxjaXJjbGUgZGF0YS1kYXJrcmVhZGVyLWlubGluZS1zdHJva2U9IiIgZGF0YS1kYXJrcmVhZGVyLWlubGluZS1maWxsPSIiIGN5PSI2NTIuNSIgY3g9IjEyODMiIHN0eWxlPSJmaWxsOiByZ2IoMjU1LCAyNTUsIDI1NSk7IHN0cm9rZTogcmdiKDUxLCA1MSwgNTEpOyAtLWRhcmtyZWFkZXItaW5saW5lLWZpbGw6ICNlOGU2ZTM7IC0tZGFya3JlYWRlci1pbmxpbmUtc3Ryb2tlOiAjYzhjM2JjOyIgaWQ9IjJfOSIgY2xhc3M9Im5vZGUiIHI9IjExLjUiLz48dGV4dCB5PSI5MzIiIHg9IjYyOCIgc3R5bGU9ImZvbnQtc2l6ZTogMTJweDsiIGR5PSIuMzVlbSIgY2xhc3M9InRleHQiLz48dGV4dCB5PSI5MzIiIHg9IjkzOCIgc3R5bGU9ImZvbnQtc2l6ZTogMTJweDsiIGR5PSIuMzVlbSIgY2xhc3M9InRleHQiLz48dGV4dCB5PSI5MzIiIHg9IjEyNDgiIHN0eWxlPSJmb250LXNpemU6IDEycHg7IiBkeT0iLjM1ZW0iIGNsYXNzPSJ0ZXh0Ii8+PC9nPjxkZWZzPjxtYXJrZXIgcmVmWD0iNDQuMTk5OTk5OTk5OTk5OTk2IiBvcmllbnQ9ImF1dG8iIG1hcmtlckhlaWdodD0iNyIgbWFya2VyV2lkdGg9IjciIHZpZXdCb3g9IjAgLTUgMTAgMTAiIGlkPSJhcnJvdyI+PHBhdGggZGF0YS1kYXJrcmVhZGVyLWlubGluZS1maWxsPSIiIGRhdGEtZGFya3JlYWRlci1pbmxpbmUtc3Ryb2tlPSIiIHN0eWxlPSJzdHJva2U6IHJnYig4MCwgODAsIDgwKTsgZmlsbDogbm9uZTsgLS1kYXJrcmVhZGVyLWlubGluZS1zdHJva2U6ICNiNWFmYTY7IC0tZGFya3JlYWRlci1pbmxpbmUtZmlsbDogbm9uZTsiIGQ9Ik0wLC01TDEwLDBMMCw1Ii8+PC9tYXJrZXI+PC9kZWZzPjwvc3ZnPg==;clipPath=inset(0% 28.33% 0% 29%);" vertex="1" parent="1">
          <mxGeometry x="10" y="22.11" width="700" height="814.85" as="geometry" />
        </mxCell>
        <mxCell id="7935qGphLNg0khVBVC2c-18" value="" style="shape=curlyBracket;whiteSpace=wrap;html=1;rounded=1;labelPosition=left;verticalLabelPosition=middle;align=right;verticalAlign=middle;size=0.5;rotation=-90;" vertex="1" parent="1">
          <mxGeometry x="77.5" y="791.81" width="55" height="78.5" as="geometry" />
        </mxCell>
        <mxCell id="7935qGphLNg0khVBVC2c-19" value="&lt;div style=&quot;font-size: 33px;&quot;&gt;28 × 28&lt;/div&gt;&lt;div style=&quot;font-size: 33px;&quot;&gt;=&lt;/div&gt;&lt;div style=&quot;font-size: 33px;&quot;&gt;784&lt;/div&gt;&lt;div style=&quot;font-size: 33px;&quot;&gt;entrées&lt;br style=&quot;font-size: 33px;&quot;&gt;&lt;/div&gt;" style="text;html=1;strokeColor=none;fillColor=none;align=center;verticalAlign=middle;whiteSpace=wrap;rounded=0;fontSize=33;fontStyle=1;fontFamily=Courier New;" vertex="1" parent="1">
          <mxGeometry x="20" y="870.31" width="170" height="209.69" as="geometry" />
        </mxCell>
        <mxCell id="7935qGphLNg0khVBVC2c-20" value="" style="shape=image;verticalLabelPosition=bottom;labelBackgroundColor=default;verticalAlign=top;aspect=fixed;imageAspect=0;image=http://joshmontague.com/images/mnist-2.png;" vertex="1" parent="1">
          <mxGeometry x="-532" y="238.54" width="236.95" height="238.56" as="geometry" />
        </mxCell>
        <mxCell id="7935qGphLNg0khVBVC2c-21" value="" style="shape=image;verticalLabelPosition=bottom;labelBackgroundColor=default;verticalAlign=top;aspect=fixed;imageAspect=0;image=http://joshmontague.com/images/mnist-2.png;" vertex="1" parent="1">
          <mxGeometry x="-522" y="248.54" width="236.95" height="238.56" as="geometry" />
        </mxCell>
        <mxCell id="7935qGphLNg0khVBVC2c-22" value="" style="shape=image;verticalLabelPosition=bottom;labelBackgroundColor=default;verticalAlign=top;aspect=fixed;imageAspect=0;image=http://joshmontague.com/images/mnist-2.png;" vertex="1" parent="1">
          <mxGeometry x="-512" y="258.54" width="236.95" height="238.56" as="geometry" />
        </mxCell>
        <mxCell id="7935qGphLNg0khVBVC2c-23" value="" style="shape=image;verticalLabelPosition=bottom;labelBackgroundColor=default;verticalAlign=top;aspect=fixed;imageAspect=0;image=http://joshmontague.com/images/mnist-2.png;" vertex="1" parent="1">
          <mxGeometry x="-502" y="268.54" width="236.95" height="238.56" as="geometry" />
        </mxCell>
        <mxCell id="7935qGphLNg0khVBVC2c-24" value="" style="shape=image;verticalLabelPosition=bottom;labelBackgroundColor=default;verticalAlign=top;aspect=fixed;imageAspect=0;image=http://joshmontague.com/images/mnist-2.png;" vertex="1" parent="1">
          <mxGeometry x="-492" y="278.54" width="236.95" height="238.56" as="geometry" />
        </mxCell>
        <mxCell id="7935qGphLNg0khVBVC2c-25" value="" style="shape=image;verticalLabelPosition=bottom;labelBackgroundColor=default;verticalAlign=top;aspect=fixed;imageAspect=0;image=http://joshmontague.com/images/mnist-2.png;" vertex="1" parent="1">
          <mxGeometry x="-482" y="288.54" width="236.95" height="238.56" as="geometry" />
        </mxCell>
        <mxCell id="7935qGphLNg0khVBVC2c-26" value="" style="shape=image;verticalLabelPosition=bottom;labelBackgroundColor=default;verticalAlign=top;aspect=fixed;imageAspect=0;image=http://joshmontague.com/images/mnist-2.png;" vertex="1" parent="1">
          <mxGeometry x="-472" y="298.54" width="236.95" height="238.56" as="geometry" />
        </mxCell>
        <mxCell id="7935qGphLNg0khVBVC2c-27" value="" style="shape=image;verticalLabelPosition=bottom;labelBackgroundColor=default;verticalAlign=top;aspect=fixed;imageAspect=0;image=http://joshmontague.com/images/mnist-2.png;" vertex="1" parent="1">
          <mxGeometry x="-462" y="308.54" width="236.95" height="238.56" as="geometry" />
        </mxCell>
        <mxCell id="7935qGphLNg0khVBVC2c-28" value="" style="shape=image;verticalLabelPosition=bottom;labelBackgroundColor=default;verticalAlign=top;aspect=fixed;imageAspect=0;image=http://joshmontague.com/images/mnist-2.png;" vertex="1" parent="1">
          <mxGeometry x="-452" y="318.54" width="236.95" height="238.56" as="geometry" />
        </mxCell>
        <mxCell id="7935qGphLNg0khVBVC2c-29" value="" style="shape=curlyBracket;whiteSpace=wrap;html=1;rounded=1;labelPosition=left;verticalLabelPosition=middle;align=right;verticalAlign=middle;size=0.5;rotation=135;" vertex="1" parent="1">
          <mxGeometry x="-278.05" y="178.00000000000006" width="85.4" height="180" as="geometry" />
        </mxCell>
        <mxCell id="7935qGphLNg0khVBVC2c-30" value="&lt;font style=&quot;font-size: 27px;&quot; face=&quot;Courier New&quot;&gt;&lt;b style=&quot;font-size: 27px;&quot;&gt;60 000 images&lt;br style=&quot;font-size: 27px;&quot;&gt;&lt;/b&gt;&lt;/font&gt;" style="text;html=1;strokeColor=none;fillColor=none;align=center;verticalAlign=middle;whiteSpace=wrap;rounded=0;fontSize=27;" vertex="1" parent="1">
          <mxGeometry x="-215.05" y="150" width="118" height="108.54" as="geometry" />
        </mxCell>
        <mxCell id="7935qGphLNg0khVBVC2c-31" value="" style="verticalLabelPosition=bottom;verticalAlign=top;html=1;strokeWidth=4;shape=mxgraph.arrows2.arrow;dy=0.63;dx=81;notch=0;" vertex="1" parent="1">
          <mxGeometry x="-170" y="331.29" width="220" height="205" as="geometry" />
        </mxCell>
        <mxCell id="7935qGphLNg0khVBVC2c-276" value="" style="shape=curlyBracket;whiteSpace=wrap;html=1;rounded=1;labelPosition=left;verticalLabelPosition=middle;align=right;verticalAlign=middle;size=0.5;rotation=-90;" vertex="1" parent="1">
          <mxGeometry x="347.5" y="660" width="55" height="78.5" as="geometry" />
        </mxCell>
        <mxCell id="7935qGphLNg0khVBVC2c-277" value="" style="shape=curlyBracket;whiteSpace=wrap;html=1;rounded=1;labelPosition=left;verticalLabelPosition=middle;align=right;verticalAlign=middle;size=0.5;rotation=-90;" vertex="1" parent="1">
          <mxGeometry x="630.85" y="592.46" width="55" height="111.19" as="geometry" />
        </mxCell>
        <mxCell id="7935qGphLNg0khVBVC2c-278" value="88 neurones" style="text;html=1;strokeColor=none;fillColor=none;align=center;verticalAlign=middle;whiteSpace=wrap;rounded=0;fontSize=33;fontStyle=1;fontFamily=Courier New;" vertex="1" parent="1">
          <mxGeometry x="300" y="738.5" width="150" height="131.5" as="geometry" />
        </mxCell>
        <mxCell id="7935qGphLNg0khVBVC2c-279" value="10 sorties" style="text;html=1;strokeColor=none;fillColor=none;align=center;verticalAlign=middle;whiteSpace=wrap;rounded=0;fontSize=33;fontStyle=1;fontFamily=Courier New;" vertex="1" parent="1">
          <mxGeometry x="578.35" y="683.6199999999999" width="160" height="108.19" as="geometry" />
        </mxCell>
        <mxCell id="7935qGphLNg0khVBVC2c-281" value="&lt;div style=&quot;font-size: 31px;&quot;&gt;0&lt;br style=&quot;font-size: 31px;&quot;&gt;&lt;/div&gt;&lt;div style=&quot;font-size: 31px;&quot;&gt;1&lt;/div&gt;&lt;div style=&quot;font-size: 31px;&quot;&gt;2&lt;/div&gt;&lt;div style=&quot;font-size: 31px;&quot;&gt;3&lt;/div&gt;&lt;div style=&quot;font-size: 31px;&quot;&gt;4&lt;/div&gt;&lt;div style=&quot;font-size: 31px;&quot;&gt;5&lt;/div&gt;&lt;div style=&quot;font-size: 31px;&quot;&gt;6&lt;/div&gt;&lt;div style=&quot;font-size: 31px;&quot;&gt;7&lt;/div&gt;&lt;div style=&quot;font-size: 31px;&quot;&gt;8&lt;/div&gt;&lt;div style=&quot;font-size: 31px;&quot;&gt;9&lt;br style=&quot;font-size: 31px;&quot;&gt;&lt;/div&gt;" style="text;html=1;strokeColor=none;fillColor=none;align=center;verticalAlign=middle;whiteSpace=wrap;rounded=0;fontSize=31;fontStyle=1;fontFamily=Courier New;" vertex="1" parent="1">
          <mxGeometry x="649" y="221" width="70" height="395" as="geometry" />
        </mxCell>
      </root>
    </mxGraphModel>
  </diagram>
</mxfile>
